<svg width="400" height="150" xmlns="http://www.w3.org/2000/svg">
  <defs>
    <!-- Liquid metal gradient -->
    <radialGradient id="liquidMetal" cx="50%" cy="50%">
      <stop offset="0%" style="stop-color:#ff00ff;stop-opacity:1">
        <animate attributeName="stop-color" values="#ff00ff;#00ffff;#ffff00;#ff00ff" dur="3s" repeatCount="indefinite"/>
      </stop>
      <stop offset="50%" style="stop-color:#00ffff;stop-opacity:0.8">
        <animate attributeName="stop-color" values="#00ffff;#ffff00;#ff00ff;#00ffff" dur="3s" repeatCount="indefinite"/>
      </stop>
      <stop offset="100%" style="stop-color:#000000;stop-opacity:1"/>
    </radialGradient>
    
    <!-- N64 polygon gradient -->
    <linearGradient id="n64Poly" x1="0%" y1="0%" x2="100%" y2="100%">
      <stop offset="0%" style="stop-color:#ff00ff;stop-opacity:1"/>
      <stop offset="33%" style="stop-color:#00ffff;stop-opacity:1"/>
      <stop offset="66%" style="stop-color:#ffff00;stop-opacity:1"/>
      <stop offset="100%" style="stop-color:#ff00ff;stop-opacity:1"/>
    </linearGradient>
    
    <!-- Doom shadow -->
    <filter id="doomShadow">
      <feDropShadow dx="0" dy="0" stdDeviation="8" flood-color="#ff00ff" flood-opacity="0.8">
        <animate attributeName="flood-color" values="#ff00ff;#00ffff;#ffff00;#ff00ff" dur="2s" repeatCount="indefinite"/>
      </feDropShadow>
    </filter>
    
    <!-- N64 low-poly bevel -->
    <filter id="n64Bevel">
      <feConvolveMatrix order="3" kernelMatrix="0 -1 0 -1 5 -1 0 -1 0"/>
      <feOffset dx="2" dy="2" result="offset"/>
      <feFlood flood-color="#000000" flood-opacity="0.5"/>
      <feComposite in="SourceGraphic" operator="over"/>
    </filter>
  </defs>
  
  <!-- Void background -->
  <rect width="400" height="150" fill="#000000"/>
  
  <!-- Doom metal amp stack silhouette -->
  <rect x="0" y="120" width="400" height="30" fill="#111111"/>
  <rect x="20" y="110" width="40" height="40" fill="#222222"/>
  <rect x="80" y="115" width="35" height="35" fill="#1a1a1a"/>
  <rect x="285" y="115" width="35" height="35" fill="#1a1a1a"/>
  <rect x="340" y="110" width="40" height="40" fill="#222222"/>
  
  <!-- Rave laser beams -->
  <line x1="0" y1="75" x2="400" y2="45" stroke="#ff00ff" stroke-width="2" opacity="0.6">
    <animate attributeName="y1" values="75;85;75" dur="1s" repeatCount="indefinite"/>
    <animate attributeName="y2" values="45;55;45" dur="1s" repeatCount="indefinite"/>
  </line>
  <line x1="0" y1="75" x2="400" y2="105" stroke="#00ffff" stroke-width="2" opacity="0.6">
    <animate attributeName="y1" values="75;65;75" dur="1.5s" repeatCount="indefinite"/>
    <animate attributeName="y2" values="105;95;105" dur="1.5s" repeatCount="indefinite"/>
  </line>
  
  <!-- N64-style abstract polygon letterforms -->
  <g transform="translate(50, 75)" filter="url(#doomShadow)">
    <!-- 'h' as abstract N64 polygons -->
    <polygon points="0,-30 8,-32 10,-25 8,-8 15,-10 20,-8 22,-25 20,-32 28,-30 30,-22 30,5 22,8 20,0 10,0 8,8 0,5" 
             fill="url(#n64Poly)" opacity="0.9"/>
    <polygon points="8,-15 15,-17 20,-15 18,-8 10,-8" fill="#000000" opacity="0.3"/>
    
    <!-- 'y' as abstract N64 polygons -->
    <polygon points="35,-30 43,-32 48,-25 48,-12 50,-8 52,-12 52,-25 57,-32 65,-30 60,-20 58,-12 53,0 50,8 48,15 42,15 40,8 37,0 32,-12 30,-20" 
             fill="url(#n64Poly)" opacity="0.9"/>
    <polygon points="42,-20 46,-15 50,-10 54,-15 58,-20" fill="#000000" opacity="0.3"/>
    <polygon points="45,5 50,12 47,5" fill="#000000" opacity="0.3"/>
    
    <!-- 'p' as abstract N64 polygons -->
    <polygon points="70,-30 78,-32 80,-25 80,-18 88,-20 95,-18 98,-12 95,-5 88,-3 80,-5 80,15 72,18 70,10 70,5 62,8 60,0 62,-8 70,-10" 
             fill="url(#n64Poly)" opacity="0.9"/>
    <polygon points="80,-18 88,-15 90,-10 88,-5 80,-8" fill="#000000" opacity="0.3"/>
    
    <!-- 'e' as abstract N64 polygons -->
    <polygon points="105,-30 113,-32 125,-30 127,-22 115,-24 115,-18 122,-16 124,-8 115,-10 115,-4 125,0 123,8 111,6 103,8 101,0 103,-8 105,-25" 
             fill="url(#n64Poly)" opacity="0.9"/>
    <polygon points="113,-24 117,-18 113,-18" fill="#000000" opacity="0.3"/>
    <polygon points="113,-10 117,-4 113,-4" fill="#000000" opacity="0.3"/>
    
    <!-- 'r' as abstract N64 polygons -->
    <polygon points="135,-30 143,-32 155,-30 158,-25 158,-18 155,-13 150,-10 158,-5 156,3 148,0 145,-8 143,-5 143,5 135,8 133,0 133,-8 135,-25" 
             fill="url(#n64Poly)" opacity="0.9"/>
    <polygon points="143,-24 150,-22 152,-18 150,-14 143,-16" fill="#000000" opacity="0.3"/>
    
    <!-- 'd' as abstract N64 polygons -->
    <polygon points="165,-30 173,-32 175,-25 175,5 167,0 165,10 165,5 165,-25" 
             fill="url(#n64Poly)" opacity="0.9"/>
    <polygon points="173,-25 180,-28 188,-25 192,-18 192,-8 188,0 180,3 173,0 173,-8" 
             fill="url(#n64Poly)" opacity="0.9"/>
    <polygon points="178,-20 183,-18 185,-12 185,-8 183,-2 178,0" fill="#000000" opacity="0.3"/>
    
    <!-- 'o' as abstract N64 polygons -->
    <polygon points="195,-25 203,-28 210,-25 215,-18 215,-10 213,-3 210,2 203,5 195,2 192,-3 190,-10 190,-18" 
             fill="url(#n64Poly)" opacity="0.9"/>
    <polygon points="198,-18 203,-20 207,-18 210,-12 210,-8 207,-2 203,0 198,-2 195,-8 195,-12" fill="#000000" opacity="0.3"/>
    
    <!-- 'o' as abstract N64 polygons -->
    <polygon points="220,-25 228,-28 235,-25 240,-18 240,-10 238,-3 235,2 228,5 220,2 217,-3 215,-10 215,-18" 
             fill="url(#n64Poly)" opacity="0.9"/>
    <polygon points="223,-18 228,-20 232,-18 235,-12 235,-8 232,-2 228,0 223,-2 220,-8 220,-12" fill="#000000" opacity="0.3"/>
    
    <!-- 'm' as abstract N64 polygons -->
    <polygon points="245,-30 253,-32 255,-25 255,-15 260,-20 265,-15 265,-5 267,3 259,5 257,-3 257,-10 252,-5 250,-10 248,-5 243,-10 243,-3 241,5 233,3 235,-5 235,-15 240,-20 245,-15" 
             fill="url(#n64Poly)" opacity="0.9"/>
    <polygon points="248,-20 252,-15 256,-20 260,-15 264,-20" fill="#000000" opacity="0.3"/>
  </g>
  
  <!-- Melting/dripping effect with N64 polygons -->
  <g fill="url(#liquidMetal)">
    <polygon points="118,90 122,90 120,100 118,100">
      <animate attributeName="points" values="118,90 122,90 120,100 118,100;118,90 122,90 121,105 117,105;118,90 122,90 120,100 118,100" dur="2s" repeatCount="indefinite"/>
    </polygon>
    <polygon points="198,92 202,92 201,98 199,98">
      <animate attributeName="points" values="198,92 202,92 201,98 199,98;198,92 202,92 203,104 197,104;198,92 202,92 201,98 199,98" dur="1.5s" repeatCount="indefinite"/>
    </polygon>
    <polygon points="278,89 282,89 281,96 279,96">
      <animate attributeName="points" values="278,89 282,89 281,96 279,96;278,89 282,89 283,103 277,103;278,89 282,89 281,96 279,96" dur="1.8s" repeatCount="indefinite"/>
    </polygon>
  </g>
  
  <!-- Speaker cone vibrations -->
  <circle cx="40" cy="130" r="15" fill="none" stroke="#ff00ff" stroke-width="1" opacity="0.5">
    <animate attributeName="r" values="15;18;15" dur="0.1s" repeatCount="indefinite"/>
  </circle>
  <circle cx="360" cy="130" r="15" fill="none" stroke="#00ffff" stroke-width="1" opacity="0.5">
    <animate attributeName="r" values="15;18;15" dur="0.1s" repeatCount="indefinite"/>
  </circle>
  
  <!-- N64 fog/distance effect -->
  <rect x="0" y="0" width="400" height="30" fill="url(#fogGradient)" opacity="0.3"/>
  <defs>
    <linearGradient id="fogGradient" x1="0%" y1="0%" x2="0%" y2="100%">
      <stop offset="0%" style="stop-color:#000000;stop-opacity:1"/>
      <stop offset="100%" style="stop-color:#000000;stop-opacity:0"/>
    </linearGradient>
  </defs>
  
  <!-- N64-style vertex color bands -->
  <polygon points="10,60 25,55 30,65 15,70" fill="#ff00ff" opacity="0.2"/>
  <polygon points="370,60 385,55 390,65 375,70" fill="#00ffff" opacity="0.2"/>
  <polygon points="150,25 165,20 170,30 155,35" fill="#ffff00" opacity="0.2"/>
  <polygon points="230,25 245,20 250,30 235,35" fill="#ff0080" opacity="0.2"/>
  
  <!-- Low-poly sparkle effects -->
  <g transform="translate(100, 30)">
    <polygon points="0,-4 2,0 0,4 -2,0" fill="#ffffff" opacity="0.7">
      <animate attributeName="opacity" values="0.7;0.3;0.7" dur="1.5s" repeatCount="indefinite"/>
    </polygon>
  </g>
  <g transform="translate(300, 45)">
    <polygon points="0,-3 3,0 0,3 -3,0" fill="#00ffff" opacity="0.6">
      <animate attributeName="opacity" values="0.6;0.2;0.6" dur="2s" repeatCount="indefinite"/>
    </polygon>
  </g>
  <g transform="translate(180, 110)">
    <polygon points="0,-5 4,0 0,5 -4,0" fill="#ff00ff" opacity="0.8">
      <animate attributeName="opacity" values="0.8;0.3;0.8" dur="1.2s" repeatCount="indefinite"/>
    </polygon>
  </g>
  
  <!-- Acid house smiley gone doom with N64 polygons -->
  <g transform="translate(200, 20)">
    <polygon points="-15,0 -13,-8 -8,-13 0,-15 8,-13 13,-8 15,0 13,8 8,13 0,15 -8,13 -13,8" 
             fill="none" stroke="url(#liquidMetal)" stroke-width="2"/>
    <!-- Evil polygon eyes -->
    <polygon points="-7,-5 -5,-3 -3,-5" fill="url(#liquidMetal)"/>
    <polygon points="3,-5 5,-3 7,-5" fill="url(#liquidMetal)"/>
    <!-- Doom grin as polygons -->
    <polygon points="-8,5 -4,7 0,8 4,7 8,5 6,8 0,10 -6,8" fill="none" stroke="url(#liquidMetal)" stroke-width="2"/>
  </g>
  
  <!-- Rave glow sticks morphed into doom horns with N64 geometry -->
  <g transform="translate(50, 40)">
    <polygon points="0,0 -2,-5 -10,-20 -12,-22 -8,-23 -5,-22 -3,-20 3,-5" fill="#ff00ff" opacity="0.8">
      <animateTransform attributeName="transform" type="rotate" values="0;-10;0" dur="1s" repeatCount="indefinite"/>
    </polygon>
  </g>
  <g transform="translate(350, 40)">
    <polygon points="0,0 2,-5 10,-20 12,-22 8,-23 5,-22 3,-20 -3,-5" fill="#00ffff" opacity="0.8">
      <animateTransform attributeName="transform" type="rotate" values="0;10;0" dur="1s" repeatCount="indefinite"/>
    </polygon>
  </g>
</svg>