<?xml version="1.0" standalone="no"?>
<!DOCTYPE svg PUBLIC "-//W3C//DTD SVG 20010904//EN"
 "http://www.w3.org/TR/2001/REC-SVG-20010904/DTD/svg10.dtd">
<svg version="1.0" xmlns="http://www.w3.org/2000/svg"
 width="2476.000000pt" height="1386.000000pt" viewBox="0 0 2476.000000 1386.000000"
 preserveAspectRatio="xMidYMid meet">
<metadata>
Created by potrace 1.16, written by Peter Selinger 2001-2019
</metadata>
<g transform="translate(0.000000,1386.000000) scale(0.100000,-0.100000)"
fill="#000000" stroke="none">
<path d="M4050 13716 c0 -3 13 -24 28 -48 27 -43 52 -99 56 -128 3 -19 25 -59
26 -45 0 6 -7 40 -14 76 -19 87 -50 149 -76 149 -11 0 -20 -2 -20 -4z"/>
<path d="M13 12328 c2 -7 10 -13 17 -13 7 0 15 6 18 13 2 7 -5 12 -18 12 -13
0 -20 -5 -17 -12z"/>
<path d="M11250 10509 c-14 -4 -41 -7 -60 -8 -55 -2 -132 -34 -192 -82 -31
-24 -79 -57 -108 -74 -29 -16 -74 -49 -99 -71 -25 -23 -59 -48 -76 -57 -52
-26 -96 -81 -100 -122 -5 -48 2 -63 35 -80 19 -10 30 -25 34 -50 7 -34 61 -99
124 -148 21 -16 23 -25 21 -90 -1 -40 2 -124 6 -187 5 -63 8 -128 7 -144 -1
-15 5 -41 13 -57 16 -30 18 -78 16 -424 0 -99 4 -225 10 -280 5 -55 11 -143
13 -195 5 -131 23 -344 46 -540 10 -91 18 -212 17 -270 0 -58 2 -238 6 -401 6
-257 10 -305 27 -358 11 -33 18 -71 16 -83 -7 -30 -20 -224 -19 -268 4 -105
24 -262 41 -310 10 -30 22 -82 25 -115 3 -34 18 -87 32 -118 14 -32 25 -63 25
-69 0 -6 10 -27 22 -47 13 -20 32 -58 43 -86 39 -95 182 -251 300 -328 22 -14
53 -40 69 -56 19 -21 39 -31 58 -31 28 0 121 -41 132 -59 3 -5 22 -12 43 -16
20 -3 52 -17 72 -31 20 -13 46 -24 58 -24 12 0 37 -12 55 -27 44 -38 74 -53
99 -53 12 0 47 -13 78 -28 64 -33 241 -77 351 -88 108 -11 279 -7 296 7 25 21
25 3 0 -62 -61 -160 -77 -210 -96 -301 -10 -54 -26 -110 -34 -126 -8 -15 -19
-59 -25 -97 -6 -39 -16 -90 -22 -115 -6 -25 -15 -81 -20 -125 -4 -44 -12 -109
-17 -145 -6 -36 -15 -105 -21 -154 -6 -49 -15 -107 -20 -130 -9 -39 -17 -155
-26 -349 -2 -48 -9 -122 -14 -165 -6 -42 -13 -146 -16 -230 -2 -84 -7 -157
-10 -162 -10 -16 -13 -118 -5 -161 4 -22 3 -57 -2 -77 -17 -63 -19 -634 -2
-727 7 -44 14 -110 14 -146 l0 -66 -45 -17 c-87 -34 -122 -107 -111 -236 7
-94 58 -204 114 -250 171 -138 267 -200 324 -207 41 -6 139 -52 246 -116 31
-19 73 -38 92 -42 39 -8 161 -64 171 -79 4 -5 23 -6 43 -2 27 5 46 2 74 -13
20 -11 73 -29 117 -40 44 -11 100 -26 125 -34 25 -9 81 -23 125 -31 104 -20
162 -36 202 -52 17 -8 43 -14 58 -14 15 0 81 -28 148 -62 67 -33 138 -62 157
-64 71 -5 167 -31 225 -62 33 -18 70 -32 83 -32 12 0 56 -9 97 -20 90 -24 178
-39 305 -51 52 -5 124 -13 160 -19 36 -5 94 -13 130 -18 36 -4 75 -13 87 -20
12 -7 57 -12 101 -12 60 0 81 -4 85 -14 5 -11 26 -15 90 -15 47 1 94 -4 105
-10 12 -6 41 -11 67 -11 25 0 67 -5 93 -10 159 -35 192 -43 242 -57 30 -8 73
-21 95 -30 53 -20 679 -24 737 -4 29 10 46 10 80 0 24 -7 48 -17 55 -22 8 -5
26 -4 48 3 36 12 137 15 260 7 116 -7 466 24 550 48 33 10 92 20 131 24 53 4
80 13 110 33 51 35 107 49 189 47 38 -1 71 3 78 10 6 6 23 11 37 11 14 0 34 6
45 13 32 21 87 35 132 36 23 0 54 6 70 14 40 21 124 37 246 46 84 7 110 13
127 29 15 14 40 21 89 24 38 3 78 12 93 22 14 9 46 18 71 20 31 2 56 11 77 30
25 21 42 26 83 26 28 0 83 11 126 26 41 14 104 28 139 30 36 2 80 13 102 24
22 11 54 20 73 20 18 0 61 11 95 25 34 14 75 25 91 25 17 0 54 9 83 21 32 13
82 22 128 24 41 2 116 9 165 16 50 7 115 13 145 13 36 1 66 8 84 19 20 14 38
17 62 13 31 -6 164 23 206 45 10 5 30 9 46 9 15 0 53 9 85 20 31 11 78 20 103
20 32 0 61 8 90 25 24 14 85 34 136 45 140 30 167 37 181 48 7 6 34 10 62 10
40 0 54 5 70 24 13 16 57 36 120 57 55 19 112 42 126 52 35 25 98 40 194 48
54 4 89 12 105 24 14 10 40 29 59 43 19 13 46 27 60 31 46 11 225 102 271 138
25 19 63 44 85 56 22 12 54 35 71 51 18 17 51 34 75 39 24 6 51 16 59 24 8 7
40 23 70 35 30 12 76 35 103 51 26 16 50 29 52 29 3 0 22 10 43 23 40 25 226
87 262 87 12 0 33 9 46 19 18 14 41 20 78 20 31 0 75 8 102 19 27 11 83 23
125 25 54 4 93 13 131 31 30 14 59 26 63 26 5 0 43 17 84 39 42 21 93 41 113
45 26 5 47 19 70 45 18 21 44 44 58 51 14 6 39 26 55 42 17 16 60 51 96 78 52
38 70 59 88 99 20 48 21 56 10 143 -11 80 -16 96 -40 118 -62 57 -158 120
-183 120 -6 0 -28 8 -48 19 -21 10 -73 24 -116 31 -44 6 -85 16 -92 20 -7 4
-14 29 -16 54 -1 26 -12 73 -23 106 -13 38 -21 85 -21 129 0 39 -7 100 -16
138 -9 37 -20 102 -24 143 -5 41 -15 107 -24 145 -8 39 -12 80 -10 91 3 12 -4
68 -16 125 -13 57 -24 118 -25 134 -2 17 -11 55 -19 85 -10 34 -14 71 -10 96
3 24 -1 68 -10 105 -18 76 -21 100 -41 288 -8 78 -18 147 -21 153 -3 5 -10 37
-15 71 -5 34 -13 82 -18 107 -6 25 -10 79 -11 120 0 54 -6 88 -21 120 -12 26
-23 74 -26 114 -2 38 -11 82 -19 98 -8 16 -15 54 -15 85 -1 32 -5 69 -11 83
-5 14 -11 45 -14 69 -2 25 -11 52 -19 61 -8 9 -20 42 -26 74 -5 31 -17 75 -25
98 -8 22 -14 54 -14 70 0 16 -5 39 -11 50 -7 12 -12 38 -14 57 -1 20 -14 61
-28 92 -15 31 -31 76 -36 100 -5 24 -23 82 -41 129 -18 47 -42 113 -55 146
-12 34 -30 72 -39 85 -9 13 -16 32 -16 42 0 11 -9 36 -19 56 -11 20 -31 75
-46 122 -14 48 -34 94 -44 103 -10 9 -21 33 -24 52 -3 19 -20 51 -36 70 -17
19 -31 41 -31 50 0 47 -202 394 -242 415 -10 5 -18 15 -18 22 0 12 -53 100
-132 216 -24 36 -69 91 -100 123 -32 32 -62 68 -69 79 -23 43 -77 108 -135
160 -32 29 -66 64 -75 78 -9 14 -28 36 -43 48 -14 13 -26 29 -26 37 0 16 -79
91 -106 100 -10 3 -37 26 -59 51 -37 42 -121 127 -213 215 -20 19 -44 46 -52
58 -8 12 -32 28 -53 34 -22 7 -46 22 -54 35 -9 13 -41 40 -72 60 -31 20 -68
48 -82 62 -39 38 -78 70 -134 109 -27 20 -55 40 -60 46 -22 23 -94 76 -105 76
-22 0 -117 54 -165 95 -54 45 -125 88 -165 100 -14 4 -60 27 -103 52 -42 24
-92 46 -110 50 -35 7 -69 25 -105 57 -44 39 -187 116 -215 116 -8 0 -31 11
-51 25 -21 15 -51 25 -71 25 -19 0 -36 4 -39 9 -3 4 -19 11 -36 14 -16 4 -81
31 -144 62 -67 32 -128 55 -147 55 -18 0 -40 6 -48 14 -9 7 -70 30 -136 51
-66 21 -141 49 -167 61 -26 13 -62 24 -80 24 -18 0 -55 12 -83 25 -27 14 -60
25 -72 25 -12 0 -24 4 -27 8 -2 4 -39 6 -81 5 -44 -2 -84 1 -97 8 -12 7 -36
12 -53 11 -16 0 -40 6 -53 14 -13 8 -46 16 -75 16 -29 1 -78 12 -111 26 -45
18 -69 22 -95 17 -56 -11 -153 -8 -186 6 -16 7 -41 14 -55 15 -86 9 -131 18
-136 25 -8 14 -48 11 -81 -6 -27 -14 -49 -13 -224 6 -152 16 -202 18 -232 9
-20 -6 -42 -8 -47 -5 -5 3 -26 -2 -47 -10 -21 -9 -60 -18 -88 -20 -102 -6
-245 -34 -269 -51 -12 -8 -44 -14 -76 -14 -30 0 -68 -7 -84 -15 -15 -8 -42
-15 -60 -15 -17 0 -41 -6 -53 -13 -12 -6 -46 -27 -77 -45 -52 -31 -219 -92
-252 -92 -8 0 -49 -20 -92 -45 -42 -25 -84 -45 -92 -45 -9 0 -32 -12 -51 -26
-19 -14 -56 -37 -84 -51 -27 -14 -52 -29 -55 -33 -6 -9 -57 -39 -164 -95 -38
-21 -81 -45 -95 -55 -14 -9 -59 -39 -99 -65 -69 -47 -71 -49 -57 -69 30 -41
58 -112 63 -158 3 -28 10 -49 19 -52 19 -8 57 19 71 48 5 12 30 32 54 43 23
12 68 39 98 62 30 22 62 41 70 41 9 0 34 18 55 40 21 22 44 40 50 40 6 0 45
17 87 39 43 21 92 41 109 45 17 3 49 22 70 41 22 20 50 35 64 35 13 0 47 14
75 30 28 17 58 30 66 30 8 0 37 11 64 25 27 14 59 25 70 25 28 0 150 39 175
56 11 8 28 14 39 14 10 0 33 9 51 20 34 21 103 37 192 44 28 3 61 9 72 15 11
6 53 11 93 11 40 0 88 4 105 9 38 11 150 13 318 6 66 -2 154 -5 195 -5 41 -1
93 -6 115 -12 22 -6 63 -10 92 -9 32 1 64 -4 84 -15 25 -12 46 -15 91 -10 41
5 81 2 131 -9 209 -48 245 -57 280 -71 20 -8 71 -14 111 -14 43 0 89 -6 109
-15 20 -8 48 -15 62 -15 14 0 42 -9 62 -20 21 -11 46 -20 56 -20 10 0 27 -4
37 -10 10 -5 48 -14 85 -19 37 -6 74 -16 84 -24 41 -36 137 -77 181 -77 33 0
57 -8 89 -30 24 -17 50 -30 58 -30 8 0 35 -11 61 -25 26 -14 59 -25 74 -25 14
0 59 -17 100 -38 40 -21 89 -45 108 -52 19 -8 69 -37 110 -65 42 -28 98 -57
125 -64 54 -13 150 -58 230 -106 27 -17 66 -37 85 -45 19 -8 43 -24 52 -35 9
-12 61 -48 115 -80 145 -86 263 -169 263 -185 0 -18 46 -58 85 -74 22 -9 58
-34 80 -55 22 -21 48 -43 59 -48 25 -14 87 -67 154 -134 32 -31 65 -61 75 -66
25 -13 286 -271 325 -322 19 -24 50 -60 70 -81 21 -21 69 -77 107 -124 39 -48
85 -98 103 -112 17 -14 39 -39 48 -57 10 -18 33 -51 53 -73 20 -23 43 -54 51
-70 8 -16 29 -51 47 -78 18 -26 33 -52 33 -57 0 -4 20 -33 45 -64 25 -31 51
-68 58 -83 6 -15 33 -62 59 -104 41 -68 88 -165 131 -269 8 -20 31 -57 51 -83
20 -26 36 -53 36 -60 0 -7 13 -44 28 -82 16 -38 32 -87 36 -109 4 -22 17 -56
28 -75 19 -33 36 -82 59 -172 5 -20 17 -51 28 -70 11 -18 23 -51 27 -73 11
-65 85 -318 102 -350 9 -16 19 -52 23 -80 4 -27 19 -99 34 -160 14 -60 35
-163 45 -227 10 -65 29 -153 41 -195 12 -43 25 -107 29 -143 4 -36 14 -101 23
-145 17 -82 33 -216 46 -385 4 -52 13 -106 20 -118 7 -13 14 -69 16 -123 2
-55 10 -128 18 -162 26 -102 47 -239 46 -293 -1 -29 4 -61 10 -72 6 -11 11
-42 11 -67 0 -26 13 -99 30 -163 16 -64 34 -169 40 -232 6 -63 15 -151 20
-195 6 -44 8 -85 6 -91 -3 -7 -20 -15 -38 -19 -18 -4 -44 -13 -58 -20 -83 -43
-179 -85 -194 -85 -10 0 -50 -16 -90 -35 -40 -19 -81 -35 -90 -35 -22 0 -69
-24 -85 -44 -8 -9 -28 -16 -46 -16 -21 0 -52 -14 -91 -40 -33 -22 -64 -40 -70
-40 -6 0 -30 -14 -54 -31 -38 -28 -137 -69 -237 -100 -18 -5 -38 -18 -46 -29
-22 -32 -313 -155 -341 -144 -19 7 -50 -10 -107 -58 -36 -30 -59 -41 -105 -48
-32 -6 -62 -10 -65 -10 -3 0 -23 -11 -44 -25 -20 -14 -56 -33 -79 -41 -22 -8
-70 -26 -106 -39 -36 -13 -82 -32 -104 -44 -21 -11 -59 -23 -85 -26 -104 -13
-122 -17 -134 -28 -64 -60 -218 -127 -289 -127 -19 0 -46 -8 -59 -18 -28 -22
-113 -52 -145 -52 -13 0 -45 -9 -72 -19 -26 -11 -65 -22 -85 -25 -21 -3 -54
-17 -75 -30 -20 -14 -59 -30 -87 -37 -27 -6 -67 -18 -88 -25 -20 -8 -51 -14
-67 -14 -16 0 -47 -6 -67 -14 -21 -8 -54 -17 -73 -20 -19 -4 -50 -17 -70 -30
-19 -12 -53 -27 -75 -33 -22 -6 -66 -21 -97 -32 -32 -12 -77 -21 -102 -21 -28
0 -69 -11 -113 -31 -83 -38 -184 -61 -234 -53 -26 4 -44 1 -60 -10 -13 -9 -38
-16 -56 -16 -34 0 -160 -39 -228 -70 -51 -23 -125 -36 -125 -21 0 17 -37 13
-82 -9 -23 -11 -57 -20 -75 -20 -19 0 -46 -6 -61 -14 -15 -7 -67 -16 -117 -20
-105 -8 -172 -21 -235 -46 -55 -23 -138 -32 -161 -17 -12 8 -31 6 -73 -7 -38
-12 -69 -16 -96 -11 -22 4 -62 2 -88 -4 -69 -15 -218 -34 -287 -37 -33 -1
-152 -7 -265 -12 -127 -6 -218 -6 -239 0 -18 5 -70 7 -115 3 -137 -11 -425 -8
-441 5 -10 9 -31 9 -77 2 -42 -7 -82 -7 -118 0 -35 6 -74 6 -114 -1 -69 -12
-218 -1 -254 18 -20 10 -157 19 -423 25 -42 1 -83 7 -90 13 -13 10 -59 15
-131 14 -134 -2 -171 0 -189 10 -12 6 -59 11 -104 10 -51 -1 -98 5 -125 14
-32 11 -65 14 -124 10 -76 -6 -172 4 -244 26 -43 14 -86 20 -147 24 -27 1 -52
3 -55 5 -3 1 -20 1 -38 0 -17 -1 -47 3 -65 9 -17 5 -54 12 -82 15 -87 10 -178
25 -250 42 -38 9 -88 18 -110 20 -22 1 -40 3 -40 4 0 0 -40 3 -90 5 -64 4
-104 12 -140 29 -30 14 -63 21 -81 19 -17 -2 -45 4 -69 17 -22 11 -64 24 -95
30 -30 5 -80 14 -110 20 -30 6 -73 14 -95 17 -22 3 -44 9 -50 13 -14 12 -120
37 -185 45 -54 6 -206 58 -225 76 -5 5 -18 9 -30 9 -11 0 -57 22 -100 49 -44
26 -104 54 -134 61 -35 8 -67 24 -91 46 -21 19 -41 34 -45 34 -4 0 -25 18 -46
40 -22 22 -48 40 -58 40 -10 0 -22 8 -26 17 -19 44 -31 242 -37 608 -1 17 2
91 6 165 4 74 7 163 6 197 -1 34 4 72 11 85 9 15 12 56 10 119 -1 53 3 125 9
160 7 35 12 104 12 153 -1 49 3 112 9 140 12 65 30 237 35 341 6 129 11 177
22 220 7 22 12 60 12 84 0 67 20 211 35 251 16 44 32 119 41 190 3 30 11 64
17 75 6 11 23 67 38 125 48 184 51 194 75 248 13 29 24 59 24 68 0 8 14 48 32
88 l31 73 104 17 c57 9 122 24 144 31 23 8 59 15 80 15 39 0 123 38 143 65 12
16 161 95 180 95 17 0 76 57 76 73 0 7 13 23 29 35 16 11 37 42 47 67 20 53
12 78 -38 115 -26 19 -38 21 -84 15 -37 -4 -63 -14 -81 -31 -14 -13 -42 -28
-62 -34 -20 -5 -47 -23 -61 -40 -14 -17 -38 -33 -53 -36 -16 -2 -39 -12 -52
-20 -14 -9 -53 -17 -99 -19 -53 -2 -97 -12 -154 -33 -139 -54 -376 -86 -580
-79 l-144 5 34 -20 c18 -12 62 -25 98 -29 36 -5 83 -12 105 -17 l40 -8 -47
-12 c-68 -17 -119 -15 -153 8 -34 23 -67 25 -130 9 -45 -11 -42 -12 -215 65
-8 4 -26 13 -40 21 -14 8 -36 15 -49 15 -14 0 -37 15 -57 37 -27 29 -44 38
-82 44 l-47 6 40 1 c22 1 71 -9 109 -23 91 -32 72 -16 -24 21 -138 53 -305
177 -465 346 -102 107 -144 169 -197 290 -47 110 -126 380 -138 474 -9 73 -13
335 -6 414 11 124 6 464 -8 575 -8 66 -17 145 -21 175 -4 30 -13 82 -20 115
-9 36 -17 148 -20 280 -3 121 -8 262 -10 312 -3 51 -7 166 -10 255 -9 263 -14
337 -25 359 -7 13 -9 52 -5 107 4 48 6 101 5 117 0 17 4 53 10 80 32 148 40
199 51 294 l13 103 44 -5 c38 -4 57 2 135 41 51 25 97 52 102 59 6 7 28 20 50
29 22 9 55 29 73 45 18 16 40 29 50 29 16 0 17 -17 14 -202 -2 -112 2 -270 9
-353 6 -82 13 -244 14 -360 1 -115 8 -248 15 -295 8 -47 14 -139 15 -205 2
-113 8 -173 35 -370 6 -44 13 -152 15 -240 3 -129 9 -179 30 -259 14 -54 25
-110 25 -125 0 -26 22 -66 47 -86 7 -5 20 -30 28 -55 9 -25 27 -62 40 -82 13
-20 34 -66 45 -102 12 -36 26 -68 31 -72 5 -3 18 -22 28 -43 11 -21 49 -72 85
-115 36 -42 71 -87 77 -99 22 -44 163 -167 203 -178 22 -6 55 -23 75 -39 20
-16 50 -32 66 -36 39 -9 105 -42 105 -53 0 -4 35 -25 78 -45 42 -21 98 -49
124 -63 80 -41 172 -63 273 -65 71 -2 248 26 300 47 33 13 96 33 140 44 162
42 380 119 405 144 61 58 90 96 109 139 11 25 26 50 33 55 8 4 24 25 37 45 12
21 42 54 66 74 25 20 47 45 51 56 6 20 48 80 89 126 11 12 34 39 50 58 17 20
53 59 81 88 28 28 59 65 67 82 l16 32 -79 4 c-73 3 -81 5 -113 36 l-33 32 -95
-116 c-93 -115 -136 -168 -187 -233 -15 -19 -43 -53 -63 -75 -95 -107 -210
-253 -215 -272 -5 -19 -9 -20 -44 -11 -34 10 -45 8 -87 -15 -26 -14 -59 -29
-73 -33 -14 -4 -36 -15 -50 -25 -19 -12 -49 -17 -122 -18 -53 0 -106 -6 -117
-12 -44 -23 -140 -29 -232 -13 -63 10 -290 128 -386 200 -32 24 -65 43 -74 43
-32 0 -104 39 -145 78 -22 21 -45 41 -50 43 -6 2 -24 22 -40 45 -16 22 -46 55
-67 73 -20 18 -37 39 -37 46 0 14 -102 215 -130 255 -9 14 -25 50 -35 80 -10
30 -26 67 -36 82 -11 14 -19 42 -19 61 0 20 -5 48 -11 64 -6 15 -15 73 -19
128 -5 55 -14 153 -19 219 -6 65 -15 144 -20 175 -6 31 -12 142 -16 246 -3
105 -8 208 -12 230 -3 22 -7 60 -9 85 -1 25 -6 83 -11 130 -6 51 -6 99 0 120
5 19 6 64 3 100 -4 36 -9 109 -11 163 -3 55 -8 103 -11 108 -6 10 -6 147 -1
444 3 173 -3 235 -23 235 -3 0 -6 31 -6 69 1 84 -4 91 -122 160 -48 27 -105
68 -127 90 -21 23 -48 41 -60 41 -11 0 -38 9 -61 19 -30 14 -63 18 -135 18
-52 -1 -105 -4 -119 -8z m129 -229 c50 1 155 -37 181 -65 18 -19 20 -25 8 -25
-8 0 -38 -18 -65 -39 -27 -22 -69 -48 -94 -57 -24 -10 -51 -26 -59 -36 -19
-22 -140 -68 -180 -68 -17 0 -39 5 -49 12 -14 9 -23 8 -42 -5 -43 -31 -86 -16
-178 63 -30 26 -19 41 59 76 32 14 70 38 83 54 13 15 46 37 73 49 27 12 60 28
74 35 15 8 50 12 90 9 36 -2 80 -3 99 -3z m-29 -4337 c0 -22 -8 -14 -19 20
-10 29 -9 30 4 13 8 -11 15 -26 15 -33z m63 -114 c5 -17 3 -18 -9 -8 -9 7 -22
26 -31 43 l-16 31 26 -23 c14 -13 27 -33 30 -43z m13014 -3370 c35 -17 63 -37
63 -45 0 -7 -17 -22 -37 -33 -21 -11 -61 -46 -90 -79 -53 -61 -157 -122 -208
-122 -13 0 -36 -11 -52 -24 -35 -30 -163 -76 -199 -72 -14 2 -44 -3 -66 -11
-31 -11 -43 -11 -54 -2 -11 9 -21 9 -40 0 -14 -6 -36 -11 -50 -11 -14 0 -37
-6 -52 -14 -15 -7 -62 -21 -104 -30 -43 -10 -80 -22 -84 -27 -9 -16 -116 -66
-180 -84 -32 -10 -71 -28 -86 -40 -14 -12 -45 -25 -69 -29 -24 -4 -68 -20 -98
-36 -31 -16 -80 -38 -110 -50 -61 -24 -127 -66 -188 -122 -25 -22 -53 -38 -67
-38 -23 0 -32 -7 -88 -71 -21 -24 -166 -89 -199 -89 -8 0 -36 -12 -63 -26 -27
-14 -91 -36 -143 -49 -53 -13 -122 -38 -155 -54 -33 -17 -69 -31 -79 -31 -11
0 -37 -9 -59 -20 -22 -11 -52 -20 -67 -20 -15 0 -61 -16 -102 -36 -41 -20 -95
-40 -120 -44 -59 -11 -131 -32 -206 -60 -33 -13 -89 -24 -123 -26 -35 -2 -69
-7 -76 -13 -6 -5 -31 -12 -56 -15 -93 -11 -212 -38 -258 -57 -35 -16 -59 -19
-95 -15 -28 3 -67 -1 -95 -9 -88 -25 -160 -38 -188 -32 -16 3 -69 -4 -119 -15
-49 -10 -121 -23 -160 -27 -38 -5 -81 -13 -95 -18 -14 -6 -47 -14 -75 -18 -27
-4 -59 -12 -69 -17 -11 -6 -39 -12 -62 -13 -25 -2 -81 -21 -129 -44 -63 -30
-99 -41 -133 -40 -70 0 -132 -8 -146 -20 -11 -10 -84 -29 -306 -81 -52 -12
-109 -31 -126 -41 -18 -11 -38 -17 -46 -14 -8 3 -35 -1 -59 -9 -24 -9 -55 -16
-69 -16 -13 0 -42 -6 -65 -14 -55 -19 -136 -36 -220 -46 -69 -8 -153 -29 -355
-89 -58 -17 -130 -34 -160 -38 -30 -3 -71 -14 -90 -25 -19 -10 -53 -18 -75
-18 -22 0 -58 -5 -80 -11 -22 -6 -51 -11 -65 -11 -14 1 -40 -4 -58 -9 -25 -8
-44 -7 -83 6 -34 12 -63 15 -92 10 -23 -4 -69 -6 -102 -4 -71 3 -100 2 -305
-5 -199 -8 -296 -6 -475 7 -45 4 -78 1 -95 -7 -14 -7 -68 -13 -120 -14 -74 -1
-103 2 -135 17 -57 27 -80 33 -144 36 -31 2 -83 12 -116 24 -37 13 -84 21
-125 21 -46 0 -85 7 -126 24 -38 14 -72 21 -93 18 -18 -2 -42 0 -54 6 -12 6
-58 13 -102 15 -93 5 -196 20 -315 47 -129 30 -220 42 -261 35 -24 -4 -49 -1
-75 11 -22 9 -68 18 -104 19 -64 3 -158 38 -175 66 -5 7 -23 9 -51 4 -37 -5
-53 -1 -101 24 -32 16 -80 32 -107 36 -27 4 -61 16 -76 27 -15 10 -44 23 -66
28 -22 5 -62 19 -89 31 -28 13 -60 22 -71 20 -12 -1 -28 5 -37 13 -17 18 -138
46 -196 46 -20 0 -41 4 -47 9 -14 14 -82 33 -149 41 -111 14 -258 66 -278 97
-5 8 -29 13 -58 13 -46 0 -70 8 -176 64 -18 9 -41 19 -53 21 -45 9 -274 122
-297 147 -9 10 -30 18 -48 18 -57 0 -205 158 -205 220 0 21 18 9 30 -21 28
-68 91 -98 136 -64 26 20 47 19 91 -5 21 -11 44 -20 52 -20 7 0 33 -18 57 -40
24 -22 53 -40 66 -40 23 0 70 -19 173 -71 33 -16 66 -29 73 -29 7 0 41 -12 75
-26 34 -15 99 -32 144 -40 45 -7 100 -22 123 -34 23 -12 65 -24 93 -27 29 -3
84 -16 124 -29 39 -13 86 -24 105 -24 18 -1 44 -7 58 -15 14 -8 41 -14 60 -15
19 0 60 -10 90 -22 34 -13 92 -24 150 -28 52 -4 129 -15 170 -25 41 -9 112
-20 156 -25 45 -4 87 -11 94 -15 7 -4 42 -11 79 -16 36 -4 95 -16 131 -25 36
-9 130 -20 210 -23 107 -5 156 -12 188 -26 37 -16 47 -17 83 -5 36 12 44 12
74 -4 33 -18 114 -24 136 -10 5 3 25 -2 44 -11 26 -12 40 -13 54 -5 26 13 74
13 88 -1 6 -6 28 -12 49 -14 22 -1 60 -6 85 -10 31 -5 49 -4 53 4 10 16 56 14
107 -4 28 -10 58 -14 82 -10 24 5 43 2 53 -6 17 -14 86 -16 161 -4 41 6 63 4
98 -9 29 -12 70 -17 117 -16 96 1 261 -7 318 -16 25 -4 65 -6 90 -5 156 6 665
-5 681 -14 5 -4 22 -2 37 3 48 19 228 24 275 8 44 -14 88 -11 197 14 30 8 120
14 200 15 93 1 156 6 175 14 19 8 87 14 190 15 88 2 169 8 180 13 11 6 54 16
95 23 41 7 81 17 89 23 7 7 55 12 105 13 50 1 105 7 121 13 17 5 57 20 90 32
43 16 78 22 127 20 38 -1 69 2 73 8 3 6 15 11 25 11 10 0 35 10 55 22 26 15
60 23 111 26 41 3 77 9 80 13 3 5 15 9 27 9 12 0 40 7 62 15 22 8 64 14 93 15
32 0 68 8 92 20 22 11 48 20 59 20 11 0 54 14 97 31 90 36 173 59 214 59 16 0
50 13 76 29 25 17 69 37 97 45 83 25 254 66 275 66 11 0 49 13 85 30 37 17 74
30 83 30 9 0 31 9 48 19 17 11 60 27 96 36 36 8 74 20 85 25 11 6 48 16 83 24
35 8 69 19 76 25 6 5 30 11 51 13 22 1 51 8 65 15 14 7 34 13 45 13 11 0 53
16 94 35 40 19 77 35 82 35 5 0 33 15 62 34 28 19 69 37 90 40 21 4 52 15 70
26 18 10 64 28 102 41 39 12 87 30 107 40 21 11 47 19 58 19 31 0 141 39 167
60 13 10 46 21 73 25 27 4 54 12 60 19 5 7 54 33 108 56 53 24 105 50 114 58
9 7 36 18 59 23 23 5 53 19 67 29 13 11 32 20 42 20 9 0 25 9 35 20 10 11 52
36 94 56 158 74 201 97 211 109 6 7 26 16 44 19 18 4 51 15 74 26 23 11 45 20
50 20 5 0 15 7 22 14 6 8 35 22 63 32 29 9 57 21 63 26 7 5 35 11 62 15 39 4
61 15 97 44 26 22 55 39 64 39 9 0 46 11 84 24 l67 23 0 -27 c0 -39 19 -91 44
-119 34 -37 64 -44 112 -26 52 20 74 61 74 135 l0 53 47 -7 c26 -3 75 -20 110
-37z"/>
<path d="M12158 5423 c7 -3 16 -2 19 1 4 3 -2 6 -13 5 -11 0 -14 -3 -6 -6z"/>
<path d="M12329 5374 c18 -8 36 -13 39 -10 8 9 0 13 -38 20 l-35 6 34 -16z"/>
</g>
</svg>
