<?xml version="1.0" standalone="no"?>
<!DOCTYPE svg PUBLIC "-//W3C//DTD SVG 20010904//EN"
 "http://www.w3.org/TR/2001/REC-SVG-20010904/DTD/svg10.dtd">
<svg version="1.0" xmlns="http://www.w3.org/2000/svg"
 width="676.000000pt" height="635.000000pt" viewBox="0 0 676.000000 635.000000"
 preserveAspectRatio="xMidYMid meet">
<metadata>
Created by potrace 1.16, written by Peter Selinger 2001-2019
</metadata>
<g transform="translate(0.000000,635.000000) scale(0.100000,-0.100000)"
fill="#000000" stroke="none">
<path d="M4130 6311 c-29 -16 -141 -22 -221 -11 -69 10 -84 9 -104 -4 -14 -9
-40 -16 -59 -16 -19 0 -45 -4 -58 -9 -34 -14 -198 -42 -269 -47 -34 -2 -98
-13 -143 -25 -44 -12 -103 -25 -131 -29 -27 -4 -76 -17 -107 -29 -32 -11 -68
-21 -81 -21 -31 0 -88 -29 -167 -84 -53 -38 -69 -45 -95 -40 -27 5 -37 -1 -78
-40 -34 -34 -55 -46 -77 -46 -44 0 -152 -46 -196 -84 -22 -18 -54 -38 -72 -44
-19 -6 -49 -25 -68 -42 -19 -16 -40 -30 -47 -30 -7 0 -28 -11 -48 -24 -19 -13
-53 -29 -75 -35 -41 -11 -91 -49 -181 -136 -28 -28 -67 -58 -85 -67 -107 -50
-133 -65 -176 -107 -27 -25 -61 -54 -78 -63 -16 -10 -56 -36 -89 -58 -33 -22
-79 -50 -103 -61 -30 -14 -47 -30 -54 -50 -6 -16 -23 -36 -38 -44 -16 -8 -51
-37 -78 -65 -27 -27 -56 -50 -65 -50 -8 0 -26 -13 -40 -30 -29 -33 -143 -122
-188 -146 -37 -18 -138 -118 -172 -167 -13 -19 -46 -54 -73 -77 -27 -22 -74
-64 -105 -93 -79 -72 -136 -115 -189 -142 -48 -24 -151 -129 -177 -180 -9 -16
-30 -48 -48 -70 -79 -98 -97 -187 -49 -244 18 -21 35 -31 54 -31 44 0 59 10
81 52 11 21 40 65 64 98 25 32 45 62 45 68 0 11 89 92 156 142 26 19 57 44 69
55 12 11 47 40 79 65 32 24 65 54 72 65 8 12 44 46 82 75 37 29 84 75 105 102
21 27 56 61 79 76 22 15 61 46 86 69 25 23 58 45 75 49 16 3 54 31 86 63 69
68 169 157 235 208 27 21 65 52 84 70 20 18 45 36 56 39 12 4 35 16 51 29 17
12 62 39 100 59 39 21 75 44 81 52 6 7 29 22 51 32 22 9 66 43 99 75 32 31 77
66 100 77 23 10 45 24 49 30 3 5 17 10 30 10 13 0 36 11 51 25 14 13 36 27 48
31 11 3 41 23 66 44 50 41 105 72 113 64 3 -3 35 13 72 35 37 23 78 41 92 41
14 0 59 20 101 45 41 25 93 50 116 56 22 6 52 19 67 29 14 10 38 22 53 26 15
4 53 22 84 40 31 19 63 34 71 34 9 0 31 9 48 20 18 11 60 24 92 29 33 5 69 15
81 21 12 7 38 8 64 5 33 -5 53 -2 84 14 23 12 70 26 104 32 35 5 86 14 113 18
28 5 75 7 105 4 40 -4 66 0 95 12 29 12 74 18 160 20 66 2 151 9 188 15 57 9
75 8 115 -6 32 -11 87 -17 175 -18 82 -2 132 -7 139 -14 7 -7 41 -12 79 -12
36 0 86 -7 109 -15 24 -8 82 -17 129 -19 72 -3 97 -8 151 -35 41 -19 80 -31
107 -31 32 0 52 -8 90 -36 26 -20 53 -42 58 -48 6 -6 36 -24 68 -40 31 -15 57
-32 57 -37 0 -5 20 -23 43 -41 24 -18 75 -59 113 -91 38 -33 77 -62 86 -66 10
-3 51 -46 92 -94 52 -62 75 -98 79 -124 5 -26 20 -49 54 -82 27 -26 57 -64 67
-85 10 -21 33 -54 51 -75 68 -76 139 -219 175 -350 6 -24 23 -54 36 -68 29
-29 74 -147 84 -224 4 -30 12 -65 19 -77 6 -11 11 -36 11 -54 0 -19 7 -43 15
-55 24 -34 47 -102 56 -163 4 -30 13 -80 18 -110 6 -30 14 -93 17 -140 4 -47
11 -93 15 -102 13 -24 -9 -375 -26 -418 -7 -19 -16 -60 -20 -90 -16 -138 -24
-191 -40 -270 -32 -167 -48 -235 -58 -255 -6 -11 -12 -54 -13 -95 -1 -61 -8
-92 -38 -164 -20 -50 -36 -96 -36 -104 0 -7 -11 -32 -24 -56 -39 -71 -43 -78
-80 -156 -20 -41 -36 -81 -36 -87 0 -7 -12 -25 -26 -40 -15 -15 -33 -43 -41
-61 -8 -19 -32 -51 -54 -71 -21 -21 -39 -45 -39 -53 0 -8 -13 -27 -30 -41 -16
-15 -30 -33 -30 -40 0 -6 -16 -32 -35 -56 -19 -24 -35 -49 -35 -55 0 -7 -20
-31 -44 -55 -25 -24 -47 -54 -50 -67 -4 -13 -25 -36 -49 -51 -68 -42 -184
-141 -219 -185 -78 -100 -206 -202 -302 -242 -78 -33 -134 -66 -190 -112 -10
-9 -32 -21 -48 -26 -16 -6 -46 -25 -65 -43 -21 -19 -51 -35 -72 -39 -20 -3
-66 -26 -101 -51 -36 -24 -70 -45 -77 -45 -7 0 -27 -13 -45 -29 -18 -15 -61
-41 -95 -56 -35 -15 -68 -34 -74 -41 -6 -8 -21 -14 -33 -14 -12 0 -31 -6 -42
-14 -11 -8 -49 -20 -84 -26 -42 -8 -75 -21 -99 -40 -24 -19 -65 -36 -121 -50
-47 -11 -96 -26 -110 -34 -40 -21 -148 -56 -175 -56 -49 0 -96 -30 -195 -121
-110 -102 -119 -122 -80 -186 38 -63 163 -68 216 -9 26 29 95 66 123 66 11 0
32 11 48 24 36 30 67 46 90 46 10 0 31 7 47 15 15 8 37 15 47 15 41 0 135 32
197 66 36 21 80 38 97 40 43 3 226 87 280 129 26 19 51 35 56 35 10 0 83 33
109 50 8 5 31 16 50 25 19 8 42 19 50 24 23 15 82 41 93 41 20 0 127 74 133
92 3 11 21 26 39 34 18 7 46 25 63 39 37 31 135 93 225 141 45 25 78 51 97 78
15 23 46 52 68 65 23 14 46 36 54 49 7 13 24 30 39 38 15 7 42 32 60 55 21 27
52 50 86 65 47 21 56 30 77 76 13 29 34 64 47 79 13 14 42 50 64 80 22 29 51
68 63 84 12 17 39 55 59 85 19 30 62 81 94 112 44 44 60 67 64 95 9 50 104
243 139 282 9 10 21 44 27 77 6 32 21 84 34 114 35 81 62 178 68 240 3 30 11
69 18 85 6 17 11 46 10 65 -1 19 4 51 12 70 8 19 18 68 21 108 4 40 13 87 20
105 7 18 16 58 20 91 4 32 9 63 13 69 3 6 7 31 9 56 1 25 8 69 15 96 7 28 14
93 15 145 1 52 5 124 7 160 3 37 -1 101 -9 147 -8 45 -17 119 -18 166 -4 76
-15 127 -62 267 -9 25 -26 86 -39 135 -13 50 -32 115 -43 145 -11 30 -23 73
-27 95 -4 22 -13 54 -20 70 -7 17 -16 44 -20 60 -4 17 -22 56 -41 87 -20 32
-44 86 -53 120 -17 57 -92 190 -150 265 -60 76 -81 106 -81 113 0 5 -15 27
-34 49 -19 23 -40 58 -47 78 -19 59 -179 246 -261 306 -75 54 -158 133 -158
150 0 4 -7 7 -17 7 -9 0 -31 11 -49 25 -18 14 -37 25 -43 25 -5 0 -31 18 -56
40 -74 64 -138 92 -325 146 -30 9 -71 23 -90 31 -19 8 -89 24 -155 34 -66 11
-159 26 -208 34 -48 8 -91 17 -96 20 -5 3 -32 0 -60 -6 -42 -9 -64 -7 -133 10
-86 21 -269 28 -298 12z"/>
<path d="M3950 5724 c-25 -8 -105 -19 -179 -24 -74 -5 -148 -14 -165 -20 -17
-5 -72 -14 -123 -19 -72 -8 -100 -15 -130 -35 -21 -14 -46 -26 -56 -26 -10 0
-39 -9 -65 -20 -26 -10 -66 -24 -90 -30 -24 -6 -60 -26 -80 -44 -20 -18 -52
-43 -71 -56 -41 -28 -155 -70 -193 -70 -15 0 -43 -14 -68 -35 -23 -19 -47 -35
-53 -35 -7 0 -38 -18 -71 -40 -32 -22 -64 -40 -72 -40 -7 0 -26 -11 -42 -25
-17 -14 -46 -32 -65 -40 -19 -8 -41 -21 -49 -28 -29 -30 -160 -126 -178 -132
-11 -4 -20 -11 -20 -16 0 -19 -77 -93 -126 -121 -29 -16 -73 -47 -97 -69 -25
-22 -60 -46 -79 -53 -18 -8 -56 -38 -84 -68 -29 -29 -82 -80 -119 -113 -38
-32 -81 -77 -97 -100 -16 -22 -48 -49 -71 -60 -23 -11 -55 -39 -72 -62 -16
-24 -58 -61 -93 -83 -35 -22 -69 -45 -75 -50 -64 -51 -94 -82 -127 -130 -22
-32 -54 -66 -72 -77 -18 -11 -61 -45 -95 -76 -35 -31 -73 -62 -85 -68 -13 -7
-48 -32 -79 -56 -30 -23 -59 -43 -65 -43 -12 0 -77 -104 -97 -156 -22 -56 -11
-94 34 -117 20 -10 44 -15 59 -12 27 7 114 91 124 121 6 17 52 54 145 116 19
13 49 37 66 54 17 18 45 38 61 47 16 8 39 26 51 39 12 12 44 39 71 58 36 24
54 45 63 72 12 38 62 83 154 138 64 38 157 107 197 145 20 19 42 35 47 35 6 0
27 25 47 55 20 30 45 57 55 60 10 4 37 23 58 43 208 193 260 236 314 263 23
12 62 38 87 58 24 20 53 41 64 46 11 6 27 24 36 40 9 17 34 38 56 48 21 11 55
34 74 52 19 19 58 44 85 56 28 12 70 36 95 53 70 48 232 122 284 130 30 5 59
18 79 35 18 16 53 38 80 49 26 11 47 25 47 30 0 17 214 91 350 121 88 20 208
36 248 33 13 -1 50 7 83 18 56 19 78 20 267 16 164 -4 225 -10 292 -26 102
-25 194 -39 275 -40 45 0 70 -7 100 -25 27 -17 55 -25 86 -25 50 0 64 -12 144
-119 30 -40 88 -86 135 -107 39 -17 136 -111 171 -165 18 -27 43 -56 56 -64
13 -9 35 -35 49 -58 15 -23 48 -62 75 -87 52 -49 122 -173 132 -232 3 -20 12
-52 21 -70 8 -18 18 -53 21 -77 4 -24 17 -73 29 -110 30 -84 56 -197 56 -238
0 -17 5 -44 11 -60 12 -31 -1 -152 -26 -253 -8 -30 -17 -85 -20 -122 -4 -37
-11 -70 -16 -73 -5 -4 -9 -22 -9 -42 0 -39 -18 -112 -32 -127 -4 -6 -8 -23 -8
-38 0 -15 -7 -45 -15 -65 -8 -21 -28 -84 -45 -141 -17 -57 -39 -120 -50 -140
-11 -20 -20 -48 -20 -62 0 -14 -9 -45 -20 -69 -11 -24 -20 -48 -20 -55 0 -6
-13 -39 -30 -74 -16 -35 -37 -91 -46 -125 -8 -34 -24 -73 -34 -87 -20 -29
-120 -225 -120 -236 0 -4 -9 -17 -19 -28 -10 -12 -31 -44 -46 -73 -14 -28 -33
-57 -41 -64 -9 -7 -25 -31 -36 -53 -11 -23 -47 -65 -79 -94 -32 -29 -61 -62
-64 -72 -4 -11 -17 -26 -29 -33 -13 -6 -51 -45 -86 -84 -34 -40 -67 -73 -73
-73 -23 -1 -107 -71 -132 -110 -14 -23 -37 -45 -52 -51 -14 -5 -50 -34 -80
-64 -91 -91 -201 -146 -338 -170 -22 -4 -65 -22 -95 -41 -30 -18 -71 -39 -90
-45 -19 -7 -47 -21 -62 -32 -16 -12 -45 -21 -72 -22 -36 -1 -53 -9 -85 -38
-23 -20 -48 -37 -57 -37 -9 0 -28 -9 -43 -19 -14 -11 -50 -27 -79 -36 -44 -15
-57 -15 -82 -5 -17 7 -41 13 -53 13 -43 0 -177 -99 -177 -129 0 -38 24 -114
41 -133 25 -27 78 -28 111 -2 15 12 40 20 64 20 77 -1 160 10 196 25 21 9 50
16 65 16 28 0 86 34 138 81 17 15 73 44 125 64 52 21 104 44 115 50 11 7 43
18 72 25 29 6 57 18 64 26 6 8 19 14 29 14 10 0 23 7 30 14 6 8 36 20 67 26
30 7 63 19 72 28 27 26 50 40 126 76 51 24 94 56 159 120 49 47 93 86 99 86
13 0 123 116 145 152 9 15 19 28 22 28 9 0 110 101 110 109 0 4 20 22 44 41
25 18 50 46 57 62 6 16 27 41 46 55 20 16 47 54 68 97 59 120 120 232 153 277
18 24 32 48 32 55 0 6 7 17 15 24 8 7 20 31 26 54 15 55 49 136 70 164 10 12
20 42 24 65 7 42 44 165 95 312 16 44 38 114 50 155 12 41 30 91 41 111 10 20
19 46 19 57 0 24 26 127 36 143 4 6 10 41 15 78 16 132 29 203 43 229 18 36
28 220 16 302 -24 176 -50 301 -74 359 -14 36 -26 76 -26 90 -1 14 -7 37 -15
51 -8 14 -14 37 -15 52 0 15 -13 55 -29 90 -16 35 -32 73 -35 85 -4 12 -20 38
-36 58 -17 21 -30 44 -30 51 0 7 -34 48 -75 91 -41 42 -75 81 -75 87 0 5 -28
39 -62 75 -35 37 -81 88 -103 114 -22 26 -65 62 -95 79 -64 35 -160 122 -210
190 -27 37 -43 49 -70 54 -19 3 -60 17 -90 31 -158 74 -149 72 -305 83 -82 5
-187 19 -233 30 -75 19 -211 27 -327 19 -16 -1 -46 1 -65 4 -21 4 -53 0 -80
-9z"/>
</g>
</svg>
