<?xml version="1.0" standalone="no"?>
<!DOCTYPE svg PUBLIC "-//W3C//DTD SVG 20010904//EN"
 "http://www.w3.org/TR/2001/REC-SVG-20010904/DTD/svg10.dtd">
<svg version="1.0" xmlns="http://www.w3.org/2000/svg"
 width="370.000000pt" height="643.000000pt" viewBox="0 0 370.000000 643.000000"
 preserveAspectRatio="xMidYMid meet">
<metadata>
Created by potrace 1.16, written by Peter Selinger 2001-2019
</metadata>
<g transform="translate(0.000000,643.000000) scale(0.100000,-0.100000)"
fill="#000000" stroke="none">
<path d="M1275 6395 c-42 -22 -65 -52 -65 -87 0 -36 20 -119 32 -135 6 -8 6
-38 -1 -82 -6 -38 -11 -106 -11 -150 0 -44 -5 -92 -10 -107 -6 -15 -10 -57
-10 -93 1 -36 2 -77 2 -91 0 -14 -2 -92 -5 -175 -4 -82 -6 -195 -6 -250 0 -55
0 -127 -1 -160 0 -36 6 -78 16 -105 10 -25 21 -83 25 -130 14 -176 37 -271 79
-330 11 -15 20 -37 20 -49 0 -11 4 -40 10 -63 5 -24 16 -75 25 -114 8 -40 22
-85 30 -100 8 -16 15 -38 15 -49 0 -11 9 -36 19 -56 11 -19 24 -55 31 -80 26
-97 34 -127 57 -198 27 -81 59 -215 73 -301 5 -30 13 -82 19 -115 5 -33 16
-76 24 -95 8 -19 18 -57 21 -85 4 -27 16 -92 27 -143 11 -51 17 -97 14 -102
-3 -5 1 -28 9 -52 8 -24 22 -86 31 -138 9 -52 21 -110 26 -127 6 -18 8 -37 5
-41 -3 -5 1 -30 9 -57 19 -61 19 -81 3 -68 -7 6 -31 16 -53 23 -22 7 -67 28
-100 45 -81 44 -193 88 -290 114 -65 17 -100 20 -186 17 -70 -2 -114 -9 -130
-18 -13 -9 -46 -21 -74 -28 -27 -7 -59 -19 -70 -27 -11 -7 -27 -13 -37 -13
-31 0 -63 -20 -85 -55 -12 -18 -47 -51 -76 -72 -31 -22 -69 -61 -90 -93 -20
-30 -54 -82 -77 -115 -23 -33 -60 -97 -81 -141 -21 -45 -45 -87 -53 -93 -8 -7
-18 -27 -21 -44 -4 -18 -22 -60 -41 -94 -19 -34 -34 -71 -34 -82 0 -12 -13
-47 -29 -79 -15 -31 -31 -77 -35 -100 -4 -24 -15 -61 -26 -83 -11 -21 -20 -48
-20 -59 0 -12 -5 -31 -12 -43 -6 -12 -15 -38 -19 -57 -4 -19 -12 -48 -17 -65
-67 -195 -76 -233 -84 -365 -5 -74 -10 -245 -11 -380 -1 -234 0 -248 20 -280
11 -19 24 -55 28 -80 10 -58 24 -78 88 -117 97 -61 116 -67 169 -53 26 6 56 9
67 5 11 -3 35 0 53 8 18 9 58 17 88 20 39 4 81 18 141 49 47 24 112 50 145 58
32 7 70 21 84 30 30 21 153 50 208 50 24 0 49 8 65 20 14 11 33 20 42 20 27 0
127 29 158 46 15 9 45 18 65 20 20 2 48 13 62 24 38 30 130 72 175 81 22 4 58
11 80 15 27 4 51 18 72 41 30 32 34 34 80 27 43 -5 53 -3 79 19 42 35 147 69
189 61 29 -5 70 7 85 25 6 7 41 28 80 47 14 7 53 17 88 23 34 5 75 19 90 30
16 11 51 25 78 32 27 6 65 21 84 34 19 12 62 30 95 39 65 19 108 34 230 78 44
15 103 30 132 33 70 6 135 21 213 49 106 38 135 46 161 46 47 1 109 37 124 74
27 63 20 93 -38 170 -59 79 -141 249 -151 312 -3 23 -13 54 -21 70 -8 16 -15
37 -15 47 0 10 -11 39 -24 65 -13 26 -28 63 -34 82 -6 19 -22 67 -37 105 -15
39 -36 95 -47 125 -11 30 -23 60 -28 65 -4 6 -13 35 -20 65 -15 64 -48 160
-97 280 -20 47 -46 119 -58 161 -13 41 -46 120 -74 175 -31 62 -62 142 -81
214 -16 63 -37 140 -46 169 -9 30 -20 78 -24 105 -5 28 -20 85 -33 126 -14 41
-35 109 -46 150 -12 41 -29 100 -38 130 -9 30 -20 80 -24 110 -11 90 -19 130
-44 230 -26 106 -51 256 -65 400 -5 52 -14 122 -20 155 -5 33 -12 82 -14 108
-2 27 -9 54 -15 60 -6 6 -11 26 -11 44 0 18 -4 52 -10 75 -5 24 -14 75 -20
113 -6 39 -20 98 -31 132 -10 34 -19 78 -19 97 0 20 -7 53 -14 73 -15 39 -40
139 -51 204 -3 20 -17 58 -31 85 -24 47 -39 102 -85 314 -23 110 -59 160 -113
160 -59 0 -133 -84 -123 -139 3 -14 12 -64 20 -111 9 -47 25 -114 36 -150 11
-36 21 -75 21 -87 0 -26 51 -186 72 -228 9 -17 18 -55 22 -85 4 -30 16 -83 26
-117 10 -34 22 -101 26 -150 3 -48 14 -113 24 -143 10 -30 28 -109 40 -175 11
-66 26 -138 32 -160 6 -22 13 -78 15 -125 2 -47 10 -102 18 -122 8 -21 17 -78
20 -129 4 -54 14 -111 26 -140 10 -27 19 -62 19 -76 0 -15 11 -69 24 -122 13
-53 32 -139 41 -191 16 -87 42 -181 94 -345 11 -33 27 -89 36 -125 9 -36 22
-87 30 -115 7 -27 19 -75 25 -107 6 -31 27 -94 46 -140 20 -45 40 -98 45 -116
6 -18 24 -55 41 -82 17 -27 34 -70 39 -95 5 -26 17 -58 27 -73 11 -15 25 -52
32 -82 7 -30 18 -66 25 -80 7 -14 15 -41 18 -61 3 -20 21 -69 40 -110 33 -71
82 -200 108 -284 6 -22 20 -56 30 -75 11 -19 19 -41 19 -49 0 -8 14 -52 31
-98 17 -46 31 -94 33 -106 1 -13 13 -45 25 -72 47 -103 71 -164 71 -181 0 -20
-31 -33 -96 -39 -33 -3 -72 -9 -89 -14 -16 -6 -49 -13 -73 -16 -24 -4 -76 -22
-115 -40 -53 -24 -88 -33 -132 -34 -39 -1 -74 -9 -100 -23 -100 -52 -197 -98
-208 -98 -7 0 -30 -11 -52 -25 -26 -16 -55 -24 -84 -25 -29 0 -69 -12 -115
-34 -39 -18 -98 -39 -131 -46 -33 -7 -87 -25 -120 -40 -96 -43 -127 -53 -176
-55 -33 -2 -60 -12 -90 -32 -50 -34 -100 -53 -137 -53 -14 0 -44 -9 -66 -19
-23 -11 -90 -43 -151 -71 -115 -55 -201 -82 -234 -73 -10 3 -30 -2 -42 -10
-13 -8 -53 -20 -88 -26 -35 -6 -73 -17 -85 -24 -15 -10 -26 -11 -37 -4 -17 11
-86 -16 -141 -54 -14 -11 -34 -19 -44 -19 -34 0 -149 -44 -162 -62 -20 -28
-48 -39 -107 -43 -30 -2 -63 -9 -74 -14 -27 -15 -84 -14 -99 1 -7 7 -12 20
-12 30 0 11 -8 33 -17 51 -21 41 -27 295 -11 472 6 66 10 140 9 165 0 26 8 69
20 100 11 30 25 75 30 100 5 25 15 61 23 80 8 19 22 62 31 95 15 57 45 141 86
249 11 27 19 57 19 67 0 10 5 21 10 24 6 3 10 17 10 30 0 14 19 55 43 92 23
37 51 92 61 122 10 30 26 66 36 80 32 46 114 173 133 205 22 38 59 71 112 98
22 11 44 27 48 34 4 8 17 14 28 14 11 0 44 11 73 25 28 13 86 30 128 36 69 10
82 9 137 -10 34 -12 72 -21 86 -21 35 0 140 -44 181 -75 19 -15 56 -33 84 -41
48 -14 147 -89 271 -206 25 -24 65 -56 88 -73 60 -42 210 -208 251 -278 90
-152 219 -95 181 80 -7 29 -19 59 -27 66 -8 7 -39 45 -69 85 -31 39 -60 72
-65 72 -10 0 -49 39 -146 143 -29 31 -65 62 -82 71 -28 15 -30 18 -42 128 -7
62 -14 133 -16 158 -1 25 -12 74 -23 110 -12 36 -21 79 -21 96 0 17 -7 52 -16
78 -9 27 -14 62 -11 81 3 20 -1 44 -10 61 -16 31 -47 210 -38 224 3 5 -1 26
-10 47 -8 21 -16 58 -18 83 -2 25 -9 55 -15 67 -7 12 -12 39 -12 60 -1 21 -7
49 -15 63 -8 14 -14 41 -15 61 0 19 -6 58 -14 85 -8 27 -17 71 -21 97 -3 26
-13 63 -21 82 -8 19 -19 58 -25 87 -6 29 -20 68 -31 86 -19 31 -26 61 -27 123
-1 14 -11 41 -24 60 -34 50 -57 121 -74 229 -8 52 -21 109 -30 125 -30 59 -53
141 -53 189 0 27 -4 65 -9 85 -39 152 -52 342 -38 541 3 41 8 202 11 357 5
189 11 299 21 335 11 42 11 71 3 138 -13 113 -46 186 -93 206 -43 18 -53 18
-90 -1z"/>
</g>
</svg>
