<?xml version="1.0" standalone="no"?>
<!DOCTYPE svg PUBLIC "-//W3C//DTD SVG 20010904//EN"
 "http://www.w3.org/TR/2001/REC-SVG-20010904/DTD/svg10.dtd">
<svg version="1.0" xmlns="http://www.w3.org/2000/svg"
 width="2000.000000pt" height="2000.000000pt" viewBox="0 0 2000.000000 2000.000000"
 preserveAspectRatio="xMidYMid meet">
<metadata>
Created by potrace 1.16, written by Peter Selinger 2001-2019
</metadata>
<g transform="translate(0.000000,2000.000000) scale(0.100000,-0.100000)"
fill="#000000" stroke="none">
<path d="M9533 5921 c-28 -18 -179 -224 -216 -296 -25 -51 -237 -707 -302
-940 -63 -223 -124 -504 -141 -647 -12 -110 -15 -219 -12 -540 l4 -403 46
-150 c25 -82 69 -213 97 -290 29 -77 71 -192 93 -255 46 -130 140 -355 187
-448 l31 -62 -66 0 c-73 0 -262 -25 -539 -70 -254 -42 -324 -50 -423 -50 -151
0 -536 -35 -712 -65 -47 -8 -139 -22 -205 -30 -66 -9 -189 -27 -274 -40 -200
-33 -461 -66 -471 -60 -11 7 -74 182 -115 320 -59 195 -76 288 -82 445 -7 192
6 231 116 340 203 202 304 245 581 245 147 0 162 -2 300 -38 120 -31 171 -51
295 -114 149 -76 182 -95 417 -248 123 -80 123 -80 190 -80 63 0 69 2 102 34
55 54 64 141 21 207 -9 14 -42 41 -73 61 -31 20 -116 75 -188 122 -73 47 -155
98 -183 113 -29 16 -51 35 -51 44 0 9 -25 80 -56 158 -69 173 -103 280 -159
506 -67 270 -80 385 -80 720 l0 285 43 150 c23 83 59 183 78 224 30 62 35 82
32 121 -11 115 -128 175 -230 118 -78 -44 -120 -138 -198 -441 l-40 -157 0
-283 c0 -272 13 -461 41 -607 24 -122 101 -424 135 -525 19 -59 34 -109 32
-111 -2 -2 -57 10 -123 26 -109 28 -133 30 -289 29 -94 0 -206 -6 -249 -13
-76 -12 -79 -12 -87 8 -52 133 -82 217 -95 268 -89 341 -167 863 -194 1288
-11 182 -6 526 9 583 20 75 9 133 -33 175 -32 31 -43 36 -96 40 -49 4 -66 0
-95 -17 -42 -26 -80 -100 -97 -188 -16 -85 -6 -639 15 -853 23 -223 91 -697
116 -804 11 -48 20 -94 20 -102 0 -12 -22 -4 -85 31 -47 25 -89 43 -95 40 -5
-3 -52 13 -106 35 -137 57 -326 116 -469 146 -113 23 -140 25 -312 22 l-188
-3 -90 -39 c-121 -51 -203 -100 -310 -187 -191 -153 -292 -267 -356 -403 -70
-150 -88 -238 -109 -546 -11 -151 -26 -324 -34 -385 -15 -112 -33 -385 -41
-620 -2 -71 -7 -157 -10 -190 -7 -70 12 -111 67 -146 30 -18 43 -20 128 -15
52 4 113 11 135 17 22 6 150 12 285 14 247 3 392 15 635 56 244 41 343 49 628
49 l278 0 28 -62 c15 -35 33 -79 40 -99 6 -19 27 -50 45 -68 43 -42 98 -50
187 -28 35 9 125 23 199 32 74 9 218 29 320 45 102 16 241 36 309 45 68 9 145
20 171 25 172 33 445 55 511 42 51 -10 242 12 589 68 417 68 534 80 748 80
224 0 249 5 295 59 33 39 43 91 28 141 -6 21 -43 76 -81 122 -127 150 -231
388 -447 1020 -38 113 -68 219 -74 268 -16 121 -6 747 14 870 32 194 110 501
204 800 187 595 191 607 269 720 92 136 104 160 104 212 0 52 -28 101 -72 128
-43 26 -122 27 -165 1z m-4002 -2352 c132 -27 228 -56 374 -114 268 -105 371
-171 530 -335 l60 -62 -55 -46 c-115 -96 -206 -199 -248 -279 -64 -125 -72
-163 -72 -357 0 -181 12 -273 55 -441 14 -52 26 -100 27 -107 2 -10 -61 -14
-307 -19 -284 -6 -325 -9 -490 -37 -247 -42 -445 -64 -461 -51 -9 7 -32 7 -75
-1 -61 -11 -151 -7 -210 10 -19 6 -29 4 -33 -5 -3 -9 -28 -14 -72 -17 l-67 -3
6 220 c3 125 14 293 26 390 12 94 27 271 35 395 22 337 58 441 201 581 141
138 306 253 409 285 66 21 252 17 367 -7z"/>
</g>
</svg>
