<?xml version="1.0" standalone="no"?>
<!DOCTYPE svg PUBLIC "-//W3C//DTD SVG 20010904//EN"
 "http://www.w3.org/TR/2001/REC-SVG-20010904/DTD/svg10.dtd">
<svg version="1.0" xmlns="http://www.w3.org/2000/svg"
 width="2000.000000pt" height="2000.000000pt" viewBox="0 0 2000.000000 2000.000000"
 preserveAspectRatio="xMidYMid meet">
<metadata>
Created by potrace 1.16, written by Peter Selinger 2001-2019
</metadata>
<g transform="translate(0.000000,2000.000000) scale(0.100000,-0.100000)"
fill="#000000" stroke="none">
<path d="M6086 19958 c-60 -4 -114 -12 -120 -17 -6 -5 -39 -12 -74 -16 -34 -4
-65 -11 -68 -16 -3 -5 -13 -9 -22 -9 -9 0 -30 -7 -46 -15 -15 -8 -39 -15 -52
-15 -12 0 -25 -4 -28 -9 -3 -5 -22 -12 -41 -15 -19 -4 -35 -11 -35 -16 0 -6
-13 -10 -29 -10 -17 0 -33 -4 -36 -10 -3 -5 -13 -10 -22 -10 -8 0 -29 -6 -46
-14 -18 -7 -48 -19 -67 -26 -19 -7 -55 -22 -80 -33 -177 -76 -175 -74 -160
-175 14 -98 -5 -615 -25 -682 -2 -8 -9 -69 -14 -136 -5 -66 -16 -156 -25 -200
-8 -43 -17 -95 -20 -114 -6 -33 -8 -35 -48 -38 -79 -5 -786 -102 -810 -111
-13 -5 -52 -12 -88 -16 -36 -4 -69 -10 -75 -14 -9 -5 -73 -19 -175 -37 -19 -3
-44 -9 -55 -14 -24 -9 -126 -31 -178 -37 -20 -3 -40 -9 -43 -14 -3 -5 -15 -9
-27 -9 -23 0 -228 -47 -262 -60 -11 -5 -47 -16 -80 -25 -33 -10 -64 -21 -70
-25 -5 -3 -30 -12 -55 -19 -73 -21 -232 -92 -315 -141 -27 -16 -59 -33 -70
-39 -12 -5 -27 -16 -34 -25 -7 -9 -20 -16 -27 -16 -7 0 -21 -11 -29 -24 -9
-13 -25 -26 -36 -29 -11 -3 -23 -15 -26 -26 -3 -12 -10 -21 -16 -21 -13 0 -97
-82 -97 -95 0 -6 -9 -17 -20 -25 -11 -8 -20 -19 -20 -25 0 -6 -10 -21 -23 -35
-12 -14 -35 -50 -50 -80 -25 -49 -29 -65 -28 -150 0 -57 4 -96 10 -98 6 -2 11
-10 11 -19 0 -8 6 -20 13 -27 15 -14 81 -46 96 -46 6 0 11 -4 11 -10 0 -5 6
-10 13 -10 6 -1 30 -9 52 -20 22 -11 48 -19 58 -20 9 0 17 -4 17 -10 0 -5 16
-12 35 -16 19 -3 38 -10 41 -15 3 -5 18 -9 34 -9 16 0 32 -4 35 -10 3 -5 21
-10 40 -10 19 0 37 -4 40 -10 3 -5 19 -10 35 -10 16 0 32 -4 35 -10 3 -5 19
-10 35 -10 16 0 32 -4 35 -10 3 -5 19 -10 36 -10 16 0 37 -4 47 -9 22 -12 153
-41 184 -41 14 0 28 -3 32 -7 9 -9 195 -40 316 -53 47 -5 154 -18 239 -29 85
-12 188 -23 230 -26 42 -3 145 -14 230 -25 84 -11 156 -18 160 -16 3 2 33 0
66 -5 59 -8 268 -26 395 -34 36 -3 81 -7 100 -9 19 -3 94 -8 165 -11 250 -10
323 -16 920 -75 61 -6 135 -13 165 -15 30 -1 100 -8 155 -14 209 -22 312 -32
370 -36 33 -2 116 -10 185 -16 69 -7 271 -13 450 -15 486 -3 806 22 1320 106
36 6 73 15 82 20 10 6 31 10 47 10 17 0 33 5 36 10 3 6 21 10 40 10 19 0 37 5
40 10 3 6 19 10 35 10 16 0 32 5 35 10 3 6 19 10 34 10 15 0 31 4 37 8 5 5 37
17 72 27 35 10 65 22 68 27 3 4 13 8 22 8 9 0 30 7 46 15 15 8 34 15 41 15 7
0 26 7 41 15 16 8 37 15 47 15 9 0 17 4 17 9 0 5 16 12 35 15 19 4 35 11 35
15 0 5 16 12 35 15 19 4 35 11 35 15 0 5 16 12 35 15 19 4 35 11 35 16 0 6 7
10 15 10 17 0 118 51 123 63 2 4 10 7 18 7 9 0 36 12 62 27 80 45 97 53 110
53 6 0 12 3 12 8 0 4 10 12 23 18 42 22 102 55 142 79 22 13 52 29 68 36 15 6
27 15 27 20 0 5 16 15 35 23 19 8 35 19 35 23 0 5 12 14 28 21 48 22 93 48
100 58 4 5 18 15 32 22 83 40 110 76 109 144 -1 82 -36 114 -164 154 -33 10
-67 21 -75 26 -8 4 -37 17 -65 28 -27 12 -64 28 -82 36 -17 8 -38 14 -47 14
-9 0 -16 4 -16 10 0 5 -16 12 -35 16 -19 3 -35 10 -35 14 0 5 -14 12 -32 15
-18 4 -39 11 -48 16 -28 16 -105 46 -145 58 -22 7 -53 19 -70 26 -77 35 -104
45 -119 45 -9 0 -16 5 -16 10 0 6 -11 10 -24 10 -13 0 -37 7 -52 15 -16 8 -37
15 -46 15 -10 0 -18 3 -18 8 0 4 -30 16 -67 26 -38 11 -72 22 -78 26 -5 5 -39
16 -75 25 -36 10 -69 22 -74 26 -6 5 -22 9 -37 9 -15 0 -31 5 -34 10 -3 6 -19
10 -35 10 -16 0 -32 5 -35 10 -3 6 -19 10 -35 10 -16 0 -32 5 -35 10 -3 6 -17
10 -31 10 -13 0 -66 11 -118 25 -52 14 -105 25 -119 25 -14 0 -28 4 -31 9 -3
5 -23 11 -43 14 -53 6 -154 28 -178 38 -11 4 -33 10 -50 12 -65 10 -151 30
-167 38 -10 5 -29 9 -43 9 -14 0 -33 4 -43 9 -9 5 -46 16 -82 24 -36 8 -117
28 -180 45 -63 17 -128 34 -145 37 -101 22 -190 38 -261 47 l-81 11 -11 44
c-7 24 -12 52 -12 63 0 11 -4 28 -9 38 -16 30 -62 334 -81 543 -11 121 -7 193
11 205 17 10 9 93 -11 129 -11 20 -20 46 -20 59 0 61 -58 116 -122 116 -27 0
-85 25 -98 41 -3 4 -23 17 -45 29 -22 13 -59 33 -82 46 -23 13 -49 24 -57 24
-9 0 -16 4 -16 10 0 5 -16 12 -35 16 -19 3 -38 10 -41 15 -3 5 -16 9 -30 9
-13 0 -32 4 -42 10 -9 5 -46 14 -82 20 -36 6 -78 13 -95 15 -59 10 -382 12
-489 3z m454 -302 c114 -17 227 -38 284 -54 43 -12 43 -30 2 -38 -20 -3 -36
-10 -36 -15 0 -5 -11 -9 -24 -9 -28 0 -168 -68 -179 -87 -4 -7 -14 -13 -22
-13 -8 0 -20 -9 -27 -20 -7 -11 -17 -20 -23 -20 -11 0 -95 -84 -95 -95 0 -3
-10 -16 -23 -28 -13 -12 -26 -30 -30 -40 -5 -14 -11 -16 -27 -7 -11 6 -20 17
-20 25 0 8 -4 15 -8 15 -5 0 -15 12 -23 28 -8 15 -22 36 -31 46 -10 11 -18 25
-18 32 0 7 -10 21 -22 31 -13 10 -28 27 -34 38 -6 10 -18 23 -28 29 -10 6 -30
22 -45 36 -47 43 -71 60 -86 60 -8 0 -15 5 -15 10 0 6 -6 10 -13 10 -7 0 -29
9 -50 20 -20 11 -44 20 -54 20 -30 0 -3 15 60 32 52 15 96 17 267 14 116 -2
255 -11 320 -20z m-817 -251 c84 -25 252 -136 281 -183 4 -8 17 -23 27 -33 11
-11 19 -26 19 -34 0 -8 9 -20 20 -27 11 -7 20 -19 20 -26 0 -16 24 -42 39 -42
6 0 11 -6 11 -14 0 -15 66 -71 109 -94 13 -7 63 -15 110 -18 110 -6 130 3 258
122 163 151 282 242 342 263 38 12 100 15 102 4 1 -5 3 -37 5 -73 10 -162 70
-567 104 -700 5 -19 16 -71 25 -115 9 -44 21 -88 26 -97 5 -10 9 -31 9 -47 0
-17 5 -33 10 -36 6 -3 10 -19 10 -34 0 -15 4 -31 9 -36 4 -6 16 -39 26 -75 9
-36 21 -69 25 -75 4 -5 10 -27 13 -48 6 -42 -6 -60 -56 -86 -15 -8 -27 -18
-27 -23 0 -4 -5 -8 -11 -8 -6 0 -29 -13 -52 -29 -45 -31 -104 -65 -152 -89
-16 -8 -37 -20 -45 -27 -8 -7 -26 -16 -40 -20 -14 -4 -27 -10 -30 -14 -6 -7
-137 -72 -205 -101 -27 -12 -59 -25 -70 -30 -20 -9 -43 -14 -126 -30 -55 -10
-233 -4 -309 11 -30 5 -70 13 -88 16 -18 3 -35 9 -38 14 -3 5 -16 9 -30 9 -13
0 -32 4 -42 9 -9 6 -30 16 -47 24 -16 7 -51 26 -77 40 -26 15 -54 27 -62 27
-9 0 -16 4 -16 8 0 5 -17 17 -37 28 -63 34 -86 48 -107 67 -11 9 -28 17 -38
17 -10 0 -18 4 -18 8 0 5 -12 15 -27 23 -16 8 -37 22 -47 32 -11 9 -26 17 -33
17 -7 0 -13 4 -13 10 0 5 -12 16 -27 24 -16 8 -41 27 -58 41 -16 15 -40 35
-53 45 -13 11 -23 30 -24 47 -3 63 14 232 47 478 32 234 52 429 60 570 1 28 6
115 10 194 l8 144 116 -6 c64 -4 138 -13 164 -22z m1932 -1186 c5 -5 19 -9 32
-9 12 0 97 -20 189 -45 91 -25 176 -45 189 -45 13 0 27 -4 30 -10 3 -5 19 -10
35 -10 16 0 32 -4 35 -10 3 -5 16 -10 28 -10 21 0 120 -20 197 -40 19 -5 87
-21 150 -35 63 -14 131 -30 150 -35 19 -5 71 -17 115 -26 44 -9 88 -20 97 -25
10 -5 31 -9 47 -9 17 0 33 -4 36 -10 3 -5 19 -10 35 -10 16 0 32 -4 35 -10 3
-5 19 -10 34 -10 15 0 31 -4 36 -8 6 -5 39 -17 75 -27 36 -10 69 -22 74 -27 6
-4 20 -8 33 -8 13 0 31 -4 41 -10 24 -13 77 -34 137 -55 28 -9 64 -23 82 -31
17 -8 38 -14 46 -14 9 0 18 -4 21 -9 3 -4 35 -17 71 -27 36 -10 65 -22 65 -26
0 -3 14 -10 32 -13 18 -4 39 -11 48 -16 8 -5 38 -18 65 -29 28 -12 59 -25 70
-30 11 -5 43 -16 70 -25 64 -22 115 -47 115 -58 0 -4 -12 -12 -27 -18 -16 -5
-32 -15 -38 -22 -5 -7 -30 -22 -55 -35 -25 -12 -65 -34 -90 -49 -25 -14 -72
-40 -105 -58 -33 -17 -69 -36 -80 -42 -11 -6 -44 -23 -74 -38 -30 -15 -62 -31
-70 -36 -31 -17 -110 -49 -120 -49 -6 0 -11 -4 -11 -9 0 -5 -16 -12 -35 -15
-19 -4 -35 -11 -35 -15 0 -5 -16 -12 -35 -15 -19 -4 -35 -11 -35 -16 0 -6 -7
-10 -16 -10 -9 0 -30 -6 -47 -14 -18 -8 -54 -22 -82 -31 -27 -9 -57 -20 -65
-24 -8 -4 -45 -16 -82 -27 -38 -10 -68 -22 -68 -26 0 -5 -13 -8 -29 -8 -17 0
-33 -4 -36 -10 -3 -5 -21 -10 -40 -10 -19 0 -37 -4 -40 -10 -3 -5 -19 -10 -35
-10 -16 0 -32 -4 -35 -10 -3 -5 -18 -10 -32 -10 -15 0 -54 -7 -87 -15 -107
-26 -585 -84 -766 -92 -271 -12 -788 -10 -935 5 -237 23 -319 31 -450 42 -71
6 -191 17 -265 25 -74 8 -209 21 -300 30 -91 8 -210 20 -265 25 -55 6 -275 22
-490 36 -214 15 -408 28 -430 29 -207 14 -498 50 -695 85 -107 19 -307 51
-605 94 -359 53 -586 106 -787 185 l-28 10 30 52 c45 76 165 213 218 251 59
41 91 57 242 119 14 6 38 17 53 25 16 8 37 14 48 14 11 0 27 4 37 10 36 20
297 90 337 90 13 0 27 5 30 10 3 6 17 10 29 10 13 0 67 11 120 25 53 14 107
25 121 25 13 0 26 4 29 9 3 5 34 12 68 16 35 4 68 11 73 15 6 4 39 11 75 15
35 4 71 11 80 16 13 7 761 109 798 109 10 0 12 -20 6 -96 -5 -73 -4 -101 7
-122 17 -33 34 -52 47 -52 5 0 18 -11 28 -25 10 -14 24 -25 30 -25 6 0 20 -11
30 -25 10 -14 24 -25 30 -25 6 0 19 -9 29 -20 10 -11 23 -20 29 -20 6 0 22
-12 35 -25 13 -14 29 -25 37 -25 8 0 14 -4 14 -8 0 -5 20 -19 45 -32 25 -13
45 -27 45 -32 0 -4 9 -8 20 -8 11 0 20 -4 20 -8 0 -7 47 -36 107 -66 13 -6 23
-14 23 -18 0 -5 5 -8 11 -8 6 0 23 -8 37 -19 15 -10 38 -22 52 -26 14 -4 27
-11 30 -14 3 -4 32 -19 65 -35 33 -15 68 -31 77 -37 10 -5 29 -9 43 -9 14 0
25 -4 25 -10 0 -5 14 -10 30 -10 17 0 38 -4 48 -9 16 -9 168 -32 307 -47 61
-6 291 19 330 36 11 5 38 14 60 21 71 21 225 90 225 101 0 4 6 8 14 8 14 0 54
19 176 87 36 20 81 44 100 55 68 37 80 45 98 61 10 10 23 17 29 17 5 0 18 9
28 20 10 11 24 20 31 20 7 0 21 11 32 25 11 14 23 25 27 25 5 0 32 11 61 25
36 17 58 35 68 56 17 34 22 109 8 125 -5 5 -14 29 -21 54 -7 25 -19 59 -26 75
-7 17 -21 57 -30 90 -10 33 -20 66 -23 73 -4 11 7 12 54 7 32 -4 63 -11 69
-16z"/>
<path d="M15440 1950 c-228 -33 -545 -50 -1160 -60 -333 -6 -632 -15 -665 -21
-73 -12 -103 -30 -110 -67 -3 -15 -10 -41 -15 -58 -16 -49 -12 -76 19 -129
108 -188 411 -325 851 -385 172 -23 399 -30 1003 -30 l638 0 24 25 c32 31 31
50 -4 85 l-29 29 -243 1 c-133 0 -244 2 -246 4 -2 2 63 13 144 25 171 26 186
31 209 67 16 24 16 29 3 53 -29 51 -36 51 -384 -8 l-41 -7 0 33 c0 30 3 33 29
33 32 0 87 47 87 75 0 9 -11 27 -25 40 l-24 25 -419 0 c-403 0 -420 -1 -444
-20 -29 -22 6 -23 -510 7 -164 9 -298 20 -298 23 0 7 200 20 585 40 99 6 366
13 594 17 447 7 414 3 459 57 7 9 27 16 45 16 111 0 171 67 112 125 -28 29
-20 28 -185 5z m-1065 -435 c176 -9 372 -20 435 -25 63 -6 144 -13 180 -16 36
-3 106 -9 155 -14 50 -5 99 -10 110 -11 31 -2 -37 -17 -190 -41 -116 -19 -181
-23 -375 -23 l-235 0 -135 37 c-198 55 -388 126 -300 113 19 -3 179 -12 355
-20z"/>
<path d="M16796 1800 c-24 -20 -28 -28 -23 -61 3 -22 18 -54 36 -76 l32 -38
-57 -5 c-59 -6 -94 -32 -94 -69 0 -53 47 -68 222 -70 120 -2 125 -3 178 -34
237 -141 629 -282 1022 -368 371 -81 394 -85 862 -149 338 -46 371 -49 392
-35 44 29 40 90 -7 116 -11 6 -93 19 -182 29 -89 11 -212 27 -274 36 -102 16
-112 20 -118 41 -3 12 -15 29 -28 37 -12 8 -112 29 -222 47 -325 51 -360 59
-630 130 -227 60 -271 73 -365 109 l-55 20 160 -5 c88 -2 244 -8 346 -11 l187
-7 26 26 c33 33 33 61 1 92 -23 24 -29 25 -168 25 l-145 0 -6 25 c-4 14 -17
32 -31 41 -69 45 -648 151 -930 170 -94 6 -102 5 -129 -16z m634 -196 c0 -2
-11 -4 -25 -4 -14 0 -25 4 -25 9 0 4 11 6 25 3 14 -2 25 -6 25 -8z"/>
<path d="M11155 1551 c-57 -14 -95 -46 -95 -80 0 -58 234 -186 430 -236 36 -9
99 -36 140 -59 41 -23 91 -50 110 -58 218 -99 323 -128 481 -130 190 -3 208
-1 240 31 36 36 36 54 4 87 -22 22 -34 25 -78 24 -70 -3 -70 -3 -42 25 31 30
31 49 2 79 -20 20 -36 24 -142 30 -126 7 -320 28 -417 46 -32 5 -82 14 -112
19 -30 6 -67 18 -83 28 l-27 18 114 3 c67 2 173 -4 252 -14 128 -15 140 -15
163 0 36 23 41 58 16 100 -12 19 -29 37 -39 41 -9 4 -71 9 -137 11 -66 2 -187
13 -269 24 -151 20 -446 26 -511 11z"/>
<path d="M9966 1277 c-10 -8 -22 -34 -27 -58 -4 -24 -11 -56 -15 -71 -5 -21 0
-33 20 -53 l26 -25 222 6 c123 3 240 10 261 15 68 18 76 89 15 128 -18 11 -42
27 -53 35 -13 10 -66 18 -160 25 -189 15 -267 14 -289 -2z"/>
</g>
</svg>
