<?xml version="1.0" standalone="no"?>
<!DOCTYPE svg PUBLIC "-//W3C//DTD SVG 20010904//EN"
 "http://www.w3.org/TR/2001/REC-SVG-20010904/DTD/svg10.dtd">
<svg version="1.0" xmlns="http://www.w3.org/2000/svg"
 width="2000.000000pt" height="2000.000000pt" viewBox="0 0 2000.000000 2000.000000"
 preserveAspectRatio="xMidYMid meet">
<metadata>
Created by potrace 1.16, written by Peter Selinger 2001-2019
</metadata>
<g transform="translate(0.000000,2000.000000) scale(0.100000,-0.100000)"
fill="#000000" stroke="none">
<path d="M3615 10133 c-34 -18 -55 -38 -55 -51 0 -5 -9 -17 -20 -27 -11 -10
-20 -22 -20 -28 0 -5 -11 -18 -25 -29 -14 -11 -25 -24 -25 -30 0 -5 -11 -19
-25 -30 -14 -11 -25 -26 -25 -34 0 -8 -6 -14 -13 -14 -8 0 -20 -12 -28 -27 -8
-16 -24 -36 -36 -46 -13 -10 -23 -24 -23 -30 0 -7 -9 -18 -20 -25 -11 -7 -20
-18 -20 -26 0 -7 -9 -21 -20 -31 -27 -24 -120 -212 -120 -241 0 -13 -4 -24 -9
-24 -16 0 -24 -82 -24 -244 -1 -114 3 -161 11 -164 7 -2 12 -10 12 -18 0 -24
49 -124 60 -124 5 0 10 -7 10 -16 0 -16 23 -44 37 -44 4 0 14 -9 20 -19 22
-35 127 -76 233 -92 81 -11 230 -5 230 11 0 4 16 11 35 14 19 4 35 11 35 16 0
6 5 10 12 10 16 0 88 78 88 95 0 8 4 15 8 15 15 0 36 103 35 170 -1 36 -9 103
-18 150 -9 47 -19 99 -22 115 -2 17 -8 39 -13 50 -19 44 -48 223 -56 345 -10
141 -10 137 -1 243 10 114 -2 155 -55 181 -40 20 -115 20 -153 -1z m-169 -695
c-13 -70 -19 -355 -7 -362 12 -8 16 -66 4 -66 -14 0 -51 66 -63 111 -15 55
-15 190 -1 217 6 12 11 30 11 41 0 12 5 21 10 21 6 0 10 4 10 9 0 21 20 61 31
61 7 0 9 -11 5 -32z"/>
</g>
</svg>
