<?xml version="1.0" standalone="no"?>
<!DOCTYPE svg PUBLIC "-//W3C//DTD SVG 20010904//EN"
 "http://www.w3.org/TR/2001/REC-SVG-20010904/DTD/svg10.dtd">
<svg version="1.0" xmlns="http://www.w3.org/2000/svg"
 width="2000.000000pt" height="2000.000000pt" viewBox="0 0 2000.000000 2000.000000"
 preserveAspectRatio="xMidYMid meet">
<metadata>
Created by potrace 1.16, written by Peter Selinger 2001-2019
</metadata>
<g transform="translate(0.000000,2000.000000) scale(0.100000,-0.100000)"
fill="#000000" stroke="none">
<path d="M8100 11245 c-312 -39 -568 -51 -1190 -60 -378 -5 -598 -12 -610 -20
-3 -2 -46 -6 -96 -9 -110 -7 -524 -61 -619 -81 -38 -8 -137 -24 -219 -35 -82
-11 -152 -23 -157 -25 -7 -5 -343 -55 -509 -76 -36 -4 -173 -8 -306 -8 -267
-1 -290 -6 -319 -63 -19 -40 -19 -106 0 -146 22 -43 66 -62 142 -62 50 0 74
-6 109 -25 25 -14 60 -25 79 -25 32 0 35 -3 35 -28 0 -43 27 -89 63 -107 17
-8 72 -18 121 -22 87 -6 116 -17 116 -43 0 -16 26 -40 43 -40 9 0 17 -4 19 -9
2 -6 39 -12 83 -15 44 -3 136 -10 205 -16 156 -14 949 -20 1165 -10 193 9 224
21 240 89 13 53 26 61 97 61 71 0 423 46 501 66 32 8 69 14 82 14 13 0 27 5
30 10 3 6 17 10 29 10 29 0 384 96 408 110 10 5 28 10 41 10 13 0 27 4 33 9 5
4 30 14 55 20 51 14 99 50 99 75 0 9 5 16 10 16 14 0 13 103 -1 117 -12 12 -3
37 10 28 5 -2 62 2 127 10 66 8 158 17 207 20 48 4 87 11 87 16 0 5 7 9 16 9
20 0 44 24 44 44 0 9 5 16 10 16 16 0 10 93 -9 125 -33 57 -106 70 -271 50z"/>
</g>
</svg>
