<?xml version="1.0" encoding="UTF-8"?>
<svg version="1.1" xmlns="http://www.w3.org/2000/svg" width="1000" height="1000">

<!-- don't do business -->
<!-- solve problems -->

<!-- middle of circle fill -->
<circle r="456" cx="500.5" cy="500" fill="#111d30" />

<!-- ALL THINGS ORANGE eb7824 -->
<!-- circle outline -->
<circle r="476" cx="500.5" cy="500" fill="white" fill-opacity="0" stroke="#a64b1d" stroke-width="30" />

<!-- main body of circle -->
<path d="M 0 0 C 1.3862 0.1934 2.7725 0.3867 4.2007 0.5859 C 48.9921 6.9756 92.8285 19.1278 134 38 C 135.0575 38.4847 136.115 38.9694 137.2046 39.4688 C 181.1354 59.7781 221.6553 86.0823 257.4604 118.6953 C 259.0661 120.1524 260.6782 121.6024 262.2993 123.0422 C 268.4645 128.5232 274.3686 134.2168 280.1875 140.0625 C 281.0376 140.9088 281.8878 141.755 282.7637 142.627 C 287.7178 147.5887 292.4364 152.6712 297 158 C 297.941 159.0712 298.882 160.1424 299.8516 161.2461 C 307.6375 170.2054 314.8894 179.4986 322 189 C 322.95 190.2594 323.9001 191.5188 324.8789 192.8164 C 369.9046 253.2137 398.7823 324.9934 411 399.125 C 411.3302 401.1184 411.3302 401.1184 411.667 403.1521 C 411.8594 404.3832 412.0518 405.6144 412.25 406.8828 C 412.5052 408.5131 412.5052 408.5131 412.7656 410.1763 C 403.3255 596.0471 391.9304 635.055 375 672 C 374.5206 673.0469 374.0413 674.0938 373.5474 675.1724 C 353.2273 719.169 326.9823 759.6159 294.2656 795.4883 C 292.4522 797.4986 290.6783 799.5445 288.918 801.6016 C 284.1515 806.9526 279.1386 812.007 274.0625 817.0625 C 273.1118 818.0171 272.1611 818.9716 271.1816 819.9551 C 265.9492 825.1803 260.6276 830.1958 255 835 C 253.9288 835.941 252.8576 836.882 251.7539 837.8516 C 242.7946 845.6375 233.5014 852.8894 224 860 C 222.7406 860.95 221.4812 861.9001 220.1836 862.8789 C 155.9782 910.7436 79.1325 940.3444 0 951 C -1.7209 951.2456 -1.7209 951.2456 -3.4766 951.4961 C -42.7324 956.9061 -85.7974 956.7044 -125 951 C -126.3862 950.8066 -127.7725 950.6133 -129.2007 950.4141 C -173.9921 944.0244 -217.8285 931.8722 -259 913 C -260.0575 912.5153 -261.115 912.0306 -262.2046 911.5313 C -306.1356 891.2218 -346.6583 864.9176 -382.4624 832.3027 C -384.0613 830.8519 -385.6668 829.4083 -387.2817 827.9753 C -393.6313 822.3345 -399.6958 816.4553 -405.6875 810.4375 C -406.5853 809.5435 -407.4832 808.6496 -408.4082 807.7285 C -413.4816 802.6476 -418.3285 797.4586 -423 792 C -424.3767 790.4454 -424.3767 790.4454 -425.7813 788.8594 C -434.4218 778.9774 -442.2377 768.5732 -450 758 C -450.8856 756.8063 -451.7712 755.6127 -452.6836 754.3828 C -492.9353 699.2598 -518.8988 635.5203 -533 569 C -533.2773 567.83 -533.5546 566.66 -533.8403 565.4546 C -534.5391 562.1953 -534.5391 562.1953 -535 557 C -540.6094 517.2617 -540.6094 517.2617 -540.75 513.6875 C -540.8351 511.9608 -540.8351 511.9608 -540.9219 510.1992 C -541.0223 504.8004 -541 499.3998 -541 494 C -537.3359 405.0977 -537.3359 405.0977 -536.375 400.0625 C -536.0257 398.1663 -535.6763 396.2701 -535.3164 394.3164 C -534.8796 392.2105 -534.4407 390.1051 -534 388 C -533.5705 385.801 -533.1421 383.6018 -532.7148 381.4023 C -515.9587 297.5495 -476.9553 218.8328 -419.3047 155.5396 C -417.8476 153.9339 -416.3976 152.3218 -414.9578 150.7007 C -409.4768 144.5355 -403.7832 138.6314 -397.9375 132.8125 C -397.0912 131.9624 -396.245 131.1122 -395.373 130.2363 C -390.4113 125.2822 -385.3288 120.5636 -380 116 C -378.9288 115.059 -377.8576 114.118 -376.7539 113.1484 C -367.7946 105.3625 -358.5014 98.1106 -349 91 C -347.7406 90.05 -346.4812 89.0999 -345.1836 88.1211 C -280.932 40.222 -204.1429 10.8116 -125 0 C -123.8469 -0.1652 -122.6939 -0.3303 -121.5059 -0.5005 C -82.2561 -5.9071 -39.1959 -5.7035 0 0 Z M -27.4688 60.2969 C -30.3552 61.0098 -33.2417 61.7221 -36.1284 62.4338 C -40.8305 63.5949 -45.532 64.758 -50.232 65.9272 C -67.1761 70.1339 -84.0824 74.1687 -101.2734 77.2383 C -103.2777 77.6064 -103.2777 77.6064 -105.3224 77.982 C -111.6123 79.1353 -117.8997 80.2204 -124.2207 81.1885 C -135.8179 82.9061 -135.8179 82.9061 -145.1169 89.4651 C -147.2339 93.5914 -148.665 97.5644 -150 102 C -150.9569 104.2171 -151.9411 106.4226 -152.957 108.6133 C -153.9129 110.8446 -154.8646 113.0778 -155.8125 115.3125 C -161.2068 127.8924 -166.705 140.4233 -172.25 152.9375 C -179.1041 168.4159 -185.9034 183.9173 -192.6575 199.4397 C -199.9771 216.2579 -207.3542 233.0508 -214.7339 249.8428 C -218.4914 258.3942 -222.2456 266.9472 -226 275.5 C -227.5 278.9167 -229 282.3333 -230.5 285.75 C -231.6138 288.2869 -231.6138 288.2869 -232.75 290.875 C -235 296 -237.25 301.125 -239.5 306.25 C -240.2433 307.9432 -240.9866 309.6364 -241.7524 311.3809 C -243.244 314.7781 -244.7359 318.1753 -246.228 321.5723 C -249.701 329.4796 -253.1713 337.3881 -256.6307 345.3014 C -257.8442 348.0769 -259.0587 350.852 -260.2734 353.627 C -261.7884 357.0884 -263.3015 360.5505 -264.8125 364.0137 C -271.1369 378.4552 -277.4403 392.7874 -285.5313 406.3398 C -287.1611 408.7854 -287.1611 408.7854 -287 411 C -354.715 538.1872 -357.8445 542.2836 -360.1875 546.5 C -360.7298 547.506 -361.2721 548.5119 -361.8308 549.5483 C -363.5385 552.7075 -365.2683 555.8539 -367 559 C -368.0769 560.981 -369.1524 562.9628 -370.2266 564.9453 C -370.7411 565.8919 -371.2557 566.8385 -371.7859 567.8137 C -372.7995 569.6804 -373.8101 571.5487 -374.8176 573.4187 C -376.8947 577.2528 -379.0054 581.0084 -381.3789 584.668 C -385.2542 590.7729 -386.3558 594.5899 -385.3223 601.825 C -385.115 603.328 -384.9077 604.8311 -384.6941 606.3797 C -384.465 607.9044 -384.236 609.4291 -384 611 C -383.7019 613.0829 -383.7019 613.0829 -383.3977 615.2079 C -382.777 619.4717 -382.1268 623.7301 -381.4688 627.9883 C -381.2322 629.5339 -380.9956 631.0795 -380.7518 632.6719 C -380.2557 635.9098 -379.7581 639.1475 -379.2593 642.385 C -378.4993 647.3168 -377.7434 652.2491 -376.9883 657.1816 C -376.5028 660.3464 -376.0172 663.5111 -375.5313 666.6758 C -375.3072 668.1354 -375.0832 669.5951 -374.8524 671.099 C -374.4329 673.8202 -373.987 676.5375 -373.51 679.2492 C -373 683 -373 683 -373.1365 686.6803 C -373.3801 690.4136 -373.3801 690.4136 -371 695 C -365.1387 696.2547 -359.4111 695.6836 -353.4664 695.2329 C -348.4785 694.8977 -343.4924 694.8053 -338.4951 694.6955 C -334.0606 694.5966 -329.6275 694.4705 -325.1938 694.3391 C -200.2247 690.6973 -75.3665 691.0032 49.6412 692.1724 C 64.7005 692.313 79.7597 692.4449 94.8194 692.5507 C 100.5752 692.5923 106.3311 692.6348 112.0869 692.6777 C 113.4834 692.6879 114.8798 692.6981 116.3186 692.7085 C 133.6624 692.839 150.9962 693.1033 168.3351 693.5353 C 176.6421 693.7405 184.9498 693.8886 193.2583 694.0179 C 199.7121 694.1231 206.1576 694.3038 212.6077 694.5462 C 217.3635 694.7023 222.1205 694.7435 226.8784 694.8018 C 228.5639 694.8907 230.2493 694.9796 231.9859 695.0712 C 236.6455 695.0632 239.7973 695.0309 244 693 C 247.1004 687.2052 248.0746 681.456 249 675 C 249.472 673.2034 249.9441 671.4069 250.4304 669.5559 C 253.5014 656.9479 255.7945 644.3049 257.7952 631.4929 C 258.3193 628.1438 258.8591 624.7975 259.4004 621.4512 C 259.7431 619.2944 260.0849 617.1375 260.4258 614.9805 C 260.7291 613.0613 261.0324 611.1421 261.345 609.1648 C 262.4006 600.8413 262.4406 595.8337 258.4844 588.3359 C 257.7341 586.8961 256.9839 585.4562 256.2109 583.9727 C 254.9928 581.6968 254.9928 581.6968 253.75 579.375 C 252.9224 577.7985 252.0948 576.222 251.2422 574.5977 C 246.0114 564.6657 240.6552 554.8055 235.2266 544.9805 C 229.9398 535.2893 224.9809 525.4209 219.9648 515.5879 C 219.2211 514.1319 218.4773 512.6759 217.7109 511.1758 C 216.7101 509.2099 216.7101 509.2099 215.689 507.2043 C 214.0547 503.9707 214.0547 503.9707 212 501 C 151.5489 384.6669 149.295 380.5931 146.9375 376.375 C 143.2731 369.4262 139.6305 362.4665 136 355.5 C 132.3479 348.4923 128.6844 341.4909 125 334.5 C 118.7824 322.7004 112.6228 310.8707 106.459 299.043 C 100.5166 287.6414 94.5571 276.2493 88.5625 264.875 C 85.178 258.4362 81.8142 251.9866 78.4565 245.5337 C 76.16 241.1234 73.8513 236.7216 71.5078 232.3359 C 60.962 212.5928 51.4854 192.3149 42.0996 172.0007 C 37.678 162.4354 33.1923 152.9014 28.6875 143.375 C 27.9713 141.8603 27.2552 140.3455 26.5173 138.7849 C 25.0648 135.713 23.6123 132.6412 22.1597 129.5693 C 13.065 110.3272 3.9981 91.0726 -4.9287 71.752 C -5.6698 70.15 -5.6698 70.15 -6.4258 68.5156 C -6.8529 67.5904 -7.2799 66.6652 -7.72 65.7119 C -8.3536 64.3695 -8.3536 64.3695 -9 63 C -9.5068 61.8962 -10.0137 60.7925 -10.5359 59.6553 C -11.019 58.779 -11.5022 57.9028 -12 57 C -17.1275 57 -22.4884 59.0536 -27.4688 60.2969 Z Z Z Z M 110.8047 744.2227 C 2.4314 744.9734 -105.9367 745.0869 -214.3125 745.0625 C -217.2143 745.0619 -217.2143 745.0619 -220.1747 745.0612 C -270.4498 745.05 -320.7249 745.0296 -371 745 C -370.7377 751.4048 -370.4711 757.8094 -370.2004 764.2139 C -370.1091 766.3902 -370.0189 768.5667 -369.9299 770.7432 C -369.8015 773.881 -369.6687 777.0186 -369.5352 780.1563 C -369.4566 782.0415 -369.3781 783.9268 -369.2971 785.8691 C -369.041 790.2912 -368.6157 794.6157 -368 799 C -347.2292 799.0339 -326.4637 798.9486 -305.6941 798.7246 C -302.8232 798.6949 -299.9523 798.6654 -297.0815 798.6359 C -290.9685 798.573 -284.8555 798.5091 -278.7426 798.4444 C -269.029 798.3417 -259.3154 798.2416 -249.6018 798.142 C -225.4774 797.8941 -201.3531 797.6429 -177.2288 797.3907 C -158.458 797.1945 -139.6871 796.9993 -120.9162 796.8071 C -112.863 796.7246 -104.8098 796.6412 -96.7567 796.5556 C -47.2872 796.0305 2.145 795.8585 51.6134 796.6058 C 57.396 796.6924 63.1786 796.775 68.9612 796.858 C 79.8618 797.0151 90.7623 797.1749 101.6628 797.3361 C 121.2021 797.6251 140.7414 797.9108 160.2808 798.1929 C 167.1044 798.2916 173.928 798.392 180.7516 798.494 C 185.0082 798.5573 189.2649 798.6192 193.5216 798.6808 C 196.3807 798.7226 199.2397 798.7661 202.0987 798.8096 C 215.0671 798.9954 228.0306 799.0294 241 799 C 242.6538 788.7348 243.9491 778.4552 245.125 768.125 C 245.3068 766.573 245.4885 765.0209 245.6758 763.4219 C 245.8472 761.924 246.0187 760.4261 246.1953 758.8828 C 246.3502 757.5359 246.505 756.189 246.6646 754.8013 C 246.9846 751.1749 247.0234 747.6377 247 744 C 201.6008 743.8832 156.203 743.9027 110.8047 744.2227 Z" fill="#a64b1d" transform="translate(562.5,24)"/>

<!-- middle triangle inside delta -->
<polygon points="484.5,254 670.5,606 322.5,607" fill="#a64b1d" />


</svg>

