<?xml version="1.0" encoding="UTF-8"?>
<svg version="1.1" xmlns="http://www.w3.org/2000/svg" width="2160" height="2160">

<!-- hack everything -->
<!-- break things and build new stuff with the pieces -->

<!-- ALL THINGS ORANGE eb7824 -->
<!-- circle outline -->
<circle r="640" cx="1080" cy="1080" fill="#eb7824" fill-opacity="1" stroke="#eb7824" stroke-width="30" />

<circle r="183" cx="1080" cy="1080" fill="#eb7824" fill-opacity="0" stroke="#ffffff" stroke-width="100" />

<circle r="366" cx="1080" cy="1080" fill="#eb7824" fill-opacity="0" stroke="#ffffff" stroke-width="100" />

<circle r="549" cx="1080" cy="1080" fill="#eb7824" fill-opacity="0" stroke="#ffffff" stroke-width="100" />

<polygon points="1080,1120 1266,1433 894,1433" fill="#eb7824" stroke="#eb7824" stroke-width="230" transform="translate(0 60)" />

<!-- middle triangle inside delta -->
<polygon points="1080,1120 1266,1433 894,1433" fill="#eb7824" stroke="#ffffff" stroke-width="100" transform="translate(0 60)" />

<polygon points="1420,1540 740,1540 894,1640 1266,1640" fill="#eb7824" stroke="#000000" stroke-width="0" transform="translate(0 56)" />

<!-- ALL THINGS BLUE 111d30 -->


<path d="M0 0 C32.34 0 64.68 0 98 0 C98.33 49.17 98.66 98.34 99 149 C102.3 144.71 105.6 140.42 109 136 C123.18067697 121.24443072 140.62213336 112.14649039 160 106 C160.92039063 105.70351563 161.84078125 105.40703125 162.7890625 105.1015625 C183.90629695 98.80999707 207.03486938 99.51358236 228.33447266 104.55224609 C250.83943072 110.32435554 269.61200414 120.72592021 287 136 C287.77859375 136.67546875 288.5571875 137.3509375 289.359375 138.046875 C307.31628398 154.81655033 318.74691862 178.50896598 325.93310547 201.65112305 C328.5985665 210.64547067 330.49283919 219.74603262 332 229 C332.11859375 229.70898438 332.2371875 230.41796875 332.359375 231.1484375 C338.1973988 267.98358766 334.96800474 310.09053673 321.65234375 344.921875 C314.2333865 363.52971224 304.61248584 380.24114733 291 395 C290.17628906 395.89460938 289.35257812 396.78921875 288.50390625 397.7109375 C271.79670771 415.08642398 250.7877911 425.42520416 227.90234375 432.140625 C216.61615639 434.62607167 205.65829694 435.27213725 194.125 435.125 C192.74349622 435.11493026 191.36198516 435.1058116 189.98046875 435.09765625 C169.75999608 434.95625434 151.48912464 428.73036677 133 421 C118.91055415 412.11541817 107.28556643 401.92834965 98 388 C93.1122182 401.03408481 89.76888908 414.5995055 86 428 C57.62 428 29.24 428 0 428 C0 286.76 0 145.52 0 0 Z M126 188 C113.22568084 198.45171567 107.40756932 206.18486136 100 221 C92.35568965 247.31743486 89.74455618 275.47568882 96.24609375 302.4140625 C100.30820497 318.5311097 106.71311781 330.5844296 118 343 C128.91754355 351.02760555 138.63614404 355.65903601 152 359 C170.34473365 359 178.93621623 358.03189188 195 350 C209.62230725 338.58258201 219.03517656 326.75606865 226.00390625 309.5703125 C227.39432423 305.98248885 228.08919495 302.24545761 228.9375 298.5 C229.21110352 297.31277344 229.21110352 297.31277344 229.49023438 296.1015625 C234.30216843 274.75407323 234.10673219 250.58819816 227.6875 229.578125 C223.3668544 216.0832113 216.61546759 204.35247097 206.3984375 194.48828125 C199.04177432 187.98405682 191.26862314 183.02350825 181.8125 180.0625 C180.66394531 179.70285156 179.51539063 179.34320312 178.33203125 178.97265625 C159.101497 173.35905364 143.1998047 179.40009765 126 188 Z " fill="#111d30" transform="translate(32,857)"/>
<path d="M0 0 C1.03737305 0.29100586 1.03737305 0.29100586 2.09570312 0.58789062 C20.00389583 5.7395625 38.13664185 13.6581144 53 25 C54.31871094 25.99 54.31871094 25.99 55.6640625 27 C76.48271478 43.31894357 91.73525356 63.83761664 102.25 88.0625 C115.0040561 121.75929595 116.7060264 160.07575563 111.3125 195.4375 C106.81439015 222.81948219 97.47397862 247.6335893 79.84716797 269.34179688 C77.63514893 271.96190497 75.3420442 274.49592758 73 277 C72.52594727 277.51111328 72.05189453 278.02222656 71.56347656 278.54882812 C53.13796016 298.21748224 29.84884846 311.40867867 4.125 319.25 C-5.76260103 322.15191169 -15.83760899 324.30644692 -26 326 C-27.05413086 326.1757959 -28.10826172 326.3515918 -29.19433594 326.53271484 C-33.56646401 327.06955428 -37.8458243 327.19802249 -42.24609375 327.23828125 C-43.12604004 327.2480751 -44.00598633 327.25786896 -44.91259766 327.26795959 C-82.02344849 327.59592449 -82.02344849 327.59592449 -100 323 C-100.88075195 322.77505859 -101.76150391 322.55011719 -102.66894531 322.31835938 C-132.88292308 314.33315812 -159.18422179 300.53624529 -181.4921875 278.54296875 C-199.76639481 258.93558973 -211.73289012 235.66849307 -217.97265625 209.67578125 C-226.23668745 173.14127145 -225.69149353 133.3929932 -214.79394531 97.49169922 C-207.05575063 73.20633178 -192.69760086 51.52112125 -174.0625 34.1875 C-153.1286235 15.30361957 -126.26494631 3.30258083 -98.90087891 -2.67724609 C-66.17386031 -9.17728869 -32.24113656 -9.19847988 0 0 Z M-92 80 C-103.98002155 89.31779454 -109.12670129 96.25340257 -116 110 C-124.27074207 137.84483162 -126.09068421 167.74602108 -119.68334961 196.25048828 C-116.76362924 208.39226979 -112.03845329 218.69586665 -105 229 C-96.0573372 237.9426628 -86.27641761 245.28767012 -74 249 C-59.50763009 252.22052665 -46.25639782 251.8881085 -32 248 C-15.77106573 240.80126996 -15.77106573 240.80126996 -4 229 C9.35086173 207.30484968 13.14272619 187.1405663 14 162 C14.19654972 142.57181625 11.79807695 124.21777144 5 106 C3.92188894 104.10119204 2.83726681 102.20608022 1.75 100.3125 C1.14671875 99.25675781 0.5434375 98.20101563 -0.078125 97.11328125 C-4.81690017 89.43685074 -9.59536051 86.0583414 -17 80 C-44.55248306 66.22375847 -64.44751694 66.22375847 -92 80 Z " fill="#111d30" transform="translate(1666,965)"/>
<path d="M0 0 C19.36188609 9.74915072 36.62776397 23.80731617 49.83691406 40.953125 C50.92939453 42.30470703 50.92939453 42.30470703 52.04394531 43.68359375 C70.5859835 67.22646185 80.41108749 95.8613524 85.29394531 125.12890625 C87.82697864 142.96947908 86.83691406 157.38303459 86.83691406 176.953125 C9.61691406 176.953125 -67.60308594 176.953125 -147.16308594 176.953125 C-144.1896581 192.8114068 -140.79224015 203.39302552 -132.16308594 216.953125 C-123.71296476 225.40324618 -114.92419985 231.49924903 -103.72558594 235.828125 C-102.97220947 236.12315918 -102.21883301 236.41819336 -101.44262695 236.72216797 C-100.81541748 236.96080566 -100.18820801 237.19944336 -99.54199219 237.4453125 C-98.91881104 237.68620605 -98.29562988 237.92709961 -97.65356445 238.17529297 C-80.1899756 243.62956158 -62.75487092 241.25158468 -45.16308594 237.953125 C-32.29147182 233.33613298 -22.57957417 228.06755221 -12.16308594 218.953125 C-1.23447133 220.51435566 9.07400146 225.06481543 19.45610809 228.79417133 C23.26718201 230.16312569 27.07832913 231.53187547 30.88964844 232.90014648 C34.57269164 234.22237484 38.25553616 235.54515525 41.93824768 236.86830711 C43.33827252 237.37121136 44.73836699 237.87392182 46.13853455 238.3764286 C53.05454027 240.85865254 59.96668366 243.34625424 66.83691406 245.953125 C63.0946222 255.30885466 55.65512538 262.65104062 48.83691406 269.953125 C48.03769531 270.8296875 47.23847656 271.70625 46.41503906 272.609375 C29.24741863 290.71341109 5.62896563 303.75737725 -18.16992188 310.84912109 C-36.34628475 315.90825632 -53.76563749 318.34828192 -72.60058594 318.265625 C-73.48326141 318.26346985 -74.36593689 318.2613147 -75.27536011 318.25909424 C-89.08013465 318.20506748 -102.59905686 317.74601929 -116.16308594 314.953125 C-117.54125488 314.67106201 -117.54125488 314.67106201 -118.94726562 314.38330078 C-147.20572306 308.32791704 -173.38867608 296.16596047 -194.92407227 276.74755859 C-197.36674728 274.51282807 -199.7812948 272.2523672 -202.16308594 269.953125 C-203.00709961 269.14524536 -203.00709961 269.14524536 -203.86816406 268.32104492 C-218.77474105 253.78386695 -229.22470026 235.44958299 -236.16308594 215.953125 C-236.60394531 214.72464844 -237.04480469 213.49617188 -237.49902344 212.23046875 C-244.26485049 192.48498994 -246.39683698 171.8952222 -246.41308594 151.140625 C-246.41376068 150.36444824 -246.41443542 149.58827148 -246.41513062 148.78857422 C-246.37316268 118.32063519 -239.83327276 89.614297 -224.46972656 63.08496094 C-217.69145552 52.02594324 -209.12855197 42.26935262 -200.16308594 32.953125 C-199.5353125 32.2621875 -198.90753906 31.57125 -198.26074219 30.859375 C-180.27243195 11.65085115 -154.61652879 -0.99463688 -129.85058594 -8.859375 C-87.87137428 -21.537695 -39.61025209 -19.17028905 0 0 Z M-111.16308594 64.953125 C-124.5722822 72.513046 -124.5722822 72.513046 -135.16308594 83.953125 C-144.16398235 100.03490256 -144.16398235 100.03490256 -147.16308594 117.953125 C-99.97308594 117.953125 -52.78308594 117.953125 -4.16308594 117.953125 C-5.32589203 102.83664584 -8.01206263 93.76187591 -16.16308594 80.953125 C-26.56239816 70.55381277 -36.47094329 65.21933371 -50.16308594 59.953125 C-72.91718956 55.68673057 -90.3201267 56.83534088 -111.16308594 64.953125 Z " fill="#111d30" transform="translate(642.1630859375,974.046875)"/>
<path d="M0 0 C0.673797 0.07850189 1.34759399 0.15700378 2.04180908 0.23788452 C25.26919616 3.00687945 48.05949126 11.24348897 67.171875 24.79296875 C80.3835256 34.67750954 89.81087772 47.12564809 96.375 62.25 C105.36638073 84.22893067 107.64837242 106.56335841 107.75390625 130.07421875 C107.7701618 132.07022348 107.78734947 134.06622082 107.80540466 136.06221008 C107.85075097 141.29703193 107.88566209 146.53186581 107.91760254 151.76678467 C107.97590127 161.05684801 108.05122339 170.34679991 108.12890625 179.63671875 C108.13723417 180.64347845 108.1455621 181.65023815 108.15414238 182.68750572 C108.4173391 221.16520594 108.4173391 221.16520594 110.6875 259.5625 C110.75025116 260.3215564 110.81300232 261.08061279 110.87765503 261.8626709 C112.4881321 281.34260902 114.18941599 301.1396138 118.375 320.25 C118.375 321.9 118.375 323.55 118.375 325.25 C88.345 325.25 58.315 325.25 27.375 325.25 C17.375 292.25 17.375 292.25 17.375 288.25 C13.81814278 291.75558721 10.41216953 295.35553239 7.0625 299.0625 C6.17949219 300.03832031 5.29648437 301.01414062 4.38671875 302.01953125 C3.72285156 302.75558594 3.05898438 303.49164062 2.375 304.25 C-17.29835447 319.63288887 -37.94244939 327.58283364 -62.625 331.25 C-63.27734619 331.35530029 -63.92969238 331.46060059 -64.60180664 331.5690918 C-72.89233401 332.7194617 -81.33635702 332.35697007 -89.6875 332.3125 C-91.33268093 332.3074758 -92.97786335 332.30291452 -94.62304688 332.29882812 C-101.49607132 332.28004273 -107.930014 332.03229963 -114.71875 330.85546875 C-115.47510742 330.72652222 -116.23146484 330.59757568 -117.01074219 330.46472168 C-136.43413556 327.08240831 -154.09650193 318.41261762 -169.26953125 305.89306641 C-181.02092575 295.7016923 -188.02576847 284.39121042 -194.625 270.25 C-199.32490556 251.45037774 -200.11077297 236.96519978 -197.625 218.25 C-192.18225201 201.92175602 -185.89826962 188.88779296 -173.5 177.1875 C-167.32731478 171.75451673 -160.69587212 167.40273442 -153.625 163.25 C-153.0479834 162.90727051 -152.4709668 162.56454102 -151.87646484 162.21142578 C-118.33106845 142.54363654 -77.86618696 136.10724486 -39.875 130.9375 C-38.52485306 130.7528418 -38.52485306 130.7528418 -37.14743042 130.56445312 C-27.04981261 129.19752317 -16.94284884 128.02804193 -6.796875 127.08203125 C-5.89672668 126.99692795 -4.99657837 126.91182465 -4.06915283 126.82414246 C1.10237156 126.3639768 6.18321174 126.16974957 11.375 126.25 C10.95182792 122.31082583 10.50878319 118.37411737 10.0625 114.4375 C9.94455078 113.33728516 9.82660156 112.23707031 9.70507812 111.10351562 C8.27798629 98.69879431 5.08248811 89.66497622 -0.625 78.25 C-10.23589695 71.04182729 -16.7667961 68.40603707 -28.625 66.25 C-49.94747369 65.87095398 -49.94747369 65.87095398 -69.3125 71.4375 C-70.735625 72.035625 -72.15875 72.63375 -73.625 73.25 C-83.93752486 81.40449262 -83.93752486 81.40449262 -91 91.9375 C-91.66128906 93.24267578 -91.66128906 93.24267578 -92.3359375 94.57421875 C-93.55164268 97.09772799 -94.61760958 99.63737532 -95.625 102.25 C-105.27174326 100.87189382 -114.0085534 97.11393449 -123.15389729 93.78965664 C-126.33355715 92.63388488 -129.51328594 91.47830364 -132.69311523 90.32299805 C-156.99002869 81.49516744 -156.99002869 81.49516744 -168.79296875 77.16015625 C-169.96162224 76.73215981 -169.96162224 76.73215981 -171.15388489 76.29551697 C-176.38918426 74.36790787 -176.38918426 74.36790787 -178.625 73.25 C-177.13981201 69.20698825 -175.19622002 65.63853744 -173 61.9375 C-172.36835937 60.86886719 -171.73671875 59.80023437 -171.0859375 58.69921875 C-168.00852384 53.54002526 -163.19967245 49.2467031 -159.10693359 44.85205078 C-157.93916294 43.58962722 -156.78858404 42.31130043 -155.64453125 41.02734375 C-139.51361066 23.64138586 -115.6969621 12.51968919 -93.43652344 5.56640625 C-63.33671962 -3.26017733 -30.9405863 -3.73808537 0 0 Z M-78.625 202.25 C-88.38899323 208.43359139 -88.38899323 208.43359139 -93.625 215.25 C-98.49157824 225.62139068 -98.49157824 225.62139068 -97.625 239.25 C-94.14717372 248.17849903 -94.14717372 248.17849903 -88.625 254.25 C-77.6671403 261.95584998 -77.6671403 261.95584998 -63.625 265.25 C-46.40499179 265.25 -32.13195318 264.44266255 -16.625 257.25 C-8.68167765 252.62356436 -3.99191941 248.41278434 2.375 241.25 C5.61666852 234.76666296 7.56510354 230.58250663 9.3125 224.125 C9.49490234 223.45984375 9.67730469 222.7946875 9.86523438 222.109375 C11.50234662 216.03717686 12.4736484 210.26043194 12.69140625 203.9765625 C12.73330078 202.82285156 12.77519531 201.66914062 12.81835938 200.48046875 C12.85767578 199.29066406 12.89699219 198.10085938 12.9375 196.875 C13.00227539 195.05548828 13.00227539 195.05548828 13.06835938 193.19921875 C13.17405513 190.21624968 13.27615321 187.23320258 13.375 184.25 C-16.48367604 184.25 -51.07666832 190.63323363 -78.625 202.25 Z " fill="#111d30" transform="translate(956.625,959.75)"/>
<path d="M0 0 C14.25828152 7.60441681 25.12155673 14.67336697 34 28 C36.17549402 31.58662528 38.1262828 35.24756903 40 39 C40.74056641 40.46759766 40.74056641 40.46759766 41.49609375 41.96484375 C44.88110105 49.21843081 47.1717351 56.58098067 49.1875 64.3125 C49.42533203 65.19252686 49.66316406 66.07255371 49.90820312 66.97924805 C56.49371626 93.62797891 55.40471555 121.12867759 55.30418181 148.3534615 C55.28521849 154.36847861 55.28364929 160.38350192 55.28010559 166.39854431 C55.27084214 177.7485716 55.24630689 189.09851049 55.21605712 200.44849914 C55.17600802 215.81421624 55.1600121 231.17995812 55.14255047 246.54571438 C55.1144806 270.69720891 55.05467343 294.84851707 55 319 C22.66 319 -9.68 319 -43 319 C-43.03738281 305.25085937 -43.07476563 291.50171875 -43.11328125 277.3359375 C-43.14357805 268.59504223 -43.17461748 259.8541599 -43.20898438 251.11328125 C-43.26332559 237.25733653 -43.31474445 223.40142768 -43.34643555 209.54541016 C-43.36953721 199.45099644 -43.40306898 189.35667808 -43.44870156 179.26234019 C-43.47247101 173.92623625 -43.49130569 168.5902258 -43.49761391 163.25407028 C-43.50373939 158.21268728 -43.52400182 153.17154297 -43.55427551 148.13024902 C-43.56293797 146.29796646 -43.56680344 144.46565254 -43.56500816 142.63335037 C-43.55306926 124.79630539 -45.33481276 107.99556171 -51 91 C-56.44878132 80.76069042 -56.44878132 80.76069042 -65 74 C-77.01415139 69.63121768 -85.49037024 68.86831969 -98 69 C-113.02066806 72.75516702 -119.66816846 75.0846474 -131 85 C-141.72633229 101.85566503 -146.64121725 119.10296525 -148 139 C-148.16507718 144.88593552 -148.1850515 150.77074817 -148.20532227 156.65869141 C-148.21491579 158.43354513 -148.22492671 160.20839664 -148.23532104 161.98324585 C-148.26221655 166.775875 -148.28330865 171.56851385 -148.30332303 176.36117601 C-148.32527797 181.37934134 -148.35261989 186.39747731 -148.37937927 191.4156189 C-148.42917816 200.906749 -148.47416419 210.3978955 -148.51740164 219.88905752 C-148.57614517 232.72255183 -148.6423628 245.55600747 -148.70815182 258.38946724 C-148.81152608 278.59295205 -148.90494836 298.79647035 -149 319 C-181.34 319 -213.68 319 -247 319 C-247 214.06 -247 109.12 -247 1 C-218.62 1 -190.24 1 -161 1 C-158.69 8.92 -156.38 16.84 -154 25 C-151.52394189 33.00786258 -151.52394189 33.00786258 -149 41 C-148.63390625 40.48953125 -148.2678125 39.9790625 -147.890625 39.453125 C-134.34813251 21.26749223 -116.56222767 8.2726122 -96 -1 C-63.72904544 -10.68498293 -32.08770241 -10.32386947 0 0 Z " fill="#111d30" transform="translate(2073,966)"/>
<path d="M0 0 C1.07894531 0.48855469 2.15789062 0.97710938 3.26953125 1.48046875 C17.85830558 8.37370555 30.6031781 17.61948256 42 29 C42.84949219 29.83789062 43.69898438 30.67578125 44.57421875 31.5390625 C54.36105306 41.70999548 62.26960503 54.11452622 68 67 C67.67 67.99 67.34 68.98 67 70 C66.47779877 70.18855057 65.95559753 70.37710114 65.41757202 70.57136536 C40.25719916 79.65674356 15.10048009 88.75020606 -10 98 C-11.65 97.67 -13.3 97.34 -15 97 C-16.98 93.04 -18.96 89.08 -21 85 C-23.475 82.03 -23.475 82.03 -26 79 C-26 78.34 -26 77.68 -26 77 C-26.56203125 76.73445313 -27.1240625 76.46890625 -27.703125 76.1953125 C-31.67973332 74.12585307 -35.28971067 71.5099016 -39 69 C-50.38880159 64.254666 -61.53942974 60.93429333 -74 62 C-88.65713191 63.93207648 -99.50417703 68.66945136 -112 77 C-121.57009595 87.52710554 -128.07357446 96.86585552 -132.375 110.5625 C-132.61782715 111.31345947 -132.8606543 112.06441895 -133.11083984 112.83813477 C-136.89631992 125.31728248 -137.38132516 138.24648496 -137.3125 151.1875 C-137.30976578 152.26242706 -137.30976578 152.26242706 -137.30697632 153.35906982 C-137.20366695 177.58595713 -133.20104926 195.64816379 -121 217 C-110.53970702 229.63494943 -110.53970702 229.63494943 -96 237 C-92.9371875 237.9590625 -92.9371875 237.9590625 -89.8125 238.9375 C-88.08966797 239.47697266 -88.08966797 239.47697266 -86.33203125 240.02734375 C-76.22852848 242.97666636 -70.0755967 242 -58 242 C-39.87151592 237.46787898 -32.75991268 233.61325329 -19 221 C-17.02 218.36 -15.04 215.72 -13 213 C-5.13390629 215.2728362 2.54708348 217.91728746 10.2421875 220.7109375 C11.49946595 221.16565152 12.75680154 221.6202076 14.01419067 222.07461548 C16.63527478 223.02256531 19.25563513 223.9724818 21.87548828 224.92382812 C25.1975181 226.12996644 28.52135209 227.33104014 31.84576225 228.53059959 C34.43938161 229.46714022 37.03198021 230.40648136 39.62430191 231.34660721 C41.43360548 232.00221024 43.24375148 232.6554869 45.05392456 233.3086853 C52.46034871 236.00315073 59.75264891 238.9030445 67 242 C60.60606863 254.78786274 52.54518525 266.27121619 42 276 C41.23171875 276.78375 40.4634375 277.5675 39.671875 278.375 C36.79930367 281.19717534 33.79831638 283.76110139 30.6875 286.3125 C30.13771484 286.76689453 29.58792969 287.22128906 29.02148438 287.68945312 C8.68362232 304.49029569 -17.89936377 312.92497108 -43.46826172 317.48095703 C-67.20885228 321.17597277 -94.52321169 321.23958539 -118 316 C-118.80195801 315.82307617 -119.60391602 315.64615234 -120.43017578 315.46386719 C-146.82508049 309.44589128 -170.09548348 298.0424039 -190.1875 279.75 C-208.55050779 262.52767822 -221.85320917 239.49391392 -229.26464844 215.51123047 C-240.17585629 178.24938319 -241.8223662 138.47870451 -232.6875 100.625 C-225.58227611 73.25407205 -212.43820518 49.8116758 -192.62890625 29.578125 C-189.70715571 26.71281244 -186.71363712 23.94154216 -183.6875 21.1875 C-183.13771484 20.68541016 -182.58792969 20.18332031 -182.02148438 19.66601562 C-165.28165751 4.38182588 -141.9441793 -5.75858326 -119.97509766 -10.67724609 C-80.39497511 -18.58825173 -37.02025208 -17.5032991 0 0 Z " fill="#111d30" transform="translate(1349,973)"/>
<path d="M0 0 C0.66 0.33 1.32 0.66 2 1 C-4.93 7.93 -11.86 14.86 -19 22 C-19.66 21.67 -20.32 21.34 -21 21 C-18.81898323 18.61897733 -16.62901221 16.24636275 -14.4375 13.875 C-13.82841797 13.20984375 -13.21933594 12.5446875 -12.59179688 11.859375 C-8.62183598 7.57433784 -4.50383106 3.72131215 0 0 Z " fill="#111d30" transform="translate(1498,994)"/>
<path d="M0 0 C0.66 0.33 1.32 0.66 2 1 C-4.6 7.6 -11.2 14.2 -18 21 C-18 20.01 -18 19.02 -18 18 C-6.66287016 5.33029613 -6.66287016 5.33029613 0 0 Z " fill="#111d30" transform="translate(154,981)"/>
<path d="M0 0 C0.66 0.33 1.32 0.66 2 1 C-3.28 6.28 -8.56 11.56 -14 17 C-14.66 16.67 -15.32 16.34 -16 16 C-10.96679794 10.22494276 -5.96260189 4.82082706 0 0 Z " fill="#111d30" transform="translate(789,1132)"/>
<path d="M0 0 C0.66 0.33 1.32 0.66 2 1 C-2.62 5.62 -7.24 10.24 -12 15 C-12.66 14.67 -13.32 14.34 -14 14 C-10.12814498 9.03918575 -5.79125711 5.06361292 -1 1 C-0.67 0.67 -0.34 0.34 0 0 Z " fill="#111d30" transform="translate(1165,994)"/>

</svg>
