<?xml version="1.0" encoding="UTF-8"?>
<svg version="1.1" xmlns="http://www.w3.org/2000/svg" width="1535" height="1000">

<!-- don't do business -->
<!-- solve problems -->

<!-- middle of circle fill -->
<circle r="456" cx="768" cy="500" fill="#111d30" />

<!-- ALL THINGS ORANGE eb7824 -->
<!-- circle outline -->
<circle r="476" cx="768" cy="500" fill="white" fill-opacity="0" stroke="#eb7824" stroke-width="30" />

<!-- main body of circle -->
<path d="M 0 0 C 1.3862 0.1934 2.7725 0.3867 4.2007 0.5859 C 48.9921 6.9756 92.8285 19.1278 134 38 C 135.0575 38.4847 136.115 38.9694 137.2046 39.4688 C 181.1354 59.7781 221.6553 86.0823 257.4604 118.6953 C 259.0661 120.1524 260.6782 121.6024 262.2993 123.0422 C 268.4645 128.5232 274.3686 134.2168 280.1875 140.0625 C 281.0376 140.9088 281.8878 141.755 282.7637 142.627 C 287.7178 147.5887 292.4364 152.6712 297 158 C 297.941 159.0712 298.882 160.1424 299.8516 161.2461 C 307.6375 170.2054 314.8894 179.4986 322 189 C 322.95 190.2594 323.9001 191.5188 324.8789 192.8164 C 369.9046 253.2137 398.7823 324.9934 411 399.125 C 411.3302 401.1184 411.3302 401.1184 411.667 403.1521 C 411.8594 404.3832 412.0518 405.6144 412.25 406.8828 C 412.5052 408.5131 412.5052 408.5131 412.7656 410.1763 C 403.3255 596.0471 391.9304 635.055 375 672 C 374.5206 673.0469 374.0413 674.0938 373.5474 675.1724 C 353.2273 719.169 326.9823 759.6159 294.2656 795.4883 C 292.4522 797.4986 290.6783 799.5445 288.918 801.6016 C 284.1515 806.9526 279.1386 812.007 274.0625 817.0625 C 273.1118 818.0171 272.1611 818.9716 271.1816 819.9551 C 265.9492 825.1803 260.6276 830.1958 255 835 C 253.9288 835.941 252.8576 836.882 251.7539 837.8516 C 242.7946 845.6375 233.5014 852.8894 224 860 C 222.7406 860.95 221.4812 861.9001 220.1836 862.8789 C 155.9782 910.7436 79.1325 940.3444 0 951 C -1.7209 951.2456 -1.7209 951.2456 -3.4766 951.4961 C -42.7324 956.9061 -85.7974 956.7044 -125 951 C -126.3862 950.8066 -127.7725 950.6133 -129.2007 950.4141 C -173.9921 944.0244 -217.8285 931.8722 -259 913 C -260.0575 912.5153 -261.115 912.0306 -262.2046 911.5313 C -306.1356 891.2218 -346.6583 864.9176 -382.4624 832.3027 C -384.0613 830.8519 -385.6668 829.4083 -387.2817 827.9753 C -393.6313 822.3345 -399.6958 816.4553 -405.6875 810.4375 C -406.5853 809.5435 -407.4832 808.6496 -408.4082 807.7285 C -413.4816 802.6476 -418.3285 797.4586 -423 792 C -424.3767 790.4454 -424.3767 790.4454 -425.7813 788.8594 C -434.4218 778.9774 -442.2377 768.5732 -450 758 C -450.8856 756.8063 -451.7712 755.6127 -452.6836 754.3828 C -492.9353 699.2598 -518.8988 635.5203 -533 569 C -533.2773 567.83 -533.5546 566.66 -533.8403 565.4546 C -534.5391 562.1953 -534.5391 562.1953 -535 557 C -540.6094 517.2617 -540.6094 517.2617 -540.75 513.6875 C -540.8351 511.9608 -540.8351 511.9608 -540.9219 510.1992 C -541.0223 504.8004 -541 499.3998 -541 494 C -537.3359 405.0977 -537.3359 405.0977 -536.375 400.0625 C -536.0257 398.1663 -535.6763 396.2701 -535.3164 394.3164 C -534.8796 392.2105 -534.4407 390.1051 -534 388 C -533.5705 385.801 -533.1421 383.6018 -532.7148 381.4023 C -515.9587 297.5495 -476.9553 218.8328 -419.3047 155.5396 C -417.8476 153.9339 -416.3976 152.3218 -414.9578 150.7007 C -409.4768 144.5355 -403.7832 138.6314 -397.9375 132.8125 C -397.0912 131.9624 -396.245 131.1122 -395.373 130.2363 C -390.4113 125.2822 -385.3288 120.5636 -380 116 C -378.9288 115.059 -377.8576 114.118 -376.7539 113.1484 C -367.7946 105.3625 -358.5014 98.1106 -349 91 C -347.7406 90.05 -346.4812 89.0999 -345.1836 88.1211 C -280.932 40.222 -204.1429 10.8116 -125 0 C -123.8469 -0.1652 -122.6939 -0.3303 -121.5059 -0.5005 C -82.2561 -5.9071 -39.1959 -5.7035 0 0 Z M -27.4688 60.2969 C -30.3552 61.0098 -33.2417 61.7221 -36.1284 62.4338 C -40.8305 63.5949 -45.532 64.758 -50.232 65.9272 C -67.1761 70.1339 -84.0824 74.1687 -101.2734 77.2383 C -103.2777 77.6064 -103.2777 77.6064 -105.3224 77.982 C -111.6123 79.1353 -117.8997 80.2204 -124.2207 81.1885 C -135.8179 82.9061 -135.8179 82.9061 -145.1169 89.4651 C -147.2339 93.5914 -148.665 97.5644 -150 102 C -150.9569 104.2171 -151.9411 106.4226 -152.957 108.6133 C -153.9129 110.8446 -154.8646 113.0778 -155.8125 115.3125 C -161.2068 127.8924 -166.705 140.4233 -172.25 152.9375 C -179.1041 168.4159 -185.9034 183.9173 -192.6575 199.4397 C -199.9771 216.2579 -207.3542 233.0508 -214.7339 249.8428 C -218.4914 258.3942 -222.2456 266.9472 -226 275.5 C -227.5 278.9167 -229 282.3333 -230.5 285.75 C -231.6138 288.2869 -231.6138 288.2869 -232.75 290.875 C -235 296 -237.25 301.125 -239.5 306.25 C -240.2433 307.9432 -240.9866 309.6364 -241.7524 311.3809 C -243.244 314.7781 -244.7359 318.1753 -246.228 321.5723 C -249.701 329.4796 -253.1713 337.3881 -256.6307 345.3014 C -257.8442 348.0769 -259.0587 350.852 -260.2734 353.627 C -261.7884 357.0884 -263.3015 360.5505 -264.8125 364.0137 C -271.1369 378.4552 -277.4403 392.7874 -285.5313 406.3398 C -287.1611 408.7854 -287.1611 408.7854 -287 411 C -354.715 538.1872 -357.8445 542.2836 -360.1875 546.5 C -360.7298 547.506 -361.2721 548.5119 -361.8308 549.5483 C -363.5385 552.7075 -365.2683 555.8539 -367 559 C -368.0769 560.981 -369.1524 562.9628 -370.2266 564.9453 C -370.7411 565.8919 -371.2557 566.8385 -371.7859 567.8137 C -372.7995 569.6804 -373.8101 571.5487 -374.8176 573.4187 C -376.8947 577.2528 -379.0054 581.0084 -381.3789 584.668 C -385.2542 590.7729 -386.3558 594.5899 -385.3223 601.825 C -385.115 603.328 -384.9077 604.8311 -384.6941 606.3797 C -384.465 607.9044 -384.236 609.4291 -384 611 C -383.7019 613.0829 -383.7019 613.0829 -383.3977 615.2079 C -382.777 619.4717 -382.1268 623.7301 -381.4688 627.9883 C -381.2322 629.5339 -380.9956 631.0795 -380.7518 632.6719 C -380.2557 635.9098 -379.7581 639.1475 -379.2593 642.385 C -378.4993 647.3168 -377.7434 652.2491 -376.9883 657.1816 C -376.5028 660.3464 -376.0172 663.5111 -375.5313 666.6758 C -375.3072 668.1354 -375.0832 669.5951 -374.8524 671.099 C -374.4329 673.8202 -373.987 676.5375 -373.51 679.2492 C -373 683 -373 683 -373.1365 686.6803 C -373.3801 690.4136 -373.3801 690.4136 -371 695 C -365.1387 696.2547 -359.4111 695.6836 -353.4664 695.2329 C -348.4785 694.8977 -343.4924 694.8053 -338.4951 694.6955 C -334.0606 694.5966 -329.6275 694.4705 -325.1938 694.3391 C -200.2247 690.6973 -75.3665 691.0032 49.6412 692.1724 C 64.7005 692.313 79.7597 692.4449 94.8194 692.5507 C 100.5752 692.5923 106.3311 692.6348 112.0869 692.6777 C 113.4834 692.6879 114.8798 692.6981 116.3186 692.7085 C 133.6624 692.839 150.9962 693.1033 168.3351 693.5353 C 176.6421 693.7405 184.9498 693.8886 193.2583 694.0179 C 199.7121 694.1231 206.1576 694.3038 212.6077 694.5462 C 217.3635 694.7023 222.1205 694.7435 226.8784 694.8018 C 228.5639 694.8907 230.2493 694.9796 231.9859 695.0712 C 236.6455 695.0632 239.7973 695.0309 244 693 C 247.1004 687.2052 248.0746 681.456 249 675 C 249.472 673.2034 249.9441 671.4069 250.4304 669.5559 C 253.5014 656.9479 255.7945 644.3049 257.7952 631.4929 C 258.3193 628.1438 258.8591 624.7975 259.4004 621.4512 C 259.7431 619.2944 260.0849 617.1375 260.4258 614.9805 C 260.7291 613.0613 261.0324 611.1421 261.345 609.1648 C 262.4006 600.8413 262.4406 595.8337 258.4844 588.3359 C 257.7341 586.8961 256.9839 585.4562 256.2109 583.9727 C 254.9928 581.6968 254.9928 581.6968 253.75 579.375 C 252.9224 577.7985 252.0948 576.222 251.2422 574.5977 C 246.0114 564.6657 240.6552 554.8055 235.2266 544.9805 C 229.9398 535.2893 224.9809 525.4209 219.9648 515.5879 C 219.2211 514.1319 218.4773 512.6759 217.7109 511.1758 C 216.7101 509.2099 216.7101 509.2099 215.689 507.2043 C 214.0547 503.9707 214.0547 503.9707 212 501 C 151.5489 384.6669 149.295 380.5931 146.9375 376.375 C 143.2731 369.4262 139.6305 362.4665 136 355.5 C 132.3479 348.4923 128.6844 341.4909 125 334.5 C 118.7824 322.7004 112.6228 310.8707 106.459 299.043 C 100.5166 287.6414 94.5571 276.2493 88.5625 264.875 C 85.178 258.4362 81.8142 251.9866 78.4565 245.5337 C 76.16 241.1234 73.8513 236.7216 71.5078 232.3359 C 60.962 212.5928 51.4854 192.3149 42.0996 172.0007 C 37.678 162.4354 33.1923 152.9014 28.6875 143.375 C 27.9713 141.8603 27.2552 140.3455 26.5173 138.7849 C 25.0648 135.713 23.6123 132.6412 22.1597 129.5693 C 13.065 110.3272 3.9981 91.0726 -4.9287 71.752 C -5.6698 70.15 -5.6698 70.15 -6.4258 68.5156 C -6.8529 67.5904 -7.2799 66.6652 -7.72 65.7119 C -8.3536 64.3695 -8.3536 64.3695 -9 63 C -9.5068 61.8962 -10.0137 60.7925 -10.5359 59.6553 C -11.019 58.779 -11.5022 57.9028 -12 57 C -17.1275 57 -22.4884 59.0536 -27.4688 60.2969 Z Z Z Z M 110.8047 744.2227 C 2.4314 744.9734 -105.9367 745.0869 -214.3125 745.0625 C -217.2143 745.0619 -217.2143 745.0619 -220.1747 745.0612 C -270.4498 745.05 -320.7249 745.0296 -371 745 C -370.7377 751.4048 -370.4711 757.8094 -370.2004 764.2139 C -370.1091 766.3902 -370.0189 768.5667 -369.9299 770.7432 C -369.8015 773.881 -369.6687 777.0186 -369.5352 780.1563 C -369.4566 782.0415 -369.3781 783.9268 -369.2971 785.8691 C -369.041 790.2912 -368.6157 794.6157 -368 799 C -347.2292 799.0339 -326.4637 798.9486 -305.6941 798.7246 C -302.8232 798.6949 -299.9523 798.6654 -297.0815 798.6359 C -290.9685 798.573 -284.8555 798.5091 -278.7426 798.4444 C -269.029 798.3417 -259.3154 798.2416 -249.6018 798.142 C -225.4774 797.8941 -201.3531 797.6429 -177.2288 797.3907 C -158.458 797.1945 -139.6871 796.9993 -120.9162 796.8071 C -112.863 796.7246 -104.8098 796.6412 -96.7567 796.5556 C -47.2872 796.0305 2.145 795.8585 51.6134 796.6058 C 57.396 796.6924 63.1786 796.775 68.9612 796.858 C 79.8618 797.0151 90.7623 797.1749 101.6628 797.3361 C 121.2021 797.6251 140.7414 797.9108 160.2808 798.1929 C 167.1044 798.2916 173.928 798.392 180.7516 798.494 C 185.0082 798.5573 189.2649 798.6192 193.5216 798.6808 C 196.3807 798.7226 199.2397 798.7661 202.0987 798.8096 C 215.0671 798.9954 228.0306 799.0294 241 799 C 242.6538 788.7348 243.9491 778.4552 245.125 768.125 C 245.3068 766.573 245.4885 765.0209 245.6758 763.4219 C 245.8472 761.924 246.0187 760.4261 246.1953 758.8828 C 246.3502 757.5359 246.505 756.189 246.6646 754.8013 C 246.9846 751.1749 247.0234 747.6377 247 744 C 201.6008 743.8832 156.203 743.9027 110.8047 744.2227 Z" fill="#eb7824" transform="translate(830,24)"/>

<!-- middle triangle inside delta -->
<polygon points="752,254 938,606 590,607" fill="#eb7824" />


<!-- ALL THINGS BLUE 111d30 -->
<!-- letter d -->
<path stroke="#111d30" stroke-width="2" d="M0 0 C15.18 0 30.36 0 46 0 C46.01981934 4.76719482 46.03963867 9.53438965 46.06005859 14.44604492 C46.12719591 30.25985069 46.20483118 46.07359266 46.28752708 61.88732433 C46.33730936 71.46791851 46.38364015 81.04850262 46.421875 90.62915039 C46.45895703 99.88824662 46.50537725 109.14725468 46.55806351 118.4062748 C46.57648634 121.92520908 46.59163811 125.44416218 46.60334396 128.96312523 C46.68134503 151.61651644 47.55034207 173.57722345 51 196 C44.82710766 196.42055898 38.65973441 196.72868924 32.47583008 196.93383789 C30.37441952 197.01930855 28.27402008 197.13533182 26.17602539 197.2824707 C19.4995205 197.73894336 13.42767507 197.98716351 7 196 C3.47279686 190.57643633 2.53671594 185.38763982 2 179 C1.030625 179.845625 0.06125 180.69125 -0.9375 181.5625 C-2.278125 182.696875 -3.61875 183.83125 -5 185 C-6.381875 186.175625 -7.76375 187.35125 -9.1875 188.5625 C-23.76001903 198.97144217 -41.37388461 201.42148135 -58.8125 197.875 C-70.21776994 194.80325647 -78.7462198 189.35154071 -87 181 C-88.381875 179.618125 -89.76375 178.23625 -91.1875 176.8125 C-109.04271115 156.03552702 -109.3170184 125.36614903 -106.38671875 99.609375 C-102.10154326 79.44828501 -91.11607915 62.10280786 -73 52 C-54.1159481 43.82017234 -34.97945217 43.47625565 -16.3125 52.1875 C-10.6580054 55.87521387 -5.76866739 60.23133261 -1 65 C-0.67 43.55 -0.34 22.1 0 0 Z M-53 93 C-60.93638773 106.50874507 -62.57223992 122.91724281 -58.875 138.1875 C-54.81331245 148.61249805 -49.52756653 156.50308936 -39.5 161.875 C-30.02046728 164.92199266 -22.32793136 163.93617982 -13.25 159.875 C-4.32761313 153.83926771 -0.56145531 145.24582125 2 135 C2.7521551 117.83606716 3.34869158 103.13233291 -8 89 C-22.74388092 77.41552213 -40.69899577 78.59520229 -53 93 Z " fill="#fff" transform="translate(129,385)"/>

<!-- letter e -->
<path stroke="#111d30" stroke-width="2" d="M0 0 C12.57313145 14.58386345 18.02524221 34.17520005 17.90234375 53.1015625 C17.89332031 54.90367187 17.88429688 56.70578125 17.875 58.5625 C17.85759766 60.62371094 17.85759766 60.62371094 17.83984375 62.7265625 C-17.83115984 63.43010307 -53.48183614 63.88972938 -89.16015625 63.7265625 C-88.38493629 65.80255291 -87.60384717 67.87635223 -86.8203125 69.94921875 C-86.385979 71.10429932 -85.95164551 72.25937988 -85.50415039 73.44946289 C-81.55059077 83.08954114 -75.45470371 86.98544242 -66.16015625 90.7265625 C-55.35882603 93.42689506 -44.39809204 91.86892833 -34.16015625 87.7265625 C-32.92265625 86.7571875 -31.68515625 85.7878125 -30.41015625 84.7890625 C-27.16015625 82.7265625 -27.16015625 82.7265625 -22.77734375 83.8046875 C-16.50742817 85.9498881 -10.26103793 88.14451145 -4.03515625 90.4140625 C-2.88789063 90.82978516 -1.740625 91.24550781 -0.55859375 91.67382812 C2.241773 92.68896107 5.04093455 93.7074177 7.83984375 94.7265625 C2.44088632 108.22395607 -10.43779343 115.90186627 -23.16015625 121.7265625 C-24.10117187 122.17128906 -25.0421875 122.61601563 -26.01171875 123.07421875 C-47.67635861 132.48051175 -74.05092872 129.83894488 -95.23828125 120.34765625 C-115.87013245 109.77239174 -127.33098564 92.71843344 -133.16015625 70.7265625 C-137.75595944 47.74754654 -134.37261463 22.74578718 -119.9921875 3.8828125 C-117.80904794 1.37896395 -115.53844058 -0.95510992 -113.16015625 -3.2734375 C-112.42410156 -4.04171875 -111.68804687 -4.81 -110.9296875 -5.6015625 C-79.95891613 -36.10543781 -28.34444667 -29.83086431 0 0 Z M-83.41015625 20.9140625 C-86.19721529 25.39326454 -89.16015625 31.4242618 -89.16015625 36.7265625 C-67.71015625 36.7265625 -46.26015625 36.7265625 -24.16015625 36.7265625 C-24.16015625 28.09632988 -25.88551997 21.83607677 -32.16015625 15.7265625 C-50.00510817 5.49545674 -68.45000339 6.36946944 -83.41015625 20.9140625 Z " fill="#fff" transform="translate(330.16015625,455.2734375)"/>

<!-- letter l -->
<path stroke="#111d30" stroke-width="2" d="M0 0 C14.85 0 29.7 0 45 0 C45.01458252 4.44670166 45.02916504 8.89340332 45.04418945 13.47485352 C45.09450409 28.15921466 45.1610938 42.84346942 45.23571491 57.52772617 C45.28046108 66.43164225 45.31970817 75.33551211 45.34643555 84.23950195 C45.37242564 92.83073776 45.41279842 101.42179614 45.46318626 110.01292229 C45.4798839 113.29222343 45.49138007 116.57155529 45.49761391 119.85089302 C45.50722299 124.44057993 45.5352464 129.02980992 45.56762695 133.61938477 C45.56619186 134.97812714 45.56475677 136.33686951 45.5632782 137.73678589 C45.60936253 146.75052451 45.60936253 146.75052451 49 155 C54.64987969 158.56331814 60.38549057 158.48402145 66.9375 158.6875 C70.258125 158.790625 73.57875 158.89375 77 159 C77 170.88 77 182.76 77 195 C70.68650656 195.06932262 64.3743635 195.12891963 58.06079102 195.16479492 C55.91849259 195.17976927 53.77622421 195.20015595 51.6340332 195.22631836 C18.37526163 195.62197904 18.37526163 195.62197904 6.625 183.5625 C-0.63936834 172.10714992 -0.29108041 158.87142269 -0.22705078 145.76660156 C-0.22734283 144.18477081 -0.22763489 142.60294006 -0.22793579 140.97317505 C-0.22654978 135.77893462 -0.21102259 130.58484017 -0.1953125 125.390625 C-0.19157979 121.7756966 -0.18873404 118.16076718 -0.18673706 114.5458374 C-0.17912097 105.05685608 -0.15948977 95.56793651 -0.1373291 86.07897949 C-0.11682709 76.38599482 -0.10772603 66.69300013 -0.09765625 57 C-0.07624204 37.99996858 -0.0410763 18.9999991 0 0 Z " fill="#fff" transform="translate(368,385)"/>

<!-- letter t 1st -->
<path stroke="#111d30" stroke-width="2" d="M0 0 C14.52 0 29.04 0 44 0 C44 11.88 44 23.76 44 36 C54.56 36 65.12 36 76 36 C76 47.55 76 59.1 76 71 C63.25 71.0625 63.25 71.0625 59.24707031 71.02758789 C58.20131836 71.05071045 57.15556641 71.07383301 56.078125 71.09765625 C55.00981445 71.10289307 53.94150391 71.10812988 52.84082031 71.11352539 C49.74760418 71.80250621 49.74760418 71.80250621 47.65112305 74.74536133 C45.42082741 80.49242064 45.44681885 85.90400851 45.50390625 91.9765625 C45.5017234 93.84167984 45.5017234 93.84167984 45.49949646 95.74447632 C45.50115222 98.36515656 45.51267698 100.98584686 45.53344727 103.60644531 C45.56245126 107.61825783 45.55403799 111.62875226 45.54101562 115.640625 C45.54725185 118.19011059 45.55564188 120.73959201 45.56640625 123.2890625 C45.56347061 124.48810211 45.56053497 125.68714172 45.55751038 126.92251587 C45.62487256 132.86103098 45.87569214 135.79282024 49 141 C54.5648748 143.22594992 59.4274862 143.44360523 65.3125 143.625 C68.839375 143.74875 72.36625 143.8725 76 144 C76 156.54 76 169.08 76 182 C19.39487989 182.26450991 19.39487989 182.26450991 7 172 C0.8953776 164.07697943 -0.25629162 155.98583952 -0.22705078 146.17553711 C-0.22689972 144.47445297 -0.22674866 142.77336884 -0.22659302 141.02073669 C-0.21110916 138.30150719 -0.21110916 138.30150719 -0.1953125 135.52734375 C-0.1924826 133.65341446 -0.18965271 131.77948517 -0.18673706 129.84877014 C-0.1774618 124.89220392 -0.15952427 119.93577003 -0.1373291 114.97924805 C-0.11678726 109.91131197 -0.10771758 104.84335643 -0.09765625 99.77539062 C-0.07563453 89.85020232 -0.04112403 79.9251268 0 70 C-7.92 70 -15.84 70 -24 70 C-24 58.78 -24 47.56 -24 36 C-16.08 36 -8.16 36 0 36 C0 24.12 0 12.24 0 0 Z " fill="#fff" transform="translate(474,399)"/>

<!-- letter a -->
<path stroke="#111d30" stroke-width="2" d="M0 0 C9.07852725 12.75316923 12.06784076 25.53073582 12.03125 40.9609375 C12.04208618 42.31933746 12.05292236 43.67773743 12.06408691 45.07730103 C12.09814407 49.40574856 12.11386886 53.73393674 12.125 58.0625 C12.17766576 78.0892286 12.8665296 97.70996938 15.26928711 117.60284424 C15.80987482 122.29068951 16.21905127 126.98624105 16.625 131.6875 C9.8978661 132.12212697 3.17430117 132.38913334 -3.5625 132.625 C-5.47611328 132.75068359 -7.38972656 132.87636719 -9.36132812 133.00585938 C-14.75347294 133.14800731 -19.1895321 133.19826441 -24.375 131.6875 C-27.66769777 126.90777744 -28.40809792 122.32246812 -29.375 116.6875 C-31.95878078 116.44338809 -31.95878078 116.44338809 -34.6875 120.25 C-47.07886101 132.86503178 -65.17414007 136.41137567 -82.29296875 135.47265625 C-98.89966322 133.80404102 -112.03823219 128.3897271 -122.375 114.6875 C-128.68161335 103.65092665 -129.89216068 92.76758318 -127.25 80.4375 C-120.79681455 64.08943019 -108.42610914 56.24464211 -92.65625 50.28125 C-75.52842435 44.57197478 -56.06512067 40.39577309 -37.9375 40.8125 C-36.761875 40.77125 -35.58625 40.73 -34.375 40.6875 C-32.53153825 33.31365301 -33.28252853 27.67050009 -36.375 20.6875 C-42.76864963 14.67746935 -50.74972705 12.93089711 -59.375 13.6875 C-68.40434468 15.91696782 -73.67310045 17.40081552 -78.04296875 25.83984375 C-78.81253906 27.43957031 -79.58210937 29.03929687 -80.375 30.6875 C-93.53762177 26.39794419 -106.61437048 22.08622788 -119.375 16.6875 C-112.42139507 0.75215538 -97.69457957 -9.53850197 -81.37109375 -14.5390625 C-53.14618508 -21.86541601 -21.69358402 -21.29185098 0 0 Z M-79.375 80.6875 C-81.65931808 85.25613615 -81.83377066 87.64102279 -81.375 92.6875 C-78.2866064 98.86428721 -74.0285619 102.02410952 -67.375 103.6875 C-57.85025542 104.26408524 -48.24548052 104.80035022 -40.5625 98.3125 C-39.840625 97.44625 -39.11875 96.58 -38.375 95.6875 C-37.67375 94.98625 -36.9725 94.285 -36.25 93.5625 C-31.04297155 85.5783897 -31.05090158 76.87028843 -31.375 67.6875 C-47.16299066 67.25208044 -67.18085817 69.66547635 -79.375 80.6875 Z " fill="#fff" transform="translate(689.375,448.3125)"/>

<!-- letter s -->
<path stroke="#111d30" stroke-width="2" d="M0 0 C10.375 10.09459459 10.375 10.09459459 10.375 15.5625 C7.74928966 16.74163844 5.07005438 17.80185461 2.375 18.8125 C0.74304688 19.42609375 -0.88890625 20.0396875 -2.5703125 20.671875 C-4.23835937 21.29578125 -5.90640625 21.9196875 -7.625 22.5625 C-9.91050781 23.46742188 -9.91050781 23.46742188 -12.2421875 24.390625 C-14.34980469 25.21820312 -14.34980469 25.21820312 -16.5 26.0625 C-17.77617188 26.5678125 -19.05234375 27.073125 -20.3671875 27.59375 C-23.625 28.5625 -23.625 28.5625 -27.625 27.5625 C-28.140625 26.634375 -28.65625 25.70625 -29.1875 24.75 C-33.80183544 18.71586904 -42.75483745 16.78462854 -50.1640625 16.359375 C-64.68591687 16.11985888 -64.68591687 16.11985888 -76.625 23.5625 C-76.86753563 29.27954177 -76.86753563 29.27954177 -75.625 33.5625 C-71.37964362 35.28362203 -71.37964362 35.28362203 -66.625 36.5625 C-65.70928223 36.89032471 -64.79356445 37.21814941 -63.85009766 37.5559082 C-59.99622407 38.75874854 -56.19688551 39.3992523 -52.2109375 40.04296875 C1.15924727 48.94149636 1.15924727 48.94149636 14.375 66.5625 C20.15165726 77.07897859 20.27554532 89.4212169 16.25 100.625 C8.10898103 118.98802875 -7.12843101 127.83196841 -25.59375 133.46875 C-52.1221637 140.1628357 -83.29756713 136.6526488 -106.16015625 121.3671875 C-113.83517262 115.74776188 -120.5786568 107.7015296 -123.625 98.5625 C-115.89507585 95.2198301 -108.07278602 92.14399599 -100.1875 89.1875 C-98.74866455 88.63255859 -98.74866455 88.63255859 -97.28076172 88.06640625 C-92.33847304 86.23792456 -89.91025931 85.50544814 -84.625 86.5625 C-84.068125 87.614375 -83.51125 88.66625 -82.9375 89.75 C-78.97936323 96.27557684 -71.92235123 99.74441707 -64.625 101.5625 C-60.6554279 101.7788178 -56.7799719 101.88713294 -52.8125 101.875 C-51.77029297 101.89111328 -50.72808594 101.90722656 -49.65429688 101.92382812 C-41.34854873 101.92904203 -34.99894083 100.24947042 -27.625 96.5625 C-25.1777864 92.4134288 -25.1777864 92.4134288 -25.625 86.5625 C-35.50675174 76.68074826 -52.74242799 76.47918067 -65.94140625 74.3828125 C-84.58045798 71.24482717 -105.24258126 65.86653123 -115.625 48.5625 C-121.17465266 38.63154261 -121.81688097 25.70112602 -118.484375 14.84765625 C-110.71308149 -1.36980625 -96.19012685 -9.87092538 -79.4375 -14.75 C-52.91356931 -20.58335998 -21.30038605 -18.23925273 0 0 Z " fill="#fff" transform="translate(845.625,447.4375)"/>

<!-- letter t 2nd -->
<path stroke="#111d30" stroke-width="2" d="M0 0 C15.18 0 30.36 0 46 0 C46 11.88 46 23.76 46 36 C56.23 36 66.46 36 77 36 C77 47.55 77 59.1 77 71 C66.77 71 56.54 71 46 71 C46.07393928 80.16592117 46.15672346 89.33085597 46.26245117 98.49633789 C46.295721 101.61477566 46.32374641 104.73327394 46.34643555 107.85180664 C46.3799424 112.33245655 46.43225933 116.81255082 46.48828125 121.29296875 C46.49467117 122.68895798 46.5010611 124.0849472 46.50764465 125.52323914 C46.52743881 126.82421036 46.54723297 128.12518158 46.56762695 129.46557617 C46.57873001 130.60919113 46.58983307 131.75280609 46.60127258 132.93107605 C46.85984137 136.52144228 46.85984137 136.52144228 50 141 C55.5648748 143.22594992 60.4274862 143.44360523 66.3125 143.625 C69.839375 143.74875 73.36625 143.8725 77 144 C77 156.54 77 169.08 77 182 C18.08967245 182.2752819 18.08967245 182.2752819 6.125 168.75 C1.44067618 160.48354619 0.49734745 152.09042772 0.3125 142.75 C0.26234741 140.91284424 0.26234741 140.91284424 0.21118164 139.03857422 C-0.30544308 116.36881307 -0.07409717 93.67373272 0 71 C-7.92 71 -15.84 71 -24 71 C-24 59.45 -24 47.9 -24 36 C-16.08 36 -8.16 36 0 36 C0 24.12 0 12.24 0 0 Z " fill="#fff" transform="translate(899,399)"/>

<!-- letter r -->
<path stroke="#111d30" stroke-width="2" d="M0 0 C0 14.52 0 29.04 0 44 C-6.27 44.33 -12.54 44.66 -19 45 C-27.19769172 46.45566488 -32.99538107 48.10260641 -39 54 C-42.96951221 62.14258916 -44.10665236 69.08822826 -44.20532227 78.02490234 C-44.22526749 79.62610931 -44.24521271 81.22731628 -44.26576233 82.87704468 C-44.29083107 85.45544662 -44.29083107 85.45544662 -44.31640625 88.0859375 C-44.33718735 89.85313141 -44.35796844 91.62032532 -44.37937927 93.44107056 C-44.44475892 99.08567419 -44.50370629 104.7303243 -44.5625 110.375 C-44.6056962 114.20182772 -44.64931085 118.02865074 -44.69335938 121.85546875 C-44.80121568 131.23693222 -44.90037647 140.61843102 -45 150 C-59.85 150 -74.7 150 -90 150 C-90 101.82 -90 53.64 -90 4 C-78.12 4 -66.24 4 -54 4 C-47.61623638 16.83767849 -47.61623638 16.83767849 -47.36328125 21.87109375 C-47.58930862 26.6291515 -47.58930862 26.6291515 -46 28 C-44.7315625 25.525 -44.7315625 25.525 -43.4375 23 C-33.56244434 5.06837213 -19.8627794 0 0 0 Z " fill="#fff" transform="translate(1086,431)"/>

<!-- letter i main body -->
<path stroke="#111d30" stroke-width="2" d="M0 0 C23.76 0 47.52 0 72 0 C72 47.85 72 95.7 72 145 C57.15 145 42.3 145 27 145 C27 108.37 27 71.74 27 34 C18.09 34 9.18 34 0 34 C0 22.78 0 11.56 0 0 Z " fill="#fff" transform="translate(1102,435)"/>

<!-- letter i dot -->
<circle stroke="#111d30" stroke-width="2" r="26" cx="1152" cy="384" fill="#fff" />

<!-- letter n -->
<path stroke="#111d30" stroke-width="2" d="M0 0 C1.3303125 0.86625 1.3303125 0.86625 2.6875 1.75 C16.77514667 15.45689947 18.13746995 35.7357324 18.11352539 54.24487305 C18.11344986 56.2060759 18.11337433 58.16727875 18.11329651 60.18791199 C18.10819153 62.29584784 18.10297556 64.40378343 18.09765625 66.51171875 C18.09578849 68.69318102 18.09436628 70.87464372 18.09336853 73.05610657 C18.0895715 78.76554547 18.07976558 84.47495846 18.06866455 90.18438721 C18.05657938 97.05199397 18.05203478 103.91960944 18.04621124 110.78722382 C18.03655206 121.1915005 18.01737586 131.59572047 18 142 C2.82 142 -12.36 142 -28 142 C-28.02578125 135.19761719 -28.0515625 128.39523437 -28.078125 121.38671875 C-28.1033093 117.06181195 -28.12965448 112.73697398 -28.16015625 108.41210938 C-28.2083963 101.55655713 -28.25247677 94.70116434 -28.27099609 87.84545898 C-28.2862069 82.31447813 -28.32073118 76.78391611 -28.36830902 71.25312233 C-28.38307721 69.14939845 -28.39103838 67.04561476 -28.39188385 64.94183922 C-27.83420662 47.01683376 -27.83420662 47.01683376 -36.0625 31.875 C-42.25264123 27.92384602 -48.86888352 28.34479058 -56 29 C-63.72626366 31.77798244 -67.49452745 34.56414913 -71 42 C-75.34568797 55.19226705 -75.1771476 68.39307696 -75.31640625 82.13671875 C-75.33718735 83.85244583 -75.35796844 85.56817291 -75.37937927 87.33589172 C-75.44447036 92.78638927 -75.50357105 98.2369327 -75.5625 103.6875 C-75.6057237 107.39518693 -75.64933919 111.10286932 -75.69335938 114.81054688 C-75.80084305 123.87365168 -75.90021769 132.93679407 -76 142 C-90.85 142 -105.7 142 -121 142 C-121 94.15 -121 46.3 -121 -3 C-107.8 -3 -94.6 -3 -81 -3 C-78.525 4.425 -78.525 4.425 -76 12 C-75.01 11.13375 -74.02 10.2675 -73 9.375 C-52.68361562 -7.76694932 -23.89874742 -15.80401039 0 0 Z " fill="#fff" transform="translate(1322,438)"/>

<!-- letter g -->
<path stroke="#111d30" stroke-width="2" d="M0 0 C1.0828125 1.4540625 1.0828125 1.4540625 2.1875 2.9375 C4.43224431 0.0712388 4.43224431 0.0712388 4.54589844 -3.38720703 C5.11352098 -7.70191291 5.72999499 -10.44520894 8.1875 -14.0625 C14.92940238 -15.95572966 21.5018329 -15.37157545 28.4375 -14.9375 C31.27214844 -14.84275391 31.27214844 -14.84275391 34.1640625 -14.74609375 C38.84469405 -14.58061688 43.51305233 -14.35030429 48.1875 -14.0625 C48.2339441 4.19292908 48.2694305 22.44834398 48.29112434 40.70382023 C48.30153893 49.18155576 48.31565567 57.65925071 48.33837891 66.13696289 C48.36019015 74.32614475 48.3720861 82.5152877 48.37725449 90.70449638 C48.38093539 93.82091318 48.38812311 96.93732797 48.39896011 100.0537281 C48.41358498 104.43568567 48.41547334 108.81748465 48.41455078 113.19946289 C48.42174133 114.47333862 48.42893188 115.74721436 48.43634033 117.05969238 C48.38376623 140.30177821 43.66787024 161.42174687 25.1875 176.9375 C3.76573831 192.39581637 -26.20774459 194.02672891 -51.26171875 188.125 C-68.28691945 183.28944004 -81.65368479 173.20219201 -90.8125 157.9375 C-90.8125 156.9475 -90.8125 155.9575 -90.8125 154.9375 C-87.6472168 153.38769531 -87.6472168 153.38769531 -83.26171875 151.765625 C-81.69615234 151.18425781 -80.13058594 150.60289062 -78.51757812 150.00390625 C-76.86177734 149.40449219 -75.20597656 148.80507813 -73.5 148.1875 C-71.85580078 147.57261719 -70.21160156 146.95773437 -68.51757812 146.32421875 C-56.20922446 141.80525851 -56.20922446 141.80525851 -52.8125 142.9375 C-51.966875 144.030625 -51.12125 145.12375 -50.25 146.25 C-42.75072232 154.2946797 -32.3327211 155.42681261 -21.8125 154.9375 C-12.99980572 153.0216969 -5.77792145 150.81368575 -0.8125 142.9375 C2.26231887 134.68798595 2.55575781 127.47033542 2.375 118.8125 C2.36146484 117.56984375 2.34792969 116.3271875 2.33398438 115.046875 C2.29894612 112.01022624 2.24515133 108.97380363 2.1875 105.9375 C1.59437012 106.54875732 1.00124023 107.16001465 0.39013672 107.78979492 C-0.79684814 108.99792847 -0.79684814 108.99792847 -2.0078125 110.23046875 C-3.17594482 111.42579224 -3.17594482 111.42579224 -4.36767578 112.64526367 C-17.52659289 124.98289826 -34.610586 126.90298292 -51.8125 125.9375 C-69.50144312 122.8936799 -84.51887633 112.67405801 -94.2890625 97.58984375 C-102.28778366 83.66386511 -105.34081505 70.50438736 -105.1875 54.5 C-105.19910156 53.29279297 -105.21070313 52.08558594 -105.22265625 50.84179688 C-105.15693256 30.36886617 -98.51267747 10.63767747 -83.8125 -4.0625 C-58.73496947 -24.78023732 -22.63441516 -24.11863911 0 0 Z M-51.8125 28.9375 C-59.5586167 40.88865149 -59.3905842 54.95940766 -56.6875 68.625 C-52.16454385 79.02779915 -46.60671448 85.73716539 -35.875 89.8125 C-25.51619109 92.11445754 -16.42968281 90.97630381 -7 85.875 C4.35560513 75.41003057 4.75868846 63.02730107 4.4921875 48.57421875 C3.8747105 37.15089428 0.58138867 29.72313587 -7.8125 21.9375 C-23.25489803 13.70155438 -40.0367932 15.61235809 -51.8125 28.9375 Z " fill="#fff" transform="translate(1465.8125,449.0625)"/>

</svg>

