<?xml version="1.0" standalone="no"?>
<!DOCTYPE svg PUBLIC "-//W3C//DTD SVG 20010904//EN"
 "http://www.w3.org/TR/2001/REC-SVG-20010904/DTD/svg10.dtd">
<svg version="1.0" xmlns="http://www.w3.org/2000/svg"
 width="384.000000pt" height="356.000000pt" viewBox="0 0 384.000000 356.000000"
 preserveAspectRatio="xMidYMid meet">
<metadata>
Created by potrace 1.16, written by Peter Selinger 2001-2019
</metadata>
<g transform="translate(0.000000,356.000000) scale(0.100000,-0.100000)"
fill="#000000" stroke="none">
<path d="M1250 3528 c-25 -5 -81 -10 -125 -11 -58 -2 -87 -7 -105 -19 -17 -13
-43 -18 -86 -18 -76 0 -158 -29 -212 -75 -21 -18 -59 -43 -85 -55 -26 -12 -47
-26 -47 -31 0 -4 -19 -20 -43 -33 -24 -14 -54 -37 -67 -52 -14 -14 -45 -37
-70 -50 -47 -27 -113 -102 -166 -190 -17 -28 -53 -78 -81 -111 -42 -50 -51
-69 -56 -113 -4 -29 -16 -71 -27 -94 -28 -56 -57 -274 -53 -401 1 -55 9 -188
16 -295 12 -157 18 -204 34 -235 12 -22 30 -77 41 -121 20 -79 71 -196 91
-209 6 -3 22 -29 36 -58 32 -63 108 -147 149 -166 17 -7 67 -30 111 -51 80
-38 153 -60 201 -60 14 0 37 -9 51 -20 14 -11 41 -20 59 -20 27 0 34 -4 34
-20 0 -28 44 -159 69 -205 12 -22 21 -44 21 -49 0 -4 15 -29 34 -55 18 -25 41
-62 51 -81 9 -19 30 -48 46 -65 17 -16 48 -52 71 -80 22 -27 53 -57 68 -65 16
-8 45 -30 66 -47 76 -63 114 -90 146 -104 18 -7 39 -19 48 -27 48 -43 147 -95
194 -101 28 -4 69 -17 91 -28 37 -19 121 -42 230 -62 22 -4 49 -12 60 -17 12
-6 127 -9 280 -8 236 1 266 3 324 23 35 11 71 21 80 21 9 0 30 8 47 19 16 10
59 28 95 41 35 12 80 32 99 45 19 13 52 28 72 34 20 7 53 25 74 42 20 16 44
29 52 29 9 0 32 15 51 34 70 67 113 106 117 106 12 0 68 71 90 115 15 28 43
70 63 95 41 51 165 271 175 311 3 14 17 38 31 53 14 15 25 37 25 50 0 13 7 42
15 65 8 22 12 41 9 41 -2 0 3 16 11 36 8 20 15 57 15 83 0 25 5 62 11 81 16
54 30 310 19 345 -5 17 -12 64 -14 105 -5 77 -13 117 -27 135 -4 6 -10 28 -12
50 -2 22 -19 74 -36 117 -17 42 -31 85 -31 96 0 10 -24 52 -54 92 -30 41 -62
99 -72 129 -15 43 -34 70 -85 121 -36 36 -77 85 -92 110 -25 44 -201 208 -237
222 -10 4 -21 11 -25 17 -3 6 -19 11 -35 11 -16 0 -32 5 -35 10 -9 15 -44 2
-74 -27 -39 -37 -68 -46 -151 -50 -41 -1 -117 -5 -167 -8 -61 -4 -93 -3 -93 4
0 5 -21 25 -47 42 -27 18 -50 37 -52 43 -8 19 -222 223 -249 237 -15 7 -54 32
-87 54 -33 23 -89 56 -125 75 -36 18 -92 51 -126 72 -34 21 -68 38 -76 38 -9
0 -29 7 -44 15 -16 8 -36 15 -45 15 -16 0 -42 9 -124 45 -22 10 -56 19 -75 20
-19 1 -59 11 -87 22 -68 27 -117 33 -173 21z m193 -264 c34 -3 91 -21 132 -40
41 -19 80 -34 89 -34 8 0 28 -11 44 -25 17 -14 51 -29 76 -34 26 -5 54 -15 64
-23 9 -8 48 -29 85 -48 38 -18 80 -47 93 -64 14 -16 61 -53 105 -82 44 -29 93
-71 110 -93 16 -23 42 -47 57 -52 l27 -11 -23 -9 c-13 -5 -47 -13 -75 -18 -69
-11 -138 -29 -217 -56 -36 -12 -83 -28 -105 -35 -22 -6 -56 -22 -75 -35 -19
-13 -60 -34 -90 -46 -63 -27 -135 -69 -199 -116 -24 -18 -55 -33 -68 -33 -13
0 -41 -16 -66 -39 -23 -21 -52 -42 -65 -46 -13 -3 -35 -23 -50 -43 -15 -21
-54 -62 -86 -92 -33 -30 -76 -73 -95 -94 -20 -22 -41 -44 -47 -50 -6 -6 -23
-31 -38 -55 -15 -24 -36 -45 -46 -48 -18 -5 -40 -49 -40 -80 0 -7 -11 -31 -25
-53 -14 -21 -30 -58 -35 -82 -6 -24 -16 -60 -21 -82 -5 -21 -14 -47 -20 -58
-16 -31 -37 -198 -32 -255 l5 -51 -39 7 c-22 4 -46 12 -54 17 -8 4 -44 11 -80
15 -58 5 -73 11 -112 43 -25 21 -55 52 -66 69 -11 18 -31 46 -43 63 -81 112
-96 140 -103 199 -4 33 -16 77 -26 97 -10 20 -19 52 -19 70 0 18 -5 51 -11 73
-15 58 -21 333 -11 460 11 125 50 276 87 335 14 22 25 43 25 48 0 23 71 115
117 151 29 23 55 41 59 41 4 0 51 43 105 95 54 52 106 95 116 95 10 0 43 14
73 32 30 17 78 34 105 39 28 4 74 16 103 27 45 16 74 19 200 16 81 -2 173 -6
205 -10z m1602 -641 c49 -18 165 -118 165 -143 0 -6 17 -29 38 -51 20 -23 41
-48 46 -57 5 -10 21 -30 36 -47 27 -29 49 -70 106 -190 16 -33 38 -73 50 -90
12 -16 30 -65 39 -109 8 -43 20 -87 25 -96 5 -10 10 -44 11 -76 1 -33 5 -73
10 -90 6 -19 5 -68 -2 -130 -6 -54 -14 -145 -18 -201 -5 -82 -10 -107 -28
-131 -12 -17 -25 -43 -29 -58 -13 -58 -69 -190 -90 -214 -13 -14 -28 -46 -35
-73 -8 -33 -23 -58 -51 -85 -87 -81 -120 -119 -143 -162 -26 -50 -114 -130
-142 -130 -11 0 -39 -19 -64 -43 -25 -25 -65 -51 -94 -61 -27 -10 -69 -26 -91
-36 -23 -10 -59 -22 -80 -26 -22 -3 -53 -15 -71 -26 -46 -27 -183 -40 -358
-33 -234 10 -308 19 -348 43 -19 12 -75 31 -124 41 -86 18 -152 49 -183 85
-14 17 -74 48 -116 61 -12 3 -39 22 -60 42 -22 20 -61 51 -89 69 -65 41 -100
79 -120 129 -9 22 -27 51 -39 65 -39 44 -82 123 -100 185 -10 33 -23 80 -31
105 -17 58 -35 185 -37 265 0 38 17 145 28 170 7 17 18 57 23 89 6 33 21 75
32 95 12 20 35 61 52 91 16 30 47 70 68 88 22 19 39 40 39 48 0 13 77 95 131
139 71 58 152 116 182 130 18 8 54 33 80 55 26 21 58 42 70 46 12 4 38 17 57
29 19 12 46 25 60 30 14 4 41 17 60 29 53 32 121 56 161 56 20 0 42 6 48 14 7
8 38 22 69 31 31 8 85 25 119 36 35 11 100 24 145 28 46 4 94 14 108 22 16 8
61 14 122 14 76 1 102 5 116 18 14 13 30 16 63 11 24 -3 55 -1 69 5 36 14 59
13 115 -6z"/>
<path d="M1125 2656 c-60 -29 -108 -72 -131 -118 -9 -18 -39 -69 -65 -113 -38
-61 -53 -98 -64 -158 -28 -145 -17 -187 55 -208 79 -24 140 45 140 157 0 45 5
68 19 86 11 13 36 52 56 86 20 34 42 62 50 62 20 0 85 94 92 132 4 27 -1 40
-23 66 -35 39 -61 40 -129 8z"/>
<path d="M2405 1670 c-23 -9 -95 -83 -148 -150 -20 -25 -50 -61 -67 -80 -111
-124 -148 -232 -142 -418 2 -60 4 -66 45 -108 58 -61 103 -69 147 -26 36 37
39 74 9 132 -20 38 -21 47 -10 94 11 50 74 166 90 166 4 0 17 17 29 38 11 20
30 44 41 52 12 8 21 20 21 27 0 6 26 32 58 56 31 25 63 56 71 70 17 32 8 88
-19 112 -11 10 -20 24 -20 32 0 15 -72 17 -105 3z"/>
</g>
</svg>
