<?xml version="1.0" standalone="no"?>
<!DOCTYPE svg PUBLIC "-//W3C//DTD SVG 20010904//EN"
 "http://www.w3.org/TR/2001/REC-SVG-20010904/DTD/svg10.dtd">
<svg version="1.0" xmlns="http://www.w3.org/2000/svg"
 width="2031.000000pt" height="1289.000000pt" viewBox="0 0 2031.000000 1289.000000"
 preserveAspectRatio="xMidYMid meet">
<metadata>
Created by potrace 1.16, written by Peter Selinger 2001-2019
</metadata>
<g transform="translate(0.000000,1289.000000) scale(0.100000,-0.100000)"
fill="#000000" stroke="none">
<path d="M18170 3698 c-105 -24 -203 -39 -286 -43 -40 -2 -98 -13 -129 -24
-39 -14 -71 -19 -99 -15 -25 3 -65 -1 -101 -12 -33 -9 -91 -20 -130 -24 -38
-4 -97 -14 -130 -23 -94 -24 -173 -35 -184 -24 -5 5 -24 1 -47 -11 -22 -10
-59 -22 -83 -26 -24 -4 -65 -16 -90 -27 -61 -26 -136 -40 -240 -44 -90 -4
-204 -20 -263 -37 -23 -7 -57 -8 -90 -3 -58 9 -59 9 -227 0 -63 -3 -121 -3
-130 1 -9 3 -45 7 -81 8 -36 1 -94 8 -130 15 -36 7 -92 14 -125 16 -33 2 -85
6 -115 9 -30 3 -91 8 -135 11 -44 4 -95 14 -113 22 -20 10 -46 13 -67 10 -21
-3 -50 0 -70 9 -19 8 -50 12 -67 9 -18 -2 -52 -7 -75 -11 -26 -4 -54 -2 -71 5
-16 7 -68 14 -115 15 -46 2 -91 7 -98 12 -8 4 -20 9 -29 9 -45 5 -113 20 -178
41 -40 13 -94 26 -120 29 -106 13 -163 25 -184 39 -52 36 -111 3 -169 -93 -36
-60 -39 -70 -39 -139 0 -66 4 -81 29 -121 16 -25 32 -57 36 -70 10 -34 65
-121 76 -121 5 0 9 -12 9 -27 0 -33 31 -88 59 -102 10 -6 22 -25 26 -42 9 -41
63 -129 125 -204 28 -33 67 -83 89 -111 21 -28 50 -58 64 -67 14 -9 47 -48 73
-88 27 -39 59 -79 72 -88 14 -9 37 -29 51 -44 29 -32 127 -109 162 -128 13 -7
51 -33 84 -58 33 -26 74 -55 90 -65 17 -10 42 -31 57 -47 14 -15 39 -31 55
-35 29 -6 146 -63 243 -117 57 -32 110 -41 225 -38 35 1 72 -5 91 -14 31 -14
68 -18 174 -16 25 0 71 -4 102 -10 51 -10 61 -9 95 8 25 13 45 17 58 12 33
-13 107 -10 152 6 48 17 117 22 151 11 14 -5 34 -1 55 9 17 9 52 19 77 22 25
3 72 20 105 38 33 18 78 36 100 40 21 4 54 20 73 36 18 16 43 29 55 29 13 0
38 11 56 24 19 14 46 28 62 31 16 4 31 11 34 16 4 5 16 9 28 9 31 -1 65 -78
77 -178 6 -45 18 -100 26 -124 9 -24 16 -68 15 -98 0 -79 46 -282 81 -357 20
-42 41 -69 59 -78 15 -8 47 -40 71 -72 37 -49 52 -60 105 -79 34 -12 83 -37
108 -54 39 -27 52 -31 85 -25 25 4 50 1 72 -8 53 -24 97 -28 127 -12 23 11 35
12 58 3 32 -12 100 0 243 43 84 26 98 36 200 139 140 143 179 188 186 217 4
16 13 35 20 43 30 35 43 89 45 192 2 97 0 109 -23 149 -14 24 -29 58 -32 76
-4 18 -19 47 -34 66 -15 19 -44 61 -64 93 -95 150 -158 232 -209 271 -96 75
-104 80 -150 96 -25 9 -63 25 -85 36 -22 11 -68 22 -105 25 -70 6 -99 13 -99
26 0 4 -14 13 -31 21 l-32 12 31 26 c17 14 58 59 91 99 34 41 78 88 99 105 21
18 47 50 58 72 10 22 46 69 80 105 34 36 69 85 78 110 10 25 32 63 50 85 18
22 42 58 53 80 28 57 45 86 71 118 12 16 22 40 22 54 0 19 19 44 70 93 38 36
74 79 80 94 24 63 3 127 -53 158 -34 19 -238 17 -327 -4z m8 -263 c1 -1 -22
-42 -52 -91 -30 -49 -72 -118 -93 -153 -21 -35 -58 -85 -83 -111 -62 -66 -110
-129 -110 -147 0 -13 -127 -147 -202 -212 l-38 -33 -32 33 c-75 74 -138 194
-138 261 0 66 -111 104 -170 58 -14 -11 -30 -20 -37 -20 -14 0 -35 -68 -26
-83 4 -6 6 -39 5 -72 -2 -59 0 -65 36 -106 55 -63 100 -132 147 -224 38 -73
46 -82 93 -105 28 -14 66 -43 84 -65 76 -92 109 -114 213 -140 39 -9 82 -23
96 -31 15 -7 29 -11 32 -8 3 3 25 -6 50 -20 24 -14 51 -26 59 -26 9 0 43 -13
76 -30 45 -22 61 -36 67 -57 3 -15 36 -62 73 -104 43 -49 86 -114 119 -181 50
-99 52 -105 44 -153 -15 -82 -9 -72 -145 -233 -45 -54 -108 -102 -133 -102
-10 0 -41 -9 -70 -20 -29 -11 -54 -16 -57 -11 -3 5 -47 6 -98 3 -134 -7 -130
-7 -210 30 -40 20 -84 39 -98 43 -32 10 -64 38 -110 101 -31 41 -39 62 -44
114 -4 34 -9 67 -13 73 -3 5 -10 48 -14 96 -5 47 -21 128 -34 178 -14 51 -27
110 -29 130 -7 69 -19 123 -27 129 -5 3 -16 21 -23 39 -8 19 -27 44 -41 57
-15 13 -43 46 -61 73 -119 175 -209 261 -339 328 -55 28 -69 31 -160 31 -131
1 -168 -8 -216 -51 -63 -57 -46 -122 43 -158 35 -14 49 -15 85 -5 31 9 50 9
74 1 18 -6 48 -11 68 -11 48 0 91 -28 141 -92 l42 -52 -24 -7 c-13 -3 -53 -28
-89 -54 -82 -61 -147 -93 -208 -105 -27 -5 -73 -21 -102 -35 -31 -15 -70 -25
-95 -25 -24 0 -55 -5 -69 -10 -36 -14 -228 -28 -290 -21 -11 1 -40 -1 -64 -5
-35 -6 -43 -4 -39 7 2 7 15 16 29 19 70 16 115 264 84 465 -20 131 -101 196
-200 162 -53 -18 -134 -15 -165 6 -14 9 -62 20 -106 25 -66 8 -101 19 -189 62
-120 57 -158 67 -194 48 -28 -15 -74 -88 -102 -163 -10 -27 -34 -69 -53 -93
-19 -23 -37 -58 -40 -78 -4 -19 -20 -55 -35 -80 l-29 -44 -23 26 c-13 14 -39
40 -58 57 -70 66 -177 178 -345 361 -16 17 -35 45 -42 62 -7 16 -31 55 -53 84
-23 30 -41 62 -41 70 0 9 -13 31 -30 50 -16 19 -29 43 -30 53 0 27 -18 57 -60
102 -20 22 -51 66 -69 98 l-31 57 31 0 c16 0 40 -5 51 -11 11 -6 37 -11 57
-11 34 1 194 -39 236 -59 50 -23 178 -48 219 -43 32 5 55 1 91 -15 55 -24 85
-26 140 -7 47 16 85 14 140 -10 23 -10 73 -18 119 -20 43 -1 83 -7 89 -13 6
-6 43 -11 82 -11 39 0 98 -7 130 -15 33 -9 71 -13 85 -10 24 6 180 -24 180
-35 0 -3 -17 -26 -38 -52 -45 -54 -76 -129 -68 -163 10 -40 52 -80 118 -114
52 -26 79 -33 143 -36 107 -6 131 -12 193 -42 50 -25 57 -25 102 -14 39 10 56
10 83 0 41 -14 98 -5 119 19 26 30 59 94 62 121 2 14 15 88 28 164 l23 138 50
16 c28 8 88 17 135 18 47 1 96 7 109 14 13 7 35 11 50 8 14 -3 37 1 51 9 60
33 153 64 191 64 23 0 89 12 148 26 58 14 140 27 181 29 41 2 145 18 230 35
223 46 238 49 310 50 36 1 74 5 85 10 17 7 52 4 63 -5z m-1848 -357 c0 -65
-21 -117 -48 -120 -33 -3 -67 3 -105 17 -20 8 -46 15 -57 15 -27 0 -100 32
-100 45 0 5 14 30 31 55 l31 45 124 1 124 1 0 -59z m-922 -539 c23 -7 42 -17
42 -24 0 -6 -12 -31 -28 -56 -56 -89 -65 -121 -57 -198 4 -39 11 -71 15 -71 4
0 10 -9 13 -20 6 -24 53 -37 79 -21 10 6 23 9 27 6 13 -7 51 45 82 115 7 14
28 61 49 105 l37 80 90 3 91 3 -4 -138 c-6 -162 5 -217 47 -242 l28 -17 -37
-14 c-43 -16 -96 -14 -149 3 -21 7 -69 14 -107 16 -44 2 -83 10 -106 22 -20
11 -68 26 -105 34 -76 15 -242 95 -276 131 -16 17 -19 27 -11 36 5 7 31 54 57
103 26 50 58 103 71 118 13 16 24 36 24 46 0 29 10 31 49 11 20 -10 55 -24 79
-31z"/>
<path d="M17498 2137 c-49 -25 -68 -55 -68 -109 0 -51 13 -81 59 -131 22 -24
49 -64 60 -89 10 -25 30 -54 43 -64 13 -10 37 -50 53 -87 38 -90 92 -137 157
-137 50 0 68 14 87 69 22 66 14 112 -24 156 -20 21 -47 63 -61 92 -13 29 -34
59 -45 66 -11 6 -32 36 -46 64 -14 29 -35 55 -45 59 -11 3 -28 25 -37 47 -33
77 -71 95 -133 64z"/>
</g>
</svg>
