<?xml version="1.0" standalone="no"?>
<!DOCTYPE svg PUBLIC "-//W3C//DTD SVG 20010904//EN"
 "http://www.w3.org/TR/2001/REC-SVG-20010904/DTD/svg10.dtd">
<svg version="1.0" xmlns="http://www.w3.org/2000/svg"
 width="2000.000000pt" height="2000.000000pt" viewBox="0 0 2000.000000 2000.000000"
 preserveAspectRatio="xMidYMid meet">
<metadata>
Created by potrace 1.16, written by Peter Selinger 2001-2019
</metadata>
<g transform="translate(0.000000,2000.000000) scale(0.100000,-0.100000)"
fill="#000000" stroke="none">
<path d="M8475 11489 c-148 -41 -205 -50 -370 -59 -269 -13 -526 -52 -657
-100 -82 -30 -141 -66 -228 -140 -155 -132 -443 -290 -635 -349 -88 -27 -309
-58 -470 -66 -71 -3 -196 -13 -277 -21 -117 -13 -227 -15 -545 -11 -498 5
-613 19 -933 113 -63 19 -135 34 -160 34 -161 0 -208 -209 -65 -287 22 -11
103 -39 181 -61 77 -22 158 -50 178 -61 26 -15 64 -23 129 -28 88 -6 117 -17
117 -43 0 -16 26 -40 43 -40 9 0 17 -4 19 -9 2 -6 39 -12 83 -15 44 -3 136
-10 205 -16 157 -14 951 -20 1165 -10 110 6 169 13 188 23 31 16 57 57 57 88
0 26 30 39 94 39 67 0 485 56 521 70 15 6 39 10 55 10 16 0 32 5 35 10 3 6 16
10 28 10 29 0 400 100 412 111 5 5 21 9 35 9 14 0 30 4 35 8 6 5 30 15 55 23
45 14 44 14 -88 19 l-134 5 124 67 c158 86 209 108 343 147 61 18 164 59 230
91 166 80 206 92 305 94 142 3 188 45 197 184 5 69 3 81 -19 112 -47 70 -123
85 -253 49z"/>
</g>
</svg>
