<?xml version="1.0" standalone="no"?>
<!DOCTYPE svg PUBLIC "-//W3C//DTD SVG 20010904//EN"
 "http://www.w3.org/TR/2001/REC-SVG-20010904/DTD/svg10.dtd">
<svg version="1.0" xmlns="http://www.w3.org/2000/svg"
 width="2000.000000pt" height="2000.000000pt" viewBox="0 0 2000.000000 2000.000000"
 preserveAspectRatio="xMidYMid meet">
<metadata>
Created by potrace 1.16, written by Peter Selinger 2001-2019
</metadata>
<g transform="translate(0.000000,2000.000000) scale(0.100000,-0.100000)"
fill="#000000" stroke="none">
<path d="M9269 5902 c-73 -39 -133 -73 -139 -81 -5 -6 -31 -22 -92 -55 -21
-11 -38 -23 -38 -28 0 -4 -8 -8 -19 -8 -10 0 -24 -7 -31 -15 -7 -9 -28 -23
-46 -31 -19 -9 -34 -20 -34 -25 0 -5 -8 -9 -18 -9 -10 0 -27 -8 -38 -19 -11
-10 -31 -22 -45 -26 -13 -4 -26 -10 -29 -14 -8 -10 -92 -48 -145 -66 -27 -9
-58 -21 -67 -26 -10 -5 -29 -9 -42 -9 -14 0 -27 -4 -30 -9 -6 -10 -13 -11
-191 -40 -170 -28 -412 -24 -595 8 -30 6 -91 16 -135 24 -85 15 -358 91 -387
107 -10 6 -29 10 -42 10 -14 0 -28 5 -31 10 -3 6 -19 10 -35 10 -16 0 -32 5
-35 10 -3 6 -19 10 -35 10 -16 0 -32 5 -35 10 -3 6 -19 10 -35 10 -16 0 -32 5
-35 10 -3 6 -21 10 -40 10 -19 0 -37 5 -40 10 -3 6 -19 10 -35 10 -16 0 -32 5
-35 10 -3 6 -21 10 -40 10 -19 0 -36 4 -39 9 -3 5 -23 11 -43 14 -50 6 -153
28 -178 37 -21 8 -128 30 -180 37 -16 2 -39 8 -50 12 -93 38 -170 34 -235 -14
-19 -14 -40 -25 -46 -25 -35 0 -55 -79 -34 -134 5 -14 85 -101 177 -193 92
-93 183 -187 201 -211 18 -23 39 -42 46 -42 7 0 22 -11 32 -25 10 -14 23 -25
29 -25 5 0 21 -12 34 -25 13 -14 28 -25 35 -25 6 0 17 -9 24 -20 7 -11 18 -20
26 -20 7 0 22 -11 32 -25 10 -14 24 -25 30 -25 6 0 21 -11 34 -25 13 -14 28
-25 35 -25 6 0 17 -9 25 -20 8 -11 21 -20 28 -20 8 0 23 -11 34 -25 11 -14 26
-25 34 -25 8 0 14 -4 14 -8 0 -5 12 -15 28 -23 15 -8 36 -22 46 -31 11 -10 23
-18 27 -18 5 0 20 -11 35 -25 15 -14 33 -25 40 -25 8 0 14 -4 14 -8 0 -5 12
-15 27 -23 15 -8 35 -22 45 -31 10 -10 24 -18 31 -18 7 0 18 -9 25 -21 11 -18
8 -30 -28 -100 -22 -44 -40 -87 -40 -95 0 -8 -4 -14 -10 -14 -5 0 -10 -5 -10
-11 0 -6 -24 -61 -54 -122 -29 -62 -64 -133 -76 -159 -12 -27 -25 -50 -30 -53
-5 -3 -11 -19 -15 -35 -4 -17 -11 -30 -16 -30 -5 0 -9 -6 -9 -12 0 -7 -6 -24
-14 -38 -7 -14 -30 -54 -50 -90 -20 -36 -43 -78 -51 -95 -8 -16 -28 -52 -45
-80 -16 -27 -42 -74 -56 -102 -14 -29 -29 -53 -34 -53 -4 0 -13 -12 -19 -27
-16 -38 -43 -83 -63 -105 -10 -10 -18 -24 -18 -31 0 -7 -10 -24 -22 -38 -21
-23 -30 -37 -62 -93 -6 -11 -19 -29 -28 -40 -10 -11 -18 -24 -18 -30 0 -6 -7
0 -16 12 -8 12 -20 22 -26 22 -5 0 -19 11 -30 25 -11 14 -25 25 -33 25 -7 0
-15 9 -18 20 -3 11 -16 24 -29 29 -12 5 -30 18 -38 30 -8 12 -19 21 -25 21 -5
0 -21 12 -34 25 -13 14 -28 25 -35 25 -6 0 -18 9 -26 20 -8 11 -20 20 -27 20
-7 0 -22 9 -33 20 -11 11 -27 20 -35 20 -8 0 -15 5 -15 11 0 5 -15 17 -32 25
-18 8 -51 26 -73 38 -112 64 -135 76 -149 76 -9 0 -16 5 -16 10 0 6 -6 10 -12
10 -7 1 -31 9 -53 20 -22 11 -48 19 -57 20 -10 0 -18 5 -18 10 0 6 -13 10 -29
10 -17 0 -33 5 -36 10 -3 6 -21 10 -40 10 -19 0 -36 4 -39 9 -3 5 -20 11 -38
15 -172 30 -301 45 -393 45 -113 1 -327 -23 -357 -40 -10 -5 -23 -9 -30 -9 -7
-1 -31 -9 -53 -20 -22 -11 -46 -19 -52 -20 -7 0 -13 -4 -13 -10 0 -5 -6 -10
-13 -10 -7 0 -23 -9 -35 -20 -12 -11 -25 -20 -29 -20 -5 0 -23 -16 -42 -35
-18 -19 -37 -35 -42 -35 -5 0 -9 -6 -9 -14 0 -7 -11 -21 -25 -30 -14 -9 -25
-22 -25 -29 0 -6 -12 -23 -25 -36 -14 -13 -25 -29 -25 -37 0 -8 -4 -14 -9 -14
-5 0 -12 -13 -16 -30 -4 -17 -10 -30 -14 -30 -11 0 -51 -93 -51 -118 0 -12 -4
-22 -8 -22 -11 0 -49 -163 -61 -260 -24 -184 6 -546 79 -950 42 -232 43 -242
31 -262 -24 -39 -6 -136 32 -166 20 -16 76 -31 177 -47 111 -17 163 -27 420
-80 36 -7 103 -21 150 -30 47 -9 114 -23 150 -30 36 -8 85 -17 110 -20 25 -4
56 -10 70 -15 54 -20 767 -102 995 -115 55 -3 161 -12 235 -20 74 -8 230 -24
345 -36 116 -11 239 -24 275 -29 119 -17 166 -12 205 25 15 14 45 80 45 98 0
9 3 17 8 19 4 2 15 28 25 58 10 30 24 69 32 85 7 17 18 41 23 55 6 14 20 46
31 72 12 26 21 54 21 62 0 9 4 16 10 16 5 0 12 16 16 35 3 19 10 35 15 35 4 0
11 16 15 35 3 19 10 35 15 35 4 0 11 16 15 35 3 19 10 35 15 35 4 0 11 16 15
35 3 19 10 35 15 35 5 0 9 5 9 11 0 11 34 92 52 124 11 20 28 52 67 133 12 23
21 49 21 56 0 8 4 16 9 18 5 2 27 44 50 93 23 50 46 97 51 105 5 8 26 48 46
88 20 40 41 75 45 78 5 3 9 14 9 25 0 10 4 19 8 19 4 0 23 28 41 63 36 68 66
120 101 182 32 55 87 155 102 185 7 14 18 31 25 38 7 7 16 24 19 38 3 13 10
24 14 24 4 0 11 11 14 25 4 14 15 34 26 45 11 11 20 27 20 35 0 9 9 25 20 37
11 12 20 30 20 40 0 10 4 18 8 18 5 0 25 30 44 68 19 37 44 83 55 102 11 20
22 62 25 95 3 32 10 61 16 63 7 2 12 9 12 17 0 19 32 43 37 28 3 -7 9 -13 15
-13 15 0 122 -53 126 -62 2 -5 8 -8 13 -8 6 0 31 -9 57 -21 26 -11 63 -27 82
-35 19 -9 44 -19 55 -24 11 -5 43 -18 70 -30 28 -12 59 -25 70 -30 11 -5 43
-17 70 -25 28 -9 64 -23 82 -31 17 -8 38 -14 47 -14 9 0 16 -3 16 -8 0 -4 30
-16 68 -26 103 -30 135 -56 67 -56 -19 0 -35 -4 -35 -10 0 -5 -7 -10 -16 -10
-16 0 -35 -8 -134 -55 -91 -42 -154 -78 -180 -102 -14 -13 -30 -23 -37 -23 -7
0 -18 -9 -25 -20 -7 -11 -18 -20 -25 -20 -6 0 -20 -11 -31 -25 -11 -14 -23
-25 -27 -25 -12 0 -95 -85 -95 -97 0 -7 -5 -13 -11 -13 -12 0 -39 -25 -39 -35
0 -4 -11 -16 -25 -27 -14 -11 -25 -24 -25 -29 0 -6 -10 -20 -22 -32 -25 -24
-56 -72 -65 -99 -3 -10 -9 -18 -14 -18 -5 0 -9 -5 -9 -11 0 -10 -26 -71 -51
-121 -5 -10 -9 -28 -9 -41 0 -13 -5 -28 -11 -34 -16 -16 -25 -258 -10 -267 6
-4 11 -23 11 -42 0 -19 4 -34 9 -34 5 0 12 -16 15 -35 4 -19 11 -35 16 -35 6
0 10 -9 10 -19 0 -11 8 -27 17 -36 16 -16 41 -57 61 -100 6 -12 17 -27 26 -34
9 -7 16 -19 16 -26 0 -6 9 -20 20 -30 11 -10 20 -23 20 -28 0 -5 10 -19 23
-31 12 -12 28 -33 36 -49 8 -15 18 -27 23 -27 4 0 8 -6 8 -14 0 -8 11 -24 25
-37 13 -13 25 -30 25 -36 0 -7 9 -18 20 -25 11 -7 20 -18 20 -24 0 -7 11 -22
25 -35 13 -13 25 -29 25 -36 0 -6 8 -18 18 -25 9 -7 23 -25 31 -40 8 -16 18
-28 22 -28 5 0 16 -16 25 -35 9 -19 20 -35 25 -35 5 0 9 -6 9 -13 0 -7 8 -22
18 -33 9 -11 22 -29 28 -40 19 -34 54 -45 124 -41 36 2 81 11 100 19 19 9 71
23 115 32 44 9 96 21 115 26 80 20 176 40 197 40 12 0 24 4 27 9 3 4 34 11 68
15 35 4 81 12 103 18 41 11 112 23 350 62 77 12 147 25 155 28 8 3 58 13 110
22 52 8 131 22 175 31 44 9 94 19 110 22 17 2 37 7 45 11 14 5 103 24 188 38
18 4 35 10 38 15 3 5 17 9 32 9 15 0 77 14 137 31 61 17 129 33 153 36 23 3
45 10 48 14 3 5 18 9 34 9 16 0 32 5 35 10 3 6 19 10 35 10 16 0 31 4 34 9 3
5 20 11 38 14 45 7 159 38 180 48 10 5 31 9 47 9 17 0 33 5 36 10 3 6 17 10
31 10 25 0 55 14 86 39 10 8 23 40 30 72 7 33 16 59 20 59 13 0 9 98 -4 123
-7 12 -23 32 -35 44 -13 12 -23 25 -23 28 0 9 -63 89 -77 98 -7 4 -13 13 -13
20 0 7 -11 21 -25 31 -14 10 -25 25 -25 32 0 8 -11 21 -25 30 -14 9 -25 22
-25 30 0 7 -11 21 -25 30 -14 9 -25 22 -25 28 0 6 -12 23 -27 38 -16 14 -41
43 -58 63 -16 20 -47 55 -67 77 -21 23 -45 51 -53 64 -9 13 -22 24 -30 24 -8
0 -15 7 -15 15 0 8 -11 22 -25 31 -14 9 -25 21 -25 26 0 13 -26 38 -39 38 -6
0 -11 5 -11 11 0 12 -25 39 -37 39 -5 0 -13 10 -18 23 -6 12 -20 26 -32 32
-12 5 -24 18 -27 28 -2 10 -14 21 -25 24 -12 3 -21 10 -21 15 0 13 -86 98 -99
98 -6 0 -11 5 -11 11 0 11 -24 39 -34 39 -3 0 -41 36 -83 80 -43 44 -83 80
-89 80 -7 0 -14 9 -17 21 -3 11 -15 23 -26 26 -12 3 -21 12 -21 19 0 8 -4 14
-10 14 -5 0 -38 29 -72 65 -35 36 -69 65 -75 65 -7 0 -13 5 -13 11 0 11 -24
39 -34 39 -3 0 -41 36 -83 80 -43 44 -84 80 -90 80 -7 0 -13 5 -13 11 0 14
-25 39 -39 39 -6 0 -11 7 -11 15 0 8 -4 15 -10 15 -5 0 -38 29 -72 65 -35 36
-66 65 -70 65 -3 0 -29 23 -57 50 -28 28 -53 50 -57 50 -3 0 -15 11 -26 25
-11 14 -26 25 -34 25 -8 0 -14 5 -14 11 0 13 -25 39 -38 39 -5 0 -18 11 -28
25 -10 14 -23 25 -27 25 -5 0 -18 11 -29 25 -11 14 -24 25 -30 25 -5 0 -19 11
-30 25 -11 14 -24 25 -30 25 -5 0 -19 11 -30 25 -11 14 -25 25 -31 25 -7 0
-18 9 -25 20 -7 11 -18 20 -26 20 -7 0 -22 11 -32 25 -10 14 -23 25 -29 25 -5
0 -21 12 -34 25 -13 14 -28 25 -35 25 -6 0 -17 9 -24 20 -7 11 -18 20 -25 20
-6 0 -23 12 -36 25 -13 14 -28 25 -35 25 -6 0 -17 9 -24 20 -7 11 -18 20 -25
20 -6 0 -23 12 -36 25 -13 14 -29 25 -37 25 -8 0 -14 5 -14 10 0 6 -12 16 -27
23 -16 6 -38 22 -49 35 -12 12 -26 22 -31 22 -5 0 -18 9 -28 20 -10 11 -23 20
-30 20 -6 0 -21 10 -33 23 -21 22 -21 23 -2 35 10 6 35 47 55 89 20 43 40 85
45 93 11 17 35 61 78 142 16 31 37 64 46 73 9 9 16 25 16 36 0 10 5 19 11 19
5 0 16 15 24 33 8 19 21 39 29 47 9 7 16 17 16 23 0 6 12 23 26 38 19 20 28
42 34 91 4 36 13 74 18 85 8 15 8 33 -1 68 -12 46 -14 48 -60 60 -31 8 -62 25
-86 49 -47 46 -94 48 -172 8z m-2894 -402 c3 -5 16 -10 28 -10 29 0 168 -30
189 -41 10 -5 31 -9 47 -9 17 0 33 -4 36 -10 3 -5 19 -10 35 -10 16 0 32 -4
35 -10 3 -5 22 -10 41 -10 19 0 34 -4 34 -10 0 -5 15 -10 34 -10 19 0 38 -4
41 -10 3 -5 19 -10 35 -10 16 0 32 -4 35 -10 3 -5 19 -10 34 -10 15 0 31 -4
37 -9 10 -10 255 -81 279 -81 24 0 29 -28 12 -63 -15 -30 -44 -93 -96 -209
-12 -26 -21 -50 -21 -53 0 -4 -7 -13 -15 -21 -12 -12 -18 -12 -35 -2 -11 7
-20 16 -20 20 0 5 -6 8 -13 8 -8 0 -22 9 -32 20 -10 11 -23 20 -30 20 -7 0
-20 9 -30 20 -10 11 -23 20 -29 20 -6 0 -22 12 -35 25 -13 14 -29 25 -37 25
-8 0 -14 4 -14 8 0 5 -12 15 -27 23 -16 8 -37 24 -49 37 -12 12 -26 22 -31 22
-5 0 -18 9 -28 20 -10 11 -24 20 -30 20 -7 0 -21 11 -31 25 -10 14 -24 25 -30
25 -6 0 -19 9 -29 20 -10 11 -24 20 -30 20 -7 0 -20 11 -29 25 -9 14 -22 25
-30 25 -7 0 -22 11 -32 25 -10 14 -23 25 -29 25 -5 0 -20 11 -32 23 -12 13
-40 29 -62 37 -22 7 -52 26 -67 41 -26 28 -27 29 -6 29 11 0 24 -4 27 -10z
m2755 -39 c0 -10 -8 -21 -19 -24 -16 -4 -28 -21 -65 -94 -6 -13 -14 -23 -18
-23 -5 0 -8 -7 -8 -15 0 -8 -4 -15 -9 -15 -5 0 -11 -8 -14 -17 -4 -10 -20 -40
-37 -68 -17 -27 -33 -58 -37 -67 -3 -10 -9 -18 -13 -18 -5 0 -13 -12 -19 -27
-7 -16 -23 -46 -36 -68 -14 -22 -30 -51 -37 -65 -7 -14 -21 -34 -30 -44 -10
-11 -18 -28 -18 -38 0 -10 -4 -18 -8 -18 -7 0 -36 -47 -66 -107 -6 -13 -14
-23 -18 -23 -5 0 -8 -7 -8 -15 0 -8 -4 -15 -9 -15 -5 0 -11 -8 -14 -17 -6 -20
-39 -75 -48 -83 -4 -3 -16 -21 -27 -41 -40 -71 -47 -83 -64 -103 -10 -11 -18
-26 -18 -33 0 -7 -4 -13 -9 -13 -5 0 -16 -15 -25 -34 -8 -18 -22 -39 -31 -46
-8 -7 -15 -21 -15 -31 0 -11 -4 -19 -8 -19 -5 0 -15 -12 -22 -27 -8 -16 -21
-37 -30 -48 -26 -32 -110 -233 -110 -263 0 -15 -24 -74 -53 -133 -30 -58 -57
-124 -61 -148 -3 -23 -15 -52 -26 -64 -11 -11 -20 -29 -20 -39 0 -10 -4 -18
-8 -18 -11 0 -62 -95 -62 -115 0 -8 -4 -15 -9 -15 -5 0 -16 -15 -25 -32 -9
-18 -35 -64 -56 -103 -22 -38 -47 -83 -55 -100 -8 -16 -29 -52 -45 -80 -17
-27 -33 -58 -37 -67 -3 -10 -9 -18 -13 -18 -4 0 -11 -11 -14 -25 -4 -14 -15
-34 -26 -45 -11 -11 -20 -27 -20 -35 0 -9 -9 -25 -20 -37 -11 -12 -20 -30 -20
-40 0 -10 -4 -18 -9 -18 -5 0 -12 -13 -16 -30 -4 -16 -10 -32 -15 -35 -5 -3
-31 -49 -57 -103 -26 -53 -51 -98 -55 -100 -5 -2 -8 -9 -8 -15 0 -7 -9 -29
-20 -50 -11 -20 -20 -43 -20 -51 0 -8 -4 -16 -8 -18 -12 -4 -62 -106 -62 -124
0 -8 -4 -14 -10 -14 -5 0 -10 -6 -10 -12 0 -7 -18 -48 -40 -91 -22 -43 -40
-85 -40 -93 0 -8 -4 -14 -10 -14 -5 0 -12 -16 -16 -35 -3 -19 -10 -35 -15 -35
-4 0 -11 -16 -15 -35 -3 -19 -10 -35 -15 -35 -4 0 -11 -16 -15 -35 -3 -19 -10
-35 -15 -35 -4 0 -11 -16 -15 -35 -3 -19 -10 -35 -15 -35 -5 0 -9 -8 -9 -17 0
-10 -6 -29 -13 -43 -7 -14 -21 -47 -31 -75 -10 -27 -24 -63 -31 -80 -8 -16
-22 -49 -31 -73 -21 -49 -13 -48 -193 -28 -162 19 -402 43 -561 56 -69 6 -186
17 -260 25 -74 8 -166 17 -205 20 -113 10 -596 74 -645 86 -25 6 -81 17 -125
25 -44 8 -111 21 -150 29 -38 8 -94 18 -123 24 -29 5 -62 13 -73 16 -19 6 -70
16 -239 46 -113 19 -140 31 -140 59 0 14 -4 30 -9 36 -4 5 -14 52 -20 104 -7
52 -16 104 -21 115 -15 33 -69 480 -75 621 -13 297 52 517 198 665 15 16 27
33 27 39 0 5 6 10 14 10 7 0 19 6 25 14 42 51 214 96 364 96 113 0 331 -25
359 -40 10 -6 29 -10 42 -10 14 0 28 -4 31 -10 3 -5 22 -10 41 -10 19 0 34 -4
34 -10 0 -5 7 -10 16 -10 8 0 48 -15 87 -34 40 -18 79 -36 87 -39 8 -4 38 -20
65 -37 28 -17 58 -33 68 -37 9 -3 17 -9 17 -13 0 -4 20 -17 45 -30 25 -13 45
-27 45 -32 0 -4 6 -8 13 -8 8 0 22 -9 32 -20 10 -11 24 -20 30 -20 7 0 21 -11
31 -25 10 -14 23 -25 27 -25 9 0 28 -16 87 -72 16 -16 31 -28 34 -28 9 0 146
-141 146 -151 0 -5 7 -9 15 -9 8 0 15 -6 15 -14 0 -8 11 -23 25 -34 14 -11 25
-24 25 -29 0 -4 11 -17 25 -27 14 -10 25 -24 25 -30 0 -6 11 -20 25 -30 14
-10 25 -25 25 -32 0 -7 8 -19 18 -26 9 -7 23 -25 31 -40 8 -16 18 -28 22 -28
5 0 16 -16 25 -35 9 -19 20 -35 25 -35 5 0 9 -6 9 -13 0 -7 8 -22 18 -33 9
-11 22 -29 28 -39 43 -75 179 -69 225 11 30 50 17 155 -21 179 -5 3 -26 36
-46 72 -21 36 -64 94 -96 128 -32 34 -58 67 -58 73 0 5 -11 20 -25 33 -13 13
-25 30 -25 37 0 6 -4 12 -10 12 -18 0 -10 18 10 23 11 3 24 16 29 29 5 13 16
30 25 37 9 7 16 22 16 32 0 11 4 19 8 19 5 0 15 12 23 28 18 35 48 79 76 109
12 14 79 108 149 210 69 101 138 199 154 216 42 49 188 284 201 326 7 20 15
38 18 41 4 3 16 34 26 70 10 36 22 67 25 70 9 7 67 198 75 243 11 65 86 282
100 290 8 4 17 23 21 42 3 19 10 35 15 35 5 0 9 5 9 11 0 9 13 40 50 124 5 11
18 43 30 70 11 28 27 62 35 77 8 14 15 32 15 40 0 7 9 24 19 37 l18 24 143
-18 c168 -21 435 -16 565 11 44 9 97 18 118 21 20 3 40 9 43 14 3 5 20 9 39 9
19 0 37 5 40 10 3 6 19 10 36 10 16 0 29 5 29 10 0 6 7 10 16 10 20 0 89 29
237 100 48 23 87 46 87 51 0 5 9 9 20 9 11 0 20 5 20 10 0 6 6 10 14 10 8 0
16 3 18 8 5 12 62 41 70 36 5 -3 8 -13 8 -23z m-94 -776 c15 -14 32 -25 38
-25 6 0 18 -9 26 -20 8 -11 21 -20 30 -20 8 0 21 -9 28 -20 7 -11 18 -20 25
-20 6 0 23 -12 36 -25 13 -14 29 -25 37 -25 8 0 14 -4 14 -8 0 -5 12 -15 28
-23 15 -8 35 -24 45 -36 10 -13 25 -23 33 -23 8 0 14 -4 14 -8 0 -5 12 -15 28
-23 15 -8 35 -24 45 -36 10 -13 25 -23 32 -23 8 0 18 -6 22 -12 10 -15 89 -78
98 -78 4 0 16 -11 27 -25 11 -14 24 -25 30 -25 5 0 19 -11 30 -25 11 -14 24
-25 30 -25 5 0 19 -11 30 -25 11 -14 26 -25 34 -25 8 0 14 -7 14 -15 0 -8 4
-15 9 -15 5 0 26 -16 45 -35 20 -19 39 -35 42 -35 3 0 15 -11 26 -25 11 -14
23 -25 28 -25 5 0 31 -22 58 -50 27 -27 51 -50 55 -50 3 0 42 -36 86 -80 45
-44 84 -80 86 -80 3 0 26 -22 52 -50 26 -27 53 -50 60 -50 7 0 13 -5 13 -11 0
-15 82 -99 98 -99 6 0 12 -5 12 -11 0 -11 24 -39 34 -39 3 0 27 -22 54 -50 27
-27 54 -50 60 -50 7 0 12 -4 12 -8 0 -11 35 -52 43 -52 4 0 28 -22 55 -50 27
-27 54 -50 59 -50 6 0 13 -9 16 -21 3 -11 15 -23 26 -26 12 -3 21 -9 21 -13 0
-12 37 -50 49 -50 6 0 11 -5 11 -11 0 -10 24 -39 33 -39 7 0 287 -280 287
-286 0 -10 28 -34 39 -34 6 0 11 -5 11 -12 0 -6 25 -36 55 -65 30 -29 55 -58
55 -63 0 -5 11 -17 25 -26 14 -9 25 -20 25 -25 0 -5 16 -25 35 -45 19 -19 35
-40 35 -45 0 -5 7 -9 15 -9 8 0 15 -5 15 -11 0 -10 70 -100 120 -155 11 -12
20 -26 20 -31 0 -4 11 -17 25 -27 14 -10 25 -25 25 -32 0 -8 5 -14 12 -14 35
0 -20 -22 -122 -49 -63 -17 -123 -35 -132 -41 -10 -5 -29 -10 -42 -10 -14 0
-27 -4 -30 -9 -3 -5 -23 -11 -43 -13 -47 -6 -291 -67 -315 -79 -10 -5 -31 -9
-47 -9 -17 0 -32 -4 -35 -9 -3 -4 -25 -11 -48 -14 -24 -3 -74 -13 -113 -22
-76 -18 -165 -36 -290 -59 -44 -8 -100 -19 -125 -24 -25 -6 -85 -15 -135 -22
-49 -6 -99 -15 -110 -20 -11 -5 -65 -16 -120 -24 -211 -32 -383 -65 -406 -76
-9 -5 -44 -12 -78 -16 -34 -4 -64 -11 -67 -15 -3 -5 -16 -9 -29 -9 -14 0 -68
-11 -121 -25 -83 -21 -98 -23 -110 -11 -8 8 -14 19 -14 24 0 4 -11 19 -25 32
-14 13 -25 29 -25 37 0 7 -3 13 -8 13 -4 0 -18 18 -32 40 -13 22 -30 42 -37
44 -7 3 -13 12 -13 20 0 8 -10 23 -23 33 -12 10 -28 30 -34 45 -7 16 -17 28
-23 28 -5 0 -10 6 -10 13 0 7 -9 23 -20 35 -11 12 -20 26 -20 31 0 5 -11 18
-25 29 -14 11 -25 26 -25 34 0 7 -9 20 -20 28 -11 8 -20 20 -20 26 0 6 -10 22
-22 36 -25 27 -44 59 -76 123 -54 108 -55 113 -48 191 4 42 11 83 16 92 5 10
21 42 35 73 14 32 32 62 40 69 8 7 15 21 15 31 0 11 6 19 14 19 8 0 20 14 28
30 7 17 19 30 25 30 7 0 13 4 13 8 0 12 139 152 150 152 5 0 17 10 27 23 10
12 30 28 46 34 15 7 27 17 27 23 0 5 6 10 14 10 7 0 24 9 38 19 13 11 37 23
51 26 15 4 27 11 27 16 0 5 6 9 13 9 6 0 24 6 39 14 15 8 40 17 57 21 17 4 33
11 36 16 4 5 19 9 34 9 15 0 32 5 38 11 17 17 239 24 319 10 94 -16 157 -32
169 -42 5 -5 22 -9 37 -9 15 0 28 -4 28 -10 0 -5 16 -12 35 -16 19 -3 35 -10
35 -14 0 -5 13 -11 30 -15 16 -4 32 -11 36 -16 3 -5 22 -17 42 -27 48 -24 86
-45 92 -53 3 -4 22 -16 43 -28 37 -21 137 -30 137 -13 0 4 10 12 22 17 72 33
74 180 3 219 -11 6 -22 14 -25 17 -7 10 -92 59 -112 66 -10 3 -18 9 -18 14 0
5 -6 9 -12 9 -7 0 -26 7 -43 16 -87 48 -122 64 -137 64 -10 0 -18 5 -18 10 0
6 -13 10 -28 10 -15 0 -32 4 -37 9 -20 17 -260 69 -327 71 -5 0 -8 20 -8 45 0
25 -4 45 -10 45 -5 0 -10 7 -10 16 0 20 -24 44 -44 44 -9 0 -16 5 -16 10 0 6
-13 10 -28 10 -15 0 -32 4 -38 8 -5 5 -38 17 -74 27 -36 10 -69 22 -74 27 -6
4 -20 8 -32 8 -12 0 -35 7 -50 15 -16 8 -36 15 -46 15 -9 0 -18 3 -20 8 -4 9
-100 42 -122 42 -9 0 -16 4 -16 9 0 5 -12 12 -27 15 -16 4 -41 13 -58 20 -16
8 -41 19 -55 24 -14 6 -47 20 -75 32 -27 11 -62 27 -77 35 -14 8 -33 15 -42
15 -9 0 -16 4 -16 10 0 5 -16 12 -35 16 -19 3 -35 10 -35 14 0 4 -12 11 -27
15 -15 3 -38 14 -52 24 -14 9 -38 23 -53 31 -32 15 -36 38 -10 66 16 18 25 33
56 88 6 11 19 29 29 40 9 11 17 24 17 30 0 5 7 18 17 28 17 19 33 44 55 88 7
14 16 27 19 30 8 6 43 64 61 100 7 14 16 27 19 30 4 3 16 21 27 41 50 89 71
119 84 119 4 0 19 -11 34 -25z"/>
</g>
</svg>
