<?xml version="1.0" standalone="no"?>
<!DOCTYPE svg PUBLIC "-//W3C//DTD SVG 20010904//EN"
 "http://www.w3.org/TR/2001/REC-SVG-20010904/DTD/svg10.dtd">
<svg version="1.0" xmlns="http://www.w3.org/2000/svg"
 width="2000.000000pt" height="2000.000000pt" viewBox="0 0 2000.000000 2000.000000"
 preserveAspectRatio="xMidYMid meet">
<metadata>
Created by potrace 1.16, written by Peter Selinger 2001-2019
</metadata>
<g transform="translate(0.000000,2000.000000) scale(0.100000,-0.100000)"
fill="#000000" stroke="none">
<path d="M9269 5902 c-73 -39 -133 -73 -139 -81 -5 -6 -31 -22 -92 -55 -21
-11 -38 -23 -38 -28 0 -4 -8 -8 -19 -8 -10 0 -24 -7 -31 -15 -7 -9 -28 -23
-46 -31 -19 -9 -34 -20 -34 -25 0 -5 -8 -9 -18 -9 -10 0 -27 -8 -38 -19 -11
-10 -31 -22 -45 -26 -13 -4 -26 -10 -29 -14 -8 -10 -92 -48 -145 -66 -27 -9
-58 -21 -67 -26 -10 -5 -29 -9 -42 -9 -14 0 -27 -4 -30 -9 -3 -5 -20 -11 -38
-15 -18 -3 -71 -12 -118 -21 -171 -30 -444 -29 -630 4 -30 6 -91 16 -135 24
-85 15 -358 91 -387 107 -10 6 -29 10 -42 10 -14 0 -28 5 -31 10 -3 6 -19 10
-35 10 -16 0 -32 5 -35 10 -3 6 -19 10 -35 10 -16 0 -32 5 -35 10 -3 6 -19 10
-35 10 -16 0 -32 5 -35 10 -3 6 -21 10 -40 10 -19 0 -37 5 -40 10 -3 6 -19 10
-35 10 -16 0 -32 5 -35 10 -3 6 -21 10 -40 10 -19 0 -36 4 -39 9 -3 5 -23 11
-43 14 -50 6 -153 28 -178 37 -21 8 -128 30 -180 37 -16 2 -39 8 -50 12 -93
38 -170 34 -235 -14 -19 -14 -40 -25 -46 -25 -20 0 -44 -42 -44 -77 0 -47 13
-72 63 -126 l45 -48 -55 -117 c-68 -145 -86 -194 -124 -352 -37 -151 -44 -255
-44 -660 0 -287 1 -300 33 -480 17 -102 43 -230 56 -285 14 -55 23 -101 21
-103 -2 -2 -15 2 -28 10 -13 7 -42 22 -63 34 -22 11 -60 33 -86 47 -26 15 -54
27 -62 27 -9 0 -16 5 -16 10 0 6 -6 10 -12 10 -7 1 -31 9 -53 20 -22 11 -48
19 -57 20 -10 0 -18 5 -18 10 0 6 -13 10 -29 10 -17 0 -33 5 -36 10 -3 6 -21
10 -40 10 -19 0 -36 4 -39 9 -3 5 -20 11 -38 15 -172 30 -301 45 -393 45 -113
1 -327 -23 -357 -40 -10 -5 -23 -9 -30 -9 -19 0 -178 -81 -178 -91 0 -5 -6 -9
-14 -9 -8 0 -23 -11 -34 -25 -11 -14 -23 -25 -27 -25 -10 0 -35 -27 -35 -38 0
-5 -11 -17 -25 -26 -14 -9 -25 -22 -25 -29 0 -6 -12 -23 -25 -36 -14 -13 -25
-29 -25 -37 0 -8 -4 -14 -9 -14 -5 0 -12 -13 -16 -30 -4 -17 -10 -30 -14 -30
-11 0 -51 -93 -51 -118 0 -12 -3 -22 -8 -22 -11 0 -49 -161 -61 -255 -24 -193
6 -548 79 -955 42 -232 43 -242 31 -262 -16 -26 -12 -98 8 -133 23 -40 56 -54
160 -71 47 -8 118 -20 156 -28 39 -8 108 -22 155 -31 47 -9 114 -23 150 -30
36 -7 103 -21 150 -30 47 -9 112 -23 145 -30 33 -7 85 -16 115 -20 30 -4 62
-11 70 -15 32 -16 784 -104 990 -115 58 -3 166 -12 240 -20 74 -8 207 -22 295
-30 261 -26 324 -35 368 -54 97 -43 235 -75 470 -108 51 -7 81 2 121 37 53 47
59 91 35 246 -11 71 -26 189 -34 261 -9 75 -24 154 -35 183 -11 28 -29 122
-41 213 -11 89 -29 205 -40 257 -11 52 -39 187 -62 300 l-42 205 2 780 c3 818
11 1069 43 1275 22 147 48 227 84 263 14 14 26 34 26 44 0 10 9 29 19 42 l18
24 135 -17 c75 -9 191 -16 259 -15 l124 1 13 -82 c30 -198 116 -375 350 -728
140 -210 256 -362 359 -471 48 -52 163 -178 255 -280 l167 -186 -37 -17 c-155
-70 -238 -115 -272 -145 -14 -13 -30 -23 -37 -23 -7 0 -18 -9 -25 -20 -7 -11
-18 -20 -25 -20 -6 0 -20 -11 -31 -25 -11 -14 -23 -25 -27 -25 -12 0 -95 -85
-95 -97 0 -7 -5 -13 -11 -13 -12 0 -39 -25 -39 -35 0 -4 -11 -16 -25 -27 -14
-11 -25 -24 -25 -29 0 -6 -10 -20 -22 -32 -25 -24 -56 -72 -65 -99 -3 -10 -9
-18 -14 -18 -5 0 -9 -5 -9 -11 0 -10 -33 -90 -50 -121 -6 -10 -10 -28 -10 -41
0 -13 -5 -28 -11 -34 -16 -16 -25 -258 -10 -267 6 -4 11 -23 11 -42 0 -19 4
-34 9 -34 5 0 12 -16 15 -35 4 -19 11 -35 16 -35 6 0 10 -9 10 -19 0 -11 8
-27 17 -36 16 -16 41 -57 61 -100 6 -12 17 -27 26 -34 9 -7 16 -19 16 -26 0
-6 9 -20 20 -30 11 -10 20 -23 20 -28 0 -5 10 -19 23 -31 12 -12 28 -33 36
-49 8 -15 18 -27 23 -27 4 0 8 -6 8 -14 0 -8 11 -24 25 -37 13 -13 25 -30 25
-36 0 -7 9 -18 20 -25 11 -7 20 -18 20 -24 0 -7 11 -22 25 -35 13 -13 25 -29
25 -36 0 -6 8 -18 18 -25 9 -7 23 -25 31 -40 8 -16 18 -28 22 -28 5 0 16 -16
25 -35 9 -19 20 -35 25 -35 5 0 9 -6 9 -13 0 -7 8 -22 18 -33 9 -11 22 -29 28
-40 19 -34 54 -45 124 -41 36 2 81 11 100 19 19 9 62 21 95 28 33 7 76 16 95
20 77 19 177 41 215 46 22 4 45 10 50 14 6 4 37 11 70 14 33 4 78 12 100 18
42 11 114 23 350 62 77 12 147 25 155 28 8 3 58 13 110 22 52 8 131 22 175 31
44 9 94 19 110 22 17 2 37 7 45 11 14 5 103 24 188 38 18 4 35 10 38 15 3 5
16 9 29 9 14 0 77 14 142 31 65 18 135 34 156 36 20 3 40 9 43 14 3 5 18 9 34
9 16 0 32 5 35 10 3 6 19 10 35 10 16 0 32 5 35 10 3 6 21 10 40 10 19 0 36 4
39 8 3 5 31 14 63 21 32 7 66 17 75 22 10 5 31 9 47 9 17 0 33 5 36 10 3 6 17
10 31 10 25 0 55 14 86 39 10 8 23 40 30 72 7 33 16 59 20 59 4 0 8 23 8 50 0
48 -9 75 -38 112 -8 9 -21 30 -30 47 -17 30 -164 204 -214 252 -16 15 -28 31
-28 35 0 5 -9 17 -20 29 -10 11 -41 45 -67 75 -26 30 -60 66 -74 81 -14 15
-33 39 -42 53 -10 14 -24 26 -32 26 -8 0 -15 7 -15 15 0 8 -11 22 -25 31 -14
9 -25 21 -25 26 0 13 -26 38 -39 38 -6 0 -11 5 -11 11 0 14 -25 39 -39 39 -6
0 -11 5 -11 11 0 6 -52 63 -116 128 -98 98 -312 349 -444 521 -19 25 -71 86
-115 135 -44 50 -111 126 -150 170 -38 44 -171 182 -296 308 -124 125 -252
263 -283 306 -37 52 -79 131 -122 232 -111 259 -140 440 -131 816 5 205 4 223
-14 252 -42 70 -145 93 -216 50 l-34 -21 -23 21 c-32 30 -90 28 -157 -7z m134
-559 c4 -146 11 -215 31 -308 32 -151 76 -287 124 -384 21 -42 44 -95 51 -118
29 -90 297 -404 520 -609 35 -32 125 -128 200 -213 185 -209 221 -251 304
-361 39 -52 82 -105 94 -117 12 -13 58 -68 103 -123 44 -55 118 -139 164 -188
45 -48 115 -124 153 -169 72 -83 158 -177 426 -463 81 -87 147 -162 147 -167
0 -6 -48 -22 -107 -38 -60 -15 -112 -31 -117 -36 -6 -5 -22 -9 -37 -9 -15 0
-30 -4 -33 -9 -3 -5 -23 -11 -43 -13 -47 -6 -291 -67 -315 -79 -10 -5 -31 -9
-47 -9 -17 0 -32 -4 -35 -9 -3 -4 -25 -11 -48 -14 -24 -3 -74 -13 -113 -22
-76 -18 -165 -36 -290 -59 -44 -8 -100 -19 -125 -24 -25 -6 -85 -15 -135 -22
-49 -6 -99 -15 -110 -20 -11 -5 -65 -16 -120 -24 -211 -32 -383 -65 -406 -76
-9 -5 -44 -12 -78 -16 -34 -4 -64 -11 -67 -15 -3 -5 -16 -9 -29 -9 -14 0 -68
-11 -121 -25 -83 -21 -98 -23 -110 -11 -8 8 -14 19 -14 24 0 4 -11 19 -25 32
-14 13 -25 29 -25 37 0 7 -3 13 -8 13 -4 0 -18 18 -32 40 -13 22 -30 42 -37
44 -7 3 -13 12 -13 20 0 8 -10 23 -23 33 -12 10 -28 30 -34 46 -7 15 -17 27
-23 27 -5 0 -10 6 -10 13 0 7 -9 23 -20 35 -11 12 -20 26 -20 31 0 5 -11 18
-25 29 -14 11 -25 26 -25 34 0 7 -9 20 -20 28 -11 8 -20 20 -20 26 0 6 -10 22
-22 36 -25 27 -44 59 -76 123 -54 108 -55 113 -48 191 4 42 11 83 16 92 5 10
21 42 35 73 14 32 32 62 40 69 8 7 15 21 15 31 0 11 6 19 14 19 8 0 20 14 28
30 7 17 19 30 25 30 7 0 13 4 13 8 0 12 139 152 150 152 5 0 17 10 27 23 10
12 30 28 46 34 15 7 27 17 27 23 0 5 6 10 14 10 7 0 24 9 38 19 13 11 37 23
51 26 15 4 27 11 27 15 0 5 13 11 30 15 16 4 32 11 35 16 4 5 14 9 23 9 9 0
30 7 46 15 15 8 38 15 50 15 12 0 27 5 33 11 17 17 239 24 319 10 94 -16 157
-32 169 -42 5 -5 22 -9 37 -9 15 0 28 -4 28 -10 0 -5 16 -12 35 -16 19 -3 35
-10 35 -14 0 -5 13 -11 30 -15 16 -4 32 -11 36 -16 3 -5 22 -17 42 -27 48 -24
86 -45 92 -53 3 -4 22 -16 43 -28 37 -21 137 -30 137 -13 0 4 10 12 22 17 72
33 74 180 3 219 -11 6 -22 14 -25 17 -7 10 -92 59 -112 66 -10 3 -18 9 -18 14
0 5 -6 9 -12 9 -7 0 -26 7 -43 16 -87 48 -122 64 -137 64 -10 0 -18 5 -18 10
0 6 -13 10 -28 10 -15 0 -32 4 -37 9 -21 19 -267 68 -415 83 -27 3 -138 115
-360 363 -69 76 -164 180 -211 230 -109 116 -209 248 -369 491 -177 268 -257
437 -275 579 -6 47 -4 51 22 63 15 6 39 12 54 12 15 0 31 5 34 10 3 6 19 10
36 10 16 0 29 5 29 10 0 6 7 10 16 10 20 0 89 29 237 100 48 23 87 46 87 51 0
5 9 9 20 9 11 0 20 5 20 10 0 6 6 10 14 10 8 0 16 3 18 8 2 4 18 15 36 25 33
19 33 19 39 -2 6 -25 14 -26 56 -4 42 22 166 62 193 63 21 0 21 -5 27 -187z
m-3021 158 c13 -5 61 -17 108 -26 47 -9 93 -21 102 -26 10 -5 31 -9 47 -9 17
0 33 -4 36 -10 3 -5 19 -10 35 -10 16 0 32 -4 35 -10 3 -5 22 -10 41 -10 19 0
34 -4 34 -10 0 -5 15 -10 34 -10 19 0 38 -4 41 -10 3 -5 19 -10 35 -10 16 0
32 -4 35 -10 3 -5 19 -10 35 -10 16 0 31 -4 34 -8 3 -5 60 -24 126 -42 97 -27
120 -37 116 -49 -3 -9 -20 -56 -40 -106 -39 -102 -58 -188 -81 -360 -20 -154
-38 -1068 -32 -1657 l3 -423 37 -185 c20 -102 46 -223 56 -270 11 -47 27 -141
36 -210 24 -186 44 -296 64 -359 15 -46 45 -260 37 -268 -1 -1 -20 4 -41 12
-22 8 -64 14 -92 15 -29 0 -83 4 -120 10 -38 5 -142 17 -233 25 -91 9 -226 23
-300 30 -74 8 -196 19 -270 25 -74 6 -173 16 -219 21 -46 6 -116 12 -155 15
-119 7 -666 78 -736 95 -25 6 -81 17 -125 25 -44 8 -111 21 -150 29 -38 8 -94
18 -123 24 -29 5 -62 13 -73 16 -19 6 -70 16 -239 46 -113 19 -140 31 -140 59
0 14 -4 30 -9 35 -4 6 -14 53 -20 105 -7 52 -16 104 -21 115 -15 33 -69 480
-75 621 -13 297 52 517 198 665 15 16 27 33 27 39 0 5 6 10 14 10 7 0 19 6 25
14 42 51 214 96 364 96 113 0 331 -25 359 -40 10 -6 29 -10 42 -10 14 0 28 -4
31 -10 3 -5 22 -10 41 -10 19 0 34 -4 34 -9 0 -5 15 -13 33 -16 17 -4 41 -14
52 -21 11 -8 27 -14 37 -14 10 0 18 -4 18 -10 0 -5 6 -10 13 -10 14 0 26 -6
158 -82 13 -7 29 -19 37 -25 7 -7 28 -20 47 -29 19 -9 35 -20 35 -25 0 -5 6
-9 13 -9 8 0 22 -9 32 -20 10 -11 24 -20 30 -20 7 0 21 -11 31 -25 10 -14 23
-25 27 -25 10 0 45 -30 85 -72 14 -16 29 -28 33 -28 11 0 149 -140 149 -151 0
-5 7 -9 15 -9 8 0 15 -6 15 -14 0 -8 11 -23 25 -34 14 -11 25 -24 25 -29 0 -4
11 -17 25 -27 14 -10 25 -24 25 -30 0 -6 11 -20 25 -30 14 -10 25 -25 25 -32
0 -7 8 -19 18 -26 9 -7 23 -25 31 -40 8 -16 18 -28 22 -28 5 0 16 -16 25 -35
9 -19 20 -35 25 -35 5 0 9 -6 9 -13 0 -7 8 -22 18 -33 9 -11 22 -29 28 -39 43
-75 179 -69 225 11 30 50 17 155 -21 179 -5 3 -26 36 -46 72 -21 36 -64 94
-96 128 -32 34 -58 66 -58 71 0 5 -16 27 -35 48 -19 22 -35 45 -35 51 0 14
-109 164 -133 184 -9 7 -17 20 -17 29 0 8 -22 63 -49 121 -86 185 -139 380
-193 706 -19 117 -23 178 -23 365 0 308 11 461 45 601 26 105 85 261 139 364
13 23 21 58 21 86 0 37 4 49 18 52 31 8 80 7 104 -2z"/>
</g>
</svg>
