<?xml version="1.0" standalone="no"?>
<!DOCTYPE svg PUBLIC "-//W3C//DTD SVG 20010904//EN"
 "http://www.w3.org/TR/2001/REC-SVG-20010904/DTD/svg10.dtd">
<svg version="1.0" xmlns="http://www.w3.org/2000/svg"
 width="2000.000000pt" height="2000.000000pt" viewBox="0 0 2000.000000 2000.000000"
 preserveAspectRatio="xMidYMid meet">
<metadata>
Created by potrace 1.16, written by Peter Selinger 2001-2019
</metadata>
<g transform="translate(0.000000,2000.000000) scale(0.100000,-0.100000)"
fill="#000000" stroke="none">
<path d="M9593 6034 c-37 -18 -58 -47 -70 -95 -8 -31 -13 -34 -49 -37 -28 -2
-45 2 -54 13 -20 25 -89 19 -151 -13 -73 -39 -133 -73 -139 -81 -5 -6 -31 -22
-92 -55 -21 -11 -38 -23 -38 -28 0 -4 -8 -8 -19 -8 -10 0 -24 -7 -31 -15 -7
-9 -28 -23 -46 -31 -19 -9 -34 -20 -34 -25 0 -5 -8 -9 -18 -9 -10 0 -27 -8
-38 -19 -11 -10 -31 -22 -45 -26 -13 -4 -26 -10 -29 -14 -8 -10 -92 -48 -145
-66 -27 -9 -58 -21 -67 -26 -10 -5 -29 -9 -42 -9 -14 0 -27 -4 -30 -9 -3 -5
-20 -11 -38 -15 -18 -3 -71 -12 -118 -21 -171 -30 -444 -29 -630 4 -30 6 -91
16 -135 24 -85 15 -358 91 -387 107 -10 6 -29 10 -42 10 -14 0 -28 5 -31 10
-3 6 -19 10 -35 10 -16 0 -32 5 -35 10 -3 6 -19 10 -35 10 -16 0 -32 5 -35 10
-3 6 -19 10 -35 10 -16 0 -32 5 -35 10 -3 6 -21 10 -40 10 -19 0 -37 5 -40 10
-3 6 -19 10 -35 10 -16 0 -32 5 -35 10 -3 6 -21 10 -40 10 -19 0 -36 4 -39 9
-3 5 -23 11 -43 14 -50 6 -153 28 -178 37 -21 8 -128 30 -180 37 -16 2 -39 8
-50 12 -93 38 -170 34 -235 -14 -19 -14 -40 -25 -46 -25 -36 0 -55 -76 -33
-137 8 -26 17 -32 52 -37 23 -4 79 -18 124 -31 45 -13 107 -27 137 -30 31 -4
56 -10 56 -14 0 -3 -7 -26 -16 -51 -17 -49 -13 -167 9 -245 19 -69 93 -255
157 -395 34 -74 86 -196 117 -270 30 -74 89 -193 130 -265 120 -205 121 -208
152 -291 34 -94 141 -328 177 -390 l26 -44 -104 0 c-158 0 -190 -13 -300 -120
l-91 -89 -44 31 c-63 43 -199 104 -261 117 -75 16 -348 13 -472 -4 -249 -35
-454 -111 -602 -224 -139 -105 -280 -318 -364 -549 -49 -134 -64 -222 -64
-372 0 -336 52 -550 200 -819 91 -167 153 -253 254 -354 46 -46 87 -95 91
-108 16 -53 82 -99 143 -99 16 0 69 13 118 29 127 42 396 97 559 115 316 35
411 39 1210 45 755 6 823 7 852 23 46 26 70 62 168 251 l87 168 42 -6 c28 -5
79 2 156 19 63 13 165 34 225 46 61 11 175 37 255 58 137 34 154 36 300 36 85
0 182 -4 216 -8 49 -7 67 -5 93 8 71 37 91 127 47 214 -56 110 -112 270 -212
601 -36 119 -108 335 -161 481 -129 360 -152 433 -163 518 -11 84 -18 100 -60
136 -17 14 -29 30 -25 35 15 25 396 1115 535 1531 188 562 203 627 160 697
-36 60 -119 80 -187 47z m-219 -458 l29 -24 -73 -214 c-130 -381 -177 -520
-233 -678 -30 -85 -93 -263 -140 -395 -79 -224 -127 -356 -257 -710 -138 -377
-198 -574 -270 -890 -22 -99 -55 -227 -72 -285 -49 -167 -181 -488 -289 -707
l-100 -201 -752 -5 c-727 -5 -849 -9 -1162 -42 -178 -19 -290 -38 -468 -80
l-142 -33 -96 97 c-75 75 -110 122 -166 216 -82 140 -122 223 -150 320 -42
139 -48 186 -48 385 0 218 1 222 82 405 111 248 257 383 483 448 151 44 270
59 441 55 l156 -3 76 -39 c91 -46 307 -215 398 -313 80 -85 288 -360 348 -461
24 -40 61 -88 82 -106 22 -18 39 -37 39 -43 0 -6 11 -22 24 -36 14 -15 32 -39
41 -54 25 -43 63 -66 114 -70 116 -10 194 125 126 218 -13 19 -36 51 -50 72
-14 21 -36 43 -49 49 -14 6 -31 28 -40 52 -18 46 -17 52 69 366 35 129 76 350
151 819 65 407 94 491 352 1036 93 198 162 369 162 405 0 18 6 20 68 21 110 1
182 8 272 25 47 9 102 18 123 21 20 3 40 9 43 14 3 5 20 9 39 9 19 0 37 5 40
10 3 6 19 10 36 10 16 0 29 5 29 10 0 6 7 10 16 10 15 0 30 6 119 45 83 36
205 100 205 107 0 4 4 8 9 8 12 0 115 62 119 72 2 4 9 5 15 3 7 -3 57 20 112
50 55 30 102 55 105 54 3 0 18 -10 34 -23z m-2779 -127 c5 -5 24 -9 41 -9 18
0 36 -4 39 -10 3 -5 19 -10 35 -10 16 0 32 -4 35 -10 3 -5 22 -10 41 -10 19 0
34 -4 34 -10 0 -5 15 -10 34 -10 19 0 38 -4 41 -10 3 -5 19 -10 35 -10 16 0
32 -4 35 -10 3 -5 19 -10 34 -10 15 0 31 -4 37 -9 5 -5 74 -28 154 -50 80 -22
195 -54 255 -72 81 -23 128 -31 178 -30 48 0 69 -3 73 -12 5 -13 -44 -126
-249 -567 -52 -113 -111 -254 -131 -314 -41 -123 -92 -325 -102 -404 -4 -29
-10 -54 -14 -57 -9 -5 -86 157 -136 286 -44 114 -76 178 -144 289 -68 111 -92
158 -160 320 -32 74 -97 225 -145 335 -95 219 -115 282 -115 362 l0 53 43 -6
c23 -4 46 -10 52 -15z m2485 -2534 c29 -77 79 -228 112 -335 32 -107 81 -264
108 -348 28 -84 50 -154 50 -157 0 -3 -22 -5 -49 -5 -77 0 -195 -19 -321 -51
-121 -32 -470 -103 -475 -97 -2 2 15 48 37 103 58 146 101 282 138 435 93 391
117 479 170 640 89 269 73 258 130 95 27 -77 72 -203 100 -280z m-2041 344
l63 -29 -7 -58 c-6 -47 -54 -254 -70 -300 -3 -8 -40 31 -87 90 -45 57 -110
130 -144 164 l-63 61 52 50 c29 28 59 53 67 56 30 12 127 -5 189 -34z"/>
</g>
</svg>
