<?xml version="1.0" standalone="no"?>
<!DOCTYPE svg PUBLIC "-//W3C//DTD SVG 20010904//EN"
 "http://www.w3.org/TR/2001/REC-SVG-20010904/DTD/svg10.dtd">
<svg version="1.0" xmlns="http://www.w3.org/2000/svg"
 width="2000.000000pt" height="2000.000000pt" viewBox="0 0 2000.000000 2000.000000"
 preserveAspectRatio="xMidYMid meet">
<metadata>
Created by potrace 1.16, written by Peter Selinger 2001-2019
</metadata>
<g transform="translate(0.000000,2000.000000) scale(0.100000,-0.100000)"
fill="#000000" stroke="none">
<path d="M6607 9329 c-39 -23 -127 -184 -158 -289 -39 -132 -16 -222 83 -326
58 -61 177 -134 221 -134 27 0 67 30 67 51 0 29 -41 73 -95 104 -60 34 -123
91 -144 132 -14 28 -14 100 0 144 17 52 65 149 99 199 35 53 38 82 10 110 -22
22 -55 25 -83 9z"/>
<path d="M5162 9303 c-21 -8 -69 -114 -96 -214 -25 -91 -25 -97 -11 -153 18
-69 27 -87 74 -149 37 -50 86 -87 115 -87 24 0 66 45 66 70 0 12 -10 31 -23
44 -48 48 -85 103 -96 141 -9 33 -7 52 10 115 12 41 32 96 45 122 30 59 30 63
-1 93 -23 24 -53 30 -83 18z"/>
</g>
</svg>
