<?xml version="1.0" standalone="no"?>
<!DOCTYPE svg PUBLIC "-//W3C//DTD SVG 20010904//EN"
 "http://www.w3.org/TR/2001/REC-SVG-20010904/DTD/svg10.dtd">
<svg version="1.0" xmlns="http://www.w3.org/2000/svg"
 width="2000.000000pt" height="2000.000000pt" viewBox="0 0 2000.000000 2000.000000"
 preserveAspectRatio="xMidYMid meet">
<metadata>
Created by potrace 1.16, written by Peter Selinger 2001-2019
</metadata>
<g transform="translate(0.000000,2000.000000) scale(0.100000,-0.100000)"
fill="#000000" stroke="none">
<path d="M6045 10134 c-150 -17 -195 -25 -201 -35 -3 -5 -12 -9 -21 -9 -27 0
-163 -70 -176 -90 -6 -11 -18 -20 -25 -20 -16 0 -42 -24 -42 -38 0 -5 -9 -12
-20 -15 -11 -3 -24 -16 -29 -29 -5 -12 -18 -30 -30 -38 -12 -8 -21 -20 -21
-28 0 -24 -32 -46 -64 -45 -17 1 -119 7 -226 15 -264 18 -479 10 -580 -22 -41
-13 -77 -26 -80 -30 -3 -3 -27 -11 -54 -18 -105 -27 -276 -131 -276 -168 0 -8
-4 -14 -10 -14 -5 0 -12 -16 -16 -35 -3 -19 -9 -35 -13 -35 -4 0 -13 -45 -20
-99 -11 -80 -11 -121 -1 -206 7 -58 17 -108 21 -111 5 -3 9 -11 9 -19 0 -8 5
-26 12 -42 6 -15 12 -34 14 -42 3 -18 75 -164 83 -171 7 -6 28 -42 49 -83 8
-15 23 -33 33 -40 10 -6 19 -17 19 -24 0 -6 10 -20 23 -30 13 -10 26 -26 30
-36 4 -11 16 -21 27 -24 11 -3 20 -11 20 -18 0 -6 9 -20 20 -30 11 -10 20 -14
20 -9 0 5 11 -3 24 -18 13 -16 27 -28 32 -28 4 0 18 -9 30 -21 37 -34 193
-115 339 -175 17 -6 41 -17 55 -23 113 -49 344 -91 499 -91 104 0 355 28 406
45 53 18 88 39 92 55 4 15 8 16 28 6 13 -6 26 -19 29 -28 2 -10 12 -21 23 -25
10 -4 26 -17 36 -30 10 -13 23 -23 29 -23 5 0 19 -11 30 -25 11 -14 26 -25 34
-25 8 0 14 -4 14 -8 0 -7 47 -36 107 -66 13 -6 23 -14 23 -18 0 -5 5 -8 11 -8
7 0 33 -10 58 -21 25 -12 60 -27 76 -34 17 -7 41 -18 55 -23 42 -18 166 -52
189 -52 12 0 29 -4 39 -9 22 -13 250 -41 326 -41 77 0 236 21 236 32 0 4 9 8
20 8 24 0 90 24 145 52 22 12 57 29 78 40 20 10 37 23 37 28 0 6 7 10 16 10 9
0 24 8 33 18 9 9 25 22 36 28 11 6 24 20 30 32 5 12 13 22 18 22 11 0 37 26
37 38 0 5 7 15 15 22 9 7 25 34 36 59 11 25 26 58 34 73 8 14 15 36 15 47 0
12 5 21 10 21 6 0 10 14 10 30 0 17 4 38 10 48 12 22 40 237 40 310 0 74 -20
235 -31 247 -5 5 -9 24 -9 42 0 18 -4 33 -10 33 -5 0 -10 8 -10 18 0 25 -77
174 -95 185 -8 4 -15 14 -15 21 0 7 -9 21 -20 31 -11 10 -20 24 -20 31 0 7
-11 21 -25 32 -14 11 -25 23 -25 27 0 10 -27 35 -39 35 -6 0 -11 5 -11 12 0
15 -82 98 -97 98 -7 0 -13 5 -13 11 0 13 -25 39 -38 39 -5 0 -18 11 -28 25
-10 14 -22 25 -27 25 -4 0 -18 11 -31 25 -13 14 -28 25 -34 25 -6 0 -12 4 -14
9 -4 11 -96 81 -107 81 -4 0 -16 9 -26 20 -10 11 -24 20 -32 20 -7 0 -16 6
-19 14 -3 8 -18 20 -32 26 -15 6 -45 22 -67 35 -70 42 -136 75 -151 75 -8 0
-14 4 -14 10 0 5 -16 12 -35 16 -19 3 -35 10 -35 14 0 5 -15 12 -32 15 -18 4
-38 11 -43 15 -20 17 -243 69 -355 84 -161 22 -248 24 -375 10z m318 -270 c42
-3 80 -10 83 -15 3 -5 17 -9 31 -9 29 0 152 -34 198 -55 17 -7 42 -17 58 -20
15 -4 30 -11 33 -16 3 -5 9 -7 14 -4 4 3 13 -2 20 -10 7 -8 17 -15 22 -15 17
0 118 -51 118 -60 0 -5 14 -11 30 -15 17 -4 30 -11 30 -16 0 -6 16 -17 35 -25
19 -8 35 -18 35 -22 0 -5 12 -15 28 -23 15 -8 33 -22 40 -31 7 -10 19 -18 25
-18 7 0 23 -12 36 -25 13 -14 29 -25 37 -25 8 0 14 -7 14 -15 0 -8 4 -15 9
-15 5 0 26 -16 45 -35 20 -19 39 -35 42 -35 3 0 15 -11 26 -25 11 -14 26 -25
34 -25 8 0 14 -6 14 -13 0 -7 16 -27 35 -46 19 -18 35 -37 35 -42 0 -5 7 -9
15 -9 8 0 15 -6 15 -14 0 -8 11 -24 25 -37 13 -13 25 -29 25 -36 0 -7 9 -20
19 -30 11 -10 22 -30 26 -45 4 -16 11 -28 16 -28 5 0 9 -8 9 -17 0 -10 6 -30
14 -45 21 -40 39 -199 32 -281 -9 -94 -27 -200 -38 -211 -4 -6 -8 -19 -8 -30
0 -22 -34 -96 -60 -129 -31 -41 -84 -87 -100 -87 -6 0 -10 -4 -10 -10 0 -5 -7
-10 -15 -10 -8 0 -15 -3 -15 -8 0 -4 -15 -13 -32 -21 -18 -8 -35 -17 -38 -21
-9 -11 -158 -51 -214 -57 -60 -6 -325 24 -341 38 -5 5 -20 9 -34 9 -26 0 -75
14 -128 37 -17 7 -34 13 -37 13 -8 0 -149 69 -185 91 -14 7 -34 22 -45 32 -11
9 -24 17 -29 17 -5 0 -18 11 -29 25 -11 14 -23 25 -28 25 -10 0 -130 119 -130
129 0 4 -9 16 -20 26 -11 10 -20 23 -20 28 0 5 -11 20 -25 33 -14 13 -25 29
-25 37 0 8 -7 20 -14 27 -8 6 -25 33 -37 58 -12 26 -30 59 -40 73 -10 14 -21
37 -24 52 -4 15 -11 27 -16 27 -5 0 -9 7 -9 16 0 9 -9 28 -19 43 -11 15 -23
39 -26 54 -4 15 -11 27 -16 27 -5 0 -9 7 -9 17 0 21 -46 114 -68 139 -9 11
-23 31 -31 47 -8 15 -18 27 -23 27 -4 0 -8 8 -8 18 0 9 -9 28 -20 42 -11 14
-20 33 -20 43 0 9 -4 25 -10 35 -16 28 -28 173 -18 212 18 67 81 170 104 170
4 0 16 10 28 23 23 24 104 67 128 67 8 0 18 3 22 8 24 24 223 32 409 16z
m-1178 -330 c50 -3 114 -8 143 -10 29 -2 57 -6 62 -9 6 -3 10 -25 11 -48 0
-23 4 -62 9 -87 22 -113 22 -112 59 -191 11 -25 21 -51 21 -58 0 -6 5 -11 10
-11 6 0 10 -8 10 -19 0 -10 7 -24 15 -31 9 -7 23 -28 31 -46 9 -19 20 -34 25
-34 5 0 9 -9 9 -20 0 -11 4 -20 9 -20 5 0 12 -13 16 -30 4 -16 11 -30 16 -30
5 0 9 -7 9 -16 0 -9 9 -28 19 -43 11 -15 23 -39 26 -54 4 -15 11 -27 16 -27 5
0 9 -7 9 -16 0 -8 12 -36 27 -62 14 -26 35 -63 45 -82 22 -41 36 -65 60 -102
22 -34 17 -37 -81 -54 -216 -39 -370 -28 -634 42 -76 20 -317 138 -357 174 -9
8 -31 26 -50 40 -43 32 -110 99 -110 110 0 5 -10 17 -23 27 -12 10 -28 30 -34
46 -7 15 -17 27 -23 27 -5 0 -10 9 -10 20 0 11 -9 29 -20 40 -11 11 -20 25
-20 31 0 6 -7 23 -15 37 -25 46 -54 158 -61 235 -9 98 11 148 70 176 75 36
210 70 321 81 61 6 137 15 170 19 33 4 76 7 95 5 19 -2 76 -6 125 -10z"/>
</g>
</svg>
