<?xml version="1.0" standalone="no"?>
<!DOCTYPE svg PUBLIC "-//W3C//DTD SVG 20010904//EN"
 "http://www.w3.org/TR/2001/REC-SVG-20010904/DTD/svg10.dtd">
<svg version="1.0" xmlns="http://www.w3.org/2000/svg"
 width="2000.000000pt" height="2000.000000pt" viewBox="0 0 2000.000000 2000.000000"
 preserveAspectRatio="xMidYMid meet">
<metadata>
Created by potrace 1.16, written by Peter Selinger 2001-2019
</metadata>
<g transform="translate(0.000000,2000.000000) scale(0.100000,-0.100000)"
fill="#000000" stroke="none">
<path d="M4195 11351 c-58 -24 -102 -105 -92 -167 4 -26 2 -34 -9 -34 -28 0
-92 -40 -114 -70 -50 -70 -39 -152 29 -220 47 -47 47 -47 43 -106 -3 -50 0
-65 20 -94 33 -49 81 -72 244 -118 77 -22 158 -50 178 -61 26 -15 64 -23 129
-28 88 -6 117 -17 117 -43 0 -16 26 -40 43 -40 9 0 17 -4 19 -9 2 -6 39 -12
83 -15 44 -3 136 -10 205 -16 157 -14 951 -20 1165 -10 110 6 169 13 188 23
31 16 57 57 57 88 0 26 30 39 94 39 67 0 485 56 521 70 15 6 39 10 55 10 16 0
32 5 35 10 3 6 19 10 35 10 49 0 42 17 -10 24 -116 15 -27 36 155 36 101 0
135 14 179 73 29 39 29 125 0 164 -58 78 -124 91 -364 74 -91 -6 -224 -11
-296 -11 -146 0 -224 -15 -360 -70 -68 -28 -94 -33 -194 -37 -124 -6 -352 10
-467 32 -40 8 -118 28 -174 44 -57 17 -156 42 -222 56 -91 19 -161 43 -291 99
-383 166 -598 247 -761 286 -81 20 -204 25 -240 11z"/>
</g>
</svg>
