<?xml version="1.0" standalone="no"?>
<!DOCTYPE svg PUBLIC "-//W3C//DTD SVG 20010904//EN"
 "http://www.w3.org/TR/2001/REC-SVG-20010904/DTD/svg10.dtd">
<svg version="1.0" xmlns="http://www.w3.org/2000/svg"
 width="2000.000000pt" height="2000.000000pt" viewBox="0 0 2000.000000 2000.000000"
 preserveAspectRatio="xMidYMid meet">
<metadata>
Created by potrace 1.16, written by Peter Selinger 2001-2019
</metadata>
<g transform="translate(0.000000,2000.000000) scale(0.100000,-0.100000)"
fill="#000000" stroke="none">
<path d="M6230 9332 c-46 -46 -37 -99 23 -138 18 -11 51 -33 75 -48 27 -17 40
-31 36 -39 -4 -7 -26 -41 -47 -76 -23 -36 -40 -76 -40 -92 0 -40 38 -79 78
-79 41 0 70 22 111 86 l34 53 88 -64 c48 -35 102 -80 120 -100 51 -53 116 -47
142 14 25 62 -9 111 -150 216 -50 37 -90 70 -90 74 0 3 21 24 47 47 40 35 47
46 47 79 0 29 -7 43 -29 62 -38 34 -81 26 -151 -27 l-53 -40 -74 45 c-102 61
-128 66 -167 27z"/>
<path d="M5129 9204 l-59 -57 -48 52 c-37 39 -55 51 -78 51 -41 0 -72 -25 -79
-63 -8 -43 4 -72 55 -130 l43 -48 -38 -31 c-41 -35 -68 -87 -58 -115 12 -36
46 -63 78 -63 34 0 62 16 116 67 l36 34 32 -43 c18 -24 41 -58 52 -76 61 -104
193 -24 146 89 -8 19 -37 62 -66 96 -28 34 -51 65 -51 69 0 4 20 29 45 55 37
40 45 55 45 87 0 49 -32 82 -79 82 -26 0 -45 -11 -92 -56z"/>
</g>
</svg>
