<?xml version="1.0" standalone="no"?>
<!DOCTYPE svg PUBLIC "-//W3C//DTD SVG 20010904//EN"
 "http://www.w3.org/TR/2001/REC-SVG-20010904/DTD/svg10.dtd">
<svg version="1.0" xmlns="http://www.w3.org/2000/svg"
 width="175.000000pt" height="193.000000pt" viewBox="0 0 175.000000 193.000000"
 preserveAspectRatio="xMidYMid meet">
<metadata>
Created by potrace 1.16, written by Peter Selinger 2001-2019
</metadata>
<g transform="translate(0.000000,193.000000) scale(0.100000,-0.100000)"
fill="#000000" stroke="none">
<path d="M705 1901 c-62 -8 -122 -46 -130 -83 -5 -22 -12 -28 -32 -28 -14 0
-36 -12 -51 -29 -115 -123 -114 -121 -108 -146 14 -54 27 -76 51 -85 33 -13
34 -19 19 -340 -10 -238 -10 -245 4 -371 12 -113 7 -184 -12 -172 -12 8 -100
22 -193 29 l-61 6 -76 -75 c-71 -70 -76 -78 -77 -119 -1 -23 -3 -69 -5 -102
-4 -65 -12 -52 106 -157 l44 -39 107 2 c85 2 111 7 126 21 11 9 23 17 28 17 5
0 39 14 77 32 62 28 74 38 113 98 49 77 65 137 52 195 -5 22 -11 78 -13 125
-2 47 -8 123 -13 170 -11 108 -4 494 10 539 6 18 9 54 5 78 l-6 45 28 -7 c15
-4 116 -9 224 -10 206 -3 263 -13 273 -45 16 -51 116 -79 161 -45 10 8 33 15
49 15 30 0 30 0 55 -108 14 -59 24 -123 22 -143 -2 -21 4 -54 12 -74 13 -29
16 -77 16 -221 0 -164 -2 -186 -20 -216 -10 -18 -22 -60 -26 -93 -4 -33 -10
-67 -14 -75 -5 -8 -43 -26 -87 -40 -112 -35 -178 -85 -223 -169 -15 -30 -9
-137 11 -169 22 -35 126 -85 163 -79 124 22 155 31 189 55 21 15 52 36 68 47
16 11 32 31 35 45 4 14 11 30 15 36 5 6 11 42 13 80 2 38 9 103 16 144 6 41
13 82 14 90 1 8 9 40 18 70 9 30 21 80 25 110 10 61 9 324 0 355 -4 11 -8 58
-11 105 -2 47 -12 105 -20 130 -9 25 -16 61 -16 80 -1 19 -8 53 -16 75 -9 22
-19 57 -23 77 -5 21 -14 44 -20 52 -7 8 -16 43 -21 77 -13 91 -66 139 -152
139 -25 0 -60 9 -81 20 -37 20 -48 21 -120 4 -15 -4 -41 0 -60 7 -18 8 -61 13
-101 12 -39 -1 -75 2 -81 7 -6 5 -33 9 -60 8 -36 -1 -64 7 -99 26 -27 14 -54
25 -60 25 -6 -1 -33 -5 -61 -8z m-345 -1431 c12 -7 12 -12 -4 -29 -21 -23 -80
-43 -101 -35 -20 8 -26 31 -11 43 10 8 59 23 96 30 3 0 12 -3 20 -9z"/>
</g>
</svg>
